<?xml version="1.0" encoding="UTF-8"?>
<!DOCTYPE svg PUBLIC "-//W3C//DTD SVG 1.1//EN" "http://www.w3.org/Graphics/SVG/1.1/DTD/svg11.dtd">
<!-- Creator: CorelDRAW -->
<svg xmlns="http://www.w3.org/2000/svg" xml:space="preserve" width="530px" height="450px" shape-rendering="geometricPrecision" text-rendering="geometricPrecision" image-rendering="optimizeQuality" fill-rule="evenodd" clip-rule="evenodd"
viewBox="0 0 530 450.001"
 xmlns:xlink="http://www.w3.org/1999/xlink">
 <g id="Слой_x0020_1">
  <metadata id="CorelCorpID_0Corel-Layer"/>
  <g id="_238468968">
   <ellipse id="_246870512" fill="#DDDDDD" stroke="#020202" stroke-width="2.36221" cx="10.8934" cy="221.015" rx="10.8934" ry="11.0224"/>
   <ellipse id="_246870416" fill="none" stroke="#020202" stroke-width="2.36221" cx="366.852" cy="38.8869" rx="3.90517" ry="3.9514"/>
   <rect id="_246870320" fill="#020202" x="39.3038" y="179.838" width="7.36219" height="3.259"/>
   <rect id="_246870200" fill="#020202" x="60.6177" y="170.725" width="7.36219" height="3.259"/>
   <rect id="_246870128" fill="#020202" x="55.2661" y="179.758" width="21.9623" height="3.259"/>
   <path id="_244266640" fill="#020202" d="M492.649 112.655l5.59962 -0.033071 0.210237 27.3438 -4.71852 1.79646c-2.16497,-3.06025 -1.87087,-24.8127 -1.09134,-29.1072zm-1.6878 -51.0651l8.97286 -0.0342521 0.0236221 47.5513 -9.01892 0.0259843 0.022441 -47.5431zm4.71379 -15.5245l3.69096 12.0296 -8.05042 -0.167717 4.35946 -11.8618zm-8.00435 65.7073c1.22717,1.82835 0.546852,0.0153544 1.37126,2.44489 0.0118111,7.36183 0.0212599,14.7296 -0.00118111,22.0914 -0.0200788,6.40868 1.59686,4.95946 2.0752,8.62798 0.398033,3.05552 0.596458,6.95435 5.34923,5.83821 4.14332,-0.97205 2.53347,-4.73505 3.67088,-7.33112 2.7945,-6.38152 1.62638,-14.0859 1.62638,-21.2658 -0.00118111,-7.0016 -0.931893,-8.15317 1.41851,-10.3311l-0.0696852 -49.8604c0,-5.26183 -3.64017,-18.6556 -7.07482,-22.3843 -4.09135,0.623624 -5.36222,9.37208 -6.64608,13.265 -2.39646,7.25435 -1.75394,10.7126 -1.75394,18.3319 0,13.4552 -0.24567,27.1489 0.0342521,40.5733z"/>
   <path id="_244266568" fill="#EA596F" d="M409.747 296.697c-0.125197,-3.35552 0.407482,-4.49175 0.596458,-7.45632 0.218505,-3.40749 -0.948428,-4.34293 -0.39567,-7.83782 -1.55079,0.881105 -1.76575,1.4504 -3.32954,1.39607l-0.115748 -46.5521 -278.089 0.190158c-0.233859,8.46617 -0.276379,6.81734 -5.26773,12.3532l0.0531498 150.24 283.41 -0.167717 0.278741 -93.0936c5.65395,-6.83034 -0.153544,-4.76812 -0.170079,-11.928 2.14371,1.17638 1.44804,1.11024 3.02954,2.85591z"/>
   <polygon id="_244266424" fill="white" points="159.514,321.114 159.513,325.188 159.365,346.571 329.901,346.689 332.317,346.575 332.758,337.03 332.777,246.346 159.544,246.265 "/>
   <path id="_244266328" fill="#020202" d="M212.199 442.938l105.433 -0.270473 0.0637797 3.8067 -105.463 0.0259843 -0.033071 -3.56222zm56.2608 -230.968c0.772443,0.855121 1.2437,1.99371 1.2437,3.2445 0,1.16693 -0.411025,2.23701 -1.0937,3.07088l140.974 0.0460631c1.02166,4.39135 0.147638,53.4958 0.363781,63.0711l-0.178347 0.102756 0 35.2359 0.100394 85.6432 -289.924 -0.00354332 -0.0460631 -152.868 -7.15868 0.13937c-0.640159,9.17129 -0.0968507,20.367 -0.0968507,29.7603l0.00118111 89.0589c0.0212599,10.03 -0.00118111,20.0646 -0.00118111,30.0958 0,16.4481 -1.97008,14.7827 14.3646,14.7827l278.025 0c4.53072,0 9.34019,1.28504 11.8985,-2.65158 0.699215,-1.86969 0.394489,-64.2781 0.274017,-92.0011l-0.0401576 0 0 -4.74568 0 -6.90002 0 -0.113386 0 -0.112205c-0.00708664,-2.33859 -0.109843,-4.90395 -0.0307088,-7.19293 0.00708664,-0.206694 0.0177166,-0.402757 0.0307088,-0.58701l0 -23.693c-0.342521,-2.04686 -0.01063,-4.46812 0,-6.88112l0 -0.114567 0 -4.55434 0 -3.56812 0 -33.6438c0,-15.6863 2.15316,-14.5796 -13.3465,-14.5796l-82.5581 0c-17.2583,0 -35.6056,-0.590553 -52.8025,-0.0413387zm-7.21892 6.26104c-0.656695,-0.825593 -1.05,-1.87442 -1.05,-3.01654 0,-1.22953 0.454726,-2.34922 1.20355,-3.2008l-132.984 0.108662 -0.0295276 6.15947 132.86 -0.0507876zm159.065 61.3856l0 15.5363 0.0921263 -0.0389765c0.1063,2.65513 0.00944885,10.1044 -0.0921263,18.7855l0 0.0519687 -0.00118111 0 -0.0531498 4.72324 0 0.022441c-0.161812,15.2044 -0.227953,32.0906 0.766538,33.5682 2.04213,1.58032 18.789,3.57757 22.5154,3.80198l-0.206694 -88.1955c-4.71497,0.431104 -19.1044,2.30434 -22.8154,3.85749l-0.108662 7.93349 -0.0968507 -0.0460631zm-13.4528 37.4257l-0.283465 0 0 -53.7167 -0.067323 -27.0792 -278.089 0.190158c-0.233859,8.46617 -0.276379,6.81734 -5.26773,12.3532l0.0531498 150.24 283.41 -0.167717 0.244489 -81.8199zm-172.398 99.859l61.3691 -0.180709 4.213 22.6347 -70.1376 0.0177166c0.389765,-3.54096 3.38269,-20.1922 4.55553,-22.4717zm-146.679 -60.7171l-0.148819 -88.2144 21.3249 3.17717c0.891735,2.70355 1.00985,75.5813 0.198426,81.6475l-21.3745 3.38977zm400.044 -82.1128c2.26418,-1.13386 33.0769,-5.85002 37.369,-6.21144l0.153544 88.3018 -37.3879 -5.80041 -0.134646 -76.29zm-40.7789 82.1365l-0.193701 -88.2912 37.6785 5.84175 -0.0472442 76.5676 -37.4375 5.88191zm-400.38 -82.4684l37.5946 -5.94569 0.0980318 88.2428 -37.3336 -5.64332c-1.24016,-5.15907 -0.33071,-30.6391 -0.33071,-37.8143 0,-12.9166 0.155906,-25.9347 -0.0283465,-38.8395zm-40.7245 82.4707l-0.120473 -88.1944 37.6229 5.70828 -0.0165355 76.3207 -37.4859 6.16537zm122.432 -134.452l278.133 -0.173623 0.077953 11.2146 -278.136 0.0188977 -0.0744097 -11.0599zm-3.32718 16.7705c-0.424017,2.82284 -1.21063,5.10356 -2.59843,6.17246 -1.70552,1.31339 -7.33231,1.62638 -13.1304,1.61812l0 3.29647 0.00236221 0 -0.01063 17.941c-8.60554,0.0472442 -18.4678,-4.67127 -26.6635,-2.94686 -5.58663,1.17638 -35.3103,6.26931 -40.5793,5.47797 -9.94727,-1.4941 -32.2347,-5.78978 -39.5328,-6.05199l0.0165355 96.0156c8.30317,-0.595277 18.7217,-2.78859 27.2044,-4.1197 15.6792,-2.46142 11.3091,-3.0567 26.7828,-0.669687 8.42365,1.29922 18.0638,2.52166 26.2808,4.27915 6.69923,1.43386 18.7134,-2.83702 26.5099,-3.06969l-0.310631 12.2233 -15.528 0.209056 0.248032 3.20434 15.5776 0.209056 -0.15 5.71891c-2.55473,0.251576 -2.85237,-0.303544 -4.94765,0.788979l-0.0909452 2.0315c2.17442,1.13977 2.42127,0.585829 5.17915,0.816144l-0.204331 5.55238 -13.0926 0.242127 0.0980318 3.12757 13.1611 0.20315c0.289371,6.08506 -0.372048,12.9496 0.100394,18.8398 0.53386,6.66734 5.55002,7.16104 10.9666,7.14687l110.253 0.00118111c-0.477167,3.97915 -1.42441,8.08703 -2.17914,12.0296 -2.54765,13.304 1.28032,10.5307 -19.4717,10.5083l-0.0803152 10.5048c12.0615,-0.0354332 108.872,0.653152 112.119,-0.500789l-0.126378 -9.94019 -17.4071 -0.220867 -4.21773 -22.3205c26.2914,-0.840947 53.8832,-0.0637797 80.3176,-0.0637797 43.5651,0 40.9926,3.85277 40.9926,-18.8292 0,-6.64844 -0.0732286,-13.3489 0.0413387,-19.9737l12.0697 -0.128741 0.0165355 -3.10158 -12.1158 -0.0614175 0.112205 -18.5776c6.95317,0.948428 21.8469,4.66301 27.7855,3.36851 8.35042,-1.82127 18.293,-2.91969 26.8418,-4.25198 14.576,-2.27245 11.2914,-1.65 26.915,0.804333 6.95081,1.09134 19.9512,3.96143 26.4509,4.0571l0.00118111 -95.9188c-5.51695,-0.364962 -31.3477,4.92875 -40.4222,6.05789 -4.27442,0.532679 -35.967,-4.82718 -40.4836,-5.80868 -3.96733,-0.863388 -9.37562,0.753546 -13.6016,1.39607 -4.79057,0.728742 -8.64569,1.66182 -13.5945,2.05867 -0.126378,-14.9705 -0.0165355,-29.9906 -0.0165355,-44.9671 0.00118111,-17.3103 -1.66772,-14.2548 -29.458,-14.2548l-175.434 0c-14.654,0 -62.6081,0.674411 -81.4231,0.148819l0 0 -7.48467 0 0 29.7284 -1.6878 0z"/>
   <path id="_244266232" fill="#DDDDDD" d="M46.6619 273.74c0.184253,12.9048 0.0283465,25.9229 0.0283465,38.8395 0,7.17522 -0.909452,32.6552 0.33071,37.8143l37.3336 5.64332 -0.0980318 -88.2428 -37.5946 5.94569z"/>
   <polygon id="_244266136" fill="#EA596F" points="128.444,232.818 406.58,232.8 406.502,221.585 128.37,221.759 "/>
   <polygon id="_244266040" fill="white" points="484.479,350.327 484.526,273.759 446.848,267.917 447.041,356.209 "/>
   <polygon id="_244265944" fill="white" points="43.4234,350.046 43.4399,273.725 5.81695,268.017 5.93742,356.211 "/>
   <path id="_244265848" fill="#DDDDDD" d="M487.955 350.362l37.3879 5.80041 -0.153544 -88.3018c-4.29214,0.361418 -35.1048,5.07757 -37.369,6.21144l0.134646 76.29z"/>
   <path id="_244265752" fill="#D7E8EF" d="M87.6286 140.75l41.9423 0.0578742 -0.0271654 3.34844 -42.0308 -0.022441 0.115748 -3.38387zm-0.0850396 -7.41853l42.0993 0.0732286 -0.259843 3.3319 -41.8206 -0.0188977 -0.0188977 -3.38623zm14.8926 -50.0127c-0.141733,-3.89056 -7.67246,-7.59333 -6.75474,-20.1131 0.549214,-7.50711 5.30553,-13.5036 13.1162,-13.5284 11.8146,-0.0366143 15.691,14.5016 10.6831,25.532 -1.41024,3.10631 -4.52245,5.19687 -4.69017,8.39412 9.00003,2.1567 15.8729,5.44017 18.3048,15.2729 2.01733,8.15672 -0.0271654,20.9717 -4.39017,28.0938l-39.9344 -0.0283465c-4.81301,-5.04214 -6.30829,-21.1194 -4.68899,-27.8824 3.18072,-13.2886 13.48,-13.1197 18.3544,-15.7406zm-20.941 65.7155l54.0037 0.0401576 0.188977 -108.011 -54.0769 0.00944885 -0.115748 107.961z"/>
   <path id="_244265656" fill="#D7E8EF" d="M400.287 140.746l41.895 0.0531498 -0.141733 3.35434 -41.8596 0.0129922 0.1063 -3.42048zm-0.0826774 -7.41971l42.0379 0.077953 -0.248032 3.33072 -41.7663 0.0141733 -0.0236221 -3.42284zm27.9792 -51.8387l-0.914176 2.60906c1.71497,1.01221 5.47561,1.20827 8.05278,2.35749 2.02914,0.905908 4.2319,3.06025 5.6197,4.79057 4.44804,1.97953 5.77561,13.376 5.50632,18.0473 -0.450001,7.79884 -2.07166,11.6374 -4.94057,18.5056l-40.0926 -0.0838585c-2.80631,-1.17166 -12.9118,-29.8076 4.17639,-39.9356l4.40552 -2.09764 5.09293 -1.58386c-0.115748,-2.23111 -4.45277,-7.1823 -5.65513,-10.5036 -1.3004,1.47166 -1.92048,4.23426 -2.28426,6.47955 -7.33112,-12.026 -2.86064,-34.5851 14.2996,-31.617 15.1725,2.62324 15.8741,24.8528 6.73348,33.032zm-34.0643 67.5888l53.9978 -0.00354332 0.257481 -108.032 -54.1395 0.0295276 -0.115748 108.006z"/>
   <path id="_244265560" fill="#020202" d="M107.575 159.064c-2.06575,-2.64922 -0.428741,-4.86025 2.91143,-3.29765l-0.270473 3.02127 -2.64095 0.276379zm-25.9643 -117.991l54.0769 -0.00944885 -0.188977 108.011 -54.0037 -0.0401576 0.115748 -107.961zm23.3776 120.746c-5.67876,0.179528 -17.7319,1.08544 -22.4198,-1.46103 -7.28152,-3.95552 -6.45711,-10.3843 -6.45711,-17.9115l-0.00236221 -97.0432c-0.0153544,-7.10081 1.70315,-13.3701 9.37208,-15.1052 4.62167,-1.04646 17.7497,-0.403938 23.3174,-0.403938 4.77049,-0.00236221 20.2595,-0.572836 23.8064,0.625986 7.57325,2.55591 8.44727,8.10121 8.43546,15.4973l-0.00472442 97.0432c-0.00944885,17.8111 -2.45788,20.5678 -28.9229,18.7052 2.52048,-3.8067 2.81576,-5.29962 0.0354332,-9.26459l26.9103 -0.17126 0.00118111 -114.649 -60.8671 -0.0271654 0.0838585 114.821 26.6599 0.0767719c-2.78032,5.46616 -2.44961,3.98859 0.0519687,9.26696zm-18.5693 -135.076c-17.9953,2.50749 -13.7422,23.2725 -13.7682,38.9292l-0.00118111 79.8463c-0.0354332,22.989 15.802,19.8579 31.8993,19.8579 8.60908,0 17.7638,0.614175 26.0977,-0.486616 17.8406,-2.35631 13.8697,-24.5186 13.8933,-38.4119l-0.00944885 -79.8463c0.0236221,-23.0741 -14.0965,-20.1213 -32.0906,-20.1213 -7.33349,0 -19.278,-0.707482 -26.0209,0.232678z"/>
   <path id="_244265464" fill="#020202" d="M422.803 158.565c-4.71616,2.4378 -4.88623,-5.22639 0.323623,-2.81694l-0.323623 2.81694zm-28.5674 -117.494l54.1395 -0.0295276 -0.257481 108.032 -53.9978 0.00354332 0.115748 -108.006zm23.38 120.746c-5.66695,0.191339 -17.7438,1.08071 -22.4221,-1.46457 -7.35711,-4.00395 -6.47718,-10.3181 -6.47718,-17.9056l0 -97.0432c-0.0354332,-20.0091 18.4052,-15.5103 32.7084,-15.5091 20.3776,0.00118111 32.3198,-3.56458 32.295,16.1233l0 97.0432c0,17.7603 -4.5319,20.7107 -28.9619,18.6922 2.47914,-3.72403 2.76733,-5.26301 0.0283465,-9.24806l26.9245 -0.206694 -0.220867 -114.697 -60.7065 0.223229 0.0259843 114.219c3.60474,1.15394 21.3721,0.275198 26.7698,0.50197 -2.74017,5.19805 -2.37993,4.21419 0.0366143,9.27168zm-18.5587 -135.067c-18.0544,2.61969 -13.7788,22.7564 -13.7788,38.9222l0 79.2309c-0.00708664,8.14018 0.629529,13.8414 7.84845,18.176 5.0575,3.03662 42.0391,3.21261 49.1482,2.09646 7.48467,-1.17402 13.3748,-4.52718 14.6469,-13.1646 0.986223,-6.68506 -0.366143,-66.3167 0.0141733,-78.9687 0.259843,-8.61499 0.183071,-17.7225 0.214961,-26.4107 0.0283465,-7.89687 -0.817325,-14.1331 -8.07758,-18.169 -5.41301,-3.00828 -17.5382,-1.95237 -24.006,-1.95237 -7.21301,0 -19.4304,-0.714569 -26.0103,0.239764z"/>
   <path id="_244265368" fill="white" d="M198.336 128.686l-1.47756 3.88111c0.870475,35.6162 19.9182,26.517 31.48,49.1647 1.93229,3.78426 15.3225,6.81262 19.6347,7.02522 0.688585,-3.34725 0.409844,-7.69254 2.08938,-10.2544 1.45512,-2.22166 4.11261,-3.03544 5.99293,-6.22207 3.57403,-6.05435 4.43151,-12.5374 4.4634,-19.5379 -7.38664,-0.155906 -10.1374,3.67796 -17.5571,-2.32324 -6.10159,-4.93348 -5.16852,-7.71026 -14.5949,-8.26538 -7.25553,-0.42756 -11.3433,-0.269292 -16.643,-5.57718 -3.40631,-3.4134 -7.27797,-10.8437 -12.2575,-9.81027l-1.13032 1.9193z"/>
   <path id="_244265296" fill="white" d="M109.151 352.795c0.81142,-6.06616 0.693309,-78.9439 -0.198426,-81.6475l-21.3249 -3.17717 0.148819 88.2144 21.3745 -3.38977z"/>
   <path id="_244265176" fill="#DDDDDD" d="M234.455 416.902c-1.17284,2.27953 -4.16576,18.9308 -4.55553,22.4717l70.1376 -0.0177166 -4.213 -22.6347 -61.3691 0.180709z"/>
   <path id="_244265032" fill="white" d="M423.855 32.1969l3.67914 0.321261 -0.191339 3.07088 -12.3591 -0.246851 -0.0696852 -2.88544 3.47481 -0.21378 5.46616 -0.0460631zm27.8552 120.101l-0.220867 -114.697 -60.7065 0.223229 0.0259843 114.219c3.5693,1.14331 55.2261,0.29882 60.9014,0.255119zm-10.9784 10.0347l0 0.00118111 -0.00472442 0c-3.02481,0.278741 -39.8304,1.57205 -45.2694,-1.3878 -7.35711,-4.00277 -6.74175,-10.9122 -6.74175,-18.4997l0 -97.0432c-0.0354332,-20.0091 18.4052,-15.5103 32.7084,-15.5091 20.3776,0.00118111 32.3198,-3.56458 32.295,16.1233l0 97.0432c0,12.9815 -2.14371,18.2729 -12.9874,19.2721z"/>
   <path id="_244264960" fill="white" d="M102.287 32.3032l12.6059 0.214961 -0.188977 3.07088 -12.3615 -0.23504 -0.055512 -3.0508zm-12.8433 120.204l22.7079 0 -0.00354332 -0.00590553 26.9103 -0.17126 0.00118111 -114.649 -60.8671 -0.0271654 0.0838585 114.821 11.1674 0.0318899 0 0zm37.8048 9.66026l0 0.00118111 -0.022441 0c-2.28426,0.131103 -4.94411,0.120473 -8.03506,0l-29.7473 0 0 -0.239764c-2.78859,-0.229135 -5.26655,-0.696852 -6.87522,-1.57087 -7.28152,-3.95552 -6.45711,-10.3843 -6.45711,-17.9115l-0.00236221 -97.0432c-0.0153544,-7.10081 1.70315,-13.3701 9.37208,-15.1052 4.62167,-1.04646 17.7497,-0.403938 23.3174,-0.403938 4.77049,-0.00236221 20.2595,-0.572836 23.8064,0.625986 7.57325,2.55591 8.44727,8.10121 8.43546,15.4973l-0.00472442 97.0432c-0.00708664,13.5603 -1.4315,18.3934 -13.787,19.1067z"/>
   <path id="_244264816" fill="#4A9FD5" d="M405.592 87.7786c1.76221,0.0826774 1.6878,-0.537403 2.7378,1.83071 -2.63741,3.08032 -8.3138,4.47167 -8.98585,15.3603 -0.357875,5.79923 1.00866,14.5689 3.96852,19.4753l35.9895 -0.167717c4.41734,-7.44569 6.11222,-24.4843 -0.818506,-30.867 -0.380316,-0.432285 -3.20198,-5.48387 -7.69963,-6.11813 -2.54646,-0.359056 -8.62207,-1.5815 -11.3351,-1.1941 -5.12482,0.729923 -6.4075,3.61773 -6.52325,3.71222 -1.56615,-1.45512 -2.31261,-2.10119 -2.92796,-4.12915l-4.40552 2.09764z"/>
   <path id="_244264792" fill="#020202" d="M159.304 349.757l8.56892 -0.0318899 0.0744097 2.81694 0 3.41103 -8.60672 0.24567 -0.0366143 -6.44175zm8.64333 -3.59647l3.81733 0 0 0.00236221 154.913 0.107481 5.96458 0c0,-33.4407 0.01063,-66.8955 0.0177166,-100.342l-173.234 -0.0803152c-0.0118111,33.7135 0.0507876,67.3573 -0.177166,100.307l8.69884 0.00590553zm163.753 13.4244c1.34292,0.108662 3.51733,0.00472442 4.52718,0l0 -2.92442 -0.334253 -114.172 -179.884 -0.0188977c-0.0814963,39.1607 -0.270473,78.1089 -0.141733,117.124l12.0792 0 3.81733 0 132.622 0.00472442 0.0141733 -0.0141733 27.3001 0z"/>
   <path id="_290157496" fill="#020202" d="M32.3481 140.143l7.55672 -0.0732286 0.01063 6.39569c-2.36576,0.709845 -5.0634,0.610632 -7.45278,0.107481l-0.114567 -6.42994zm-1.42441 -16.7186l10.4126 0.0342521 0.102756 12.9709 -10.552 0.255119 0.0366143 -13.2603zm7.14923 -64.7813l1.87442 0.0614175 -0.152363 61.2817 -1.95827 -0.0177166 0.236221 -61.3254zm-5.48387 -0.0141733l1.90985 0.0696852 -0.204331 61.2829 -1.97127 -0.00236221 0.265749 -61.3502zm3.35788 -10.7977c1.45158,1.63347 2.23938,5.02915 2.85828,7.40553l-5.38348 -0.0578742 2.5252 -7.34766zm-6.84215 70.6585c-1.00394,3.45119 -0.83268,-0.344883 -1.56969,3.07324l0.00826774 17.2134c1.11142,2.77678 0.553939,-0.310631 1.5567,2.42599 0.0129922,7.03821 -0.979137,9.11105 6.85041,9.10515 8.13191,-0.00708664 7.3264,-1.35 7.33585,-9.10278 0.812601,-4.15867 1.5,4.90277 1.50355,-13.4989 0.00236221,-12.4063 -0.836223,-5.07167 -1.50827,-9.21617l0.00118111 -54.6604c-0.00354332,-4.96183 0.713388,-5.49096 -1.20945,-9.89058 -2.19449,-5.01852 -3.36497,-11.4508 -5.7071,-16.4386 -1.42205,1.33819 -7.27443,19.128 -7.34648,20.1544 -0.1063,1.53189 0.0850396,3.89529 0.0850396,5.56065l0 55.2746z"/>
   <path id="_290157424" fill="#020202" d="M97.4153 88.9538l9.50908 9.88113 0.00590553 24.5174 -16.6713 0.239764c-2.32914,-7.00278 -4.17993,-12.7689 -3.48426,-20.4768 0.551576,-6.10277 4.31576,-13.0205 10.6406,-14.1615zm29.5607 34.4092l-16.7375 0.155906c0.179528,-7.59215 -0.140552,-14.9776 0.00944885,-22.2591 0.0744097,-3.65788 7.09018,-10.0902 10.0843,-12.3012 14.3174,4.45277 10.2863,23.7414 6.64372,34.4044zm-25.865 -35.3977l4.04647 -1.19882c0.890554,-1.69961 0.52323,-0.884648 0.786617,-3.06025l4.67245 0.113386 1.19764 2.74843 4.25671 1.20118 -7.10435 7.74924c-2.3504,-1.2189 -6.23742,-5.50041 -7.85554,-7.55317zm-1.94882 -19.8367c2.56064,-3.20316 4.04529,-3.29883 5.66222,-7.67483 2.3752,0.826774 4.11379,2.28544 6.55041,3.25158 2.16851,0.858664 4.87324,1.03701 6.77364,1.96654 0.0271654,16.8426 -16.4434,20.628 -18.9863,2.4567zm18.3485 -6.53978c-4.81891,-0.441734 -10.2426,-3.10749 -13.0264,-6.89293 4.13151,-4.87797 11.8678,-0.0767719 13.0264,6.89293zm-15.0745 21.73c-4.87442,2.62087 -15.1737,2.45198 -18.3544,15.7406 -1.6193,6.76301 -0.124016,22.8402 4.68899,27.8824l39.9344 0.0283465c4.36301,-7.12207 6.4075,-19.9371 4.39017,-28.0938 -2.4319,-9.83271 -9.30475,-13.1162 -18.3048,-15.2729 0.167717,-3.19725 3.27993,-5.28781 4.69017,-8.39412 5.00789,-11.0303 1.1315,-25.5686 -10.6831,-25.532 -7.81065,0.0248032 -12.567,6.02128 -13.1162,13.5284 -0.917719,12.5197 6.61301,16.2225 6.75474,20.1131z"/>
   <path id="_290157280" fill="white" d="M414.526 88.5073c0.559844,1.94646 1.54607,1.56024 3.39095,2.16379 3.49962,0.381497 5.64332,1.27678 8.55239,-1.15276l1.6063 -0.917719 -4.10198 -1.00866 -0.132284 -2.84292 -1.42678 -0.0496064 -3.69686 -0.22441 -0.733467 2.79213 -3.45828 1.24016z"/>
   <path id="_290157184" fill="#DDDDDD" d="M261.394 212.014l-132.984 0.108662 -0.0295276 6.15947 132.86 -0.0507876c-0.656695,-0.825593 -1.05,-1.87442 -1.05,-3.01654 0,-1.22953 0.454726,-2.34922 1.20355,-3.2008zm0.718112 193.053c3.06733,-1.02166 4.11497,-1.47402 6.18545,1.49292 0.347245,7.2449 -8.64924,6.52915 -6.18545,-1.49292zm147.635 -108.37l0.122835 105.688 -289.924 -0.00354332 -0.0460631 -152.868 -7.15868 0.13937c-0.640159,9.17129 -0.0968507,20.367 -0.0968507,29.7603l0.00118111 89.0589c0.0212599,10.03 -0.00118111,20.0646 -0.00118111,30.0958 0,16.4481 -1.97008,14.7827 14.3646,14.7827l278.025 0c4.53072,0 9.34019,1.28504 11.8985,-2.65158 0.837404,-2.24056 0.233859,-91.3125 0.233859,-103.647l0 -0.175985 0 -0.0496064c-0.00708664,-2.33977 -0.109843,-4.90513 -0.0307088,-7.19293 0.00708664,-0.206694 0.0177166,-0.402757 0.0307088,-0.58701l0 -23.693c-0.347245,-2.07875 0,-4.5449 0,-6.99569l0 -5.45198 0 -36.3143c0,-15.6863 2.15316,-14.5796 -13.3465,-14.5796l-82.5581 0c-17.2583,0 -35.6056,-0.590553 -52.8025,-0.0413387 0.772443,0.855121 1.2437,1.99371 1.2437,3.2445 0,1.16693 -0.411025,2.23701 -1.0937,3.07088l140.974 0.0460631c-0.217323,16.1138 -0.655514,56.425 0.162993,78.3652zm10.6406 -1.57796l0.01063 -0.00472442c0.308269,7.61577 -1.07126,54.6415 0.620081,57.1514 2.04213,1.58032 18.789,3.57757 22.5154,3.80198l-0.206694 -88.1955c-4.71497,0.431104 -19.1044,2.30434 -22.8154,3.85749l-0.108662 7.93349 -0.0153544 -0.00708664 0 15.463z"/>
   <path id="_290157088" fill="#EA596F" d="M97.4153 88.9538c-6.32482,1.14095 -10.089,8.05869 -10.6406,14.1615 -0.695671,7.7079 1.15512,13.4741 3.48426,20.4768l16.6713 -0.239764 -0.00590553 -24.5174 -9.50908 -9.88113z"/>
   <path id="_290157016" fill="#EA596F" d="M126.976 123.363c3.64253,-10.663 7.67364,-29.9517 -6.64372,-34.4044 -2.9941,2.21103 -10.0099,8.64333 -10.0843,12.3012 -0.15,7.28152 0.170079,14.667 -0.00944885,22.2591l16.7375 -0.155906z"/>
   <path id="_290156872" fill="white" d="M239.656 288.904c1.46457,0.400395 12.9768,9.3331 14.139,10.7776 -1.28977,1.89922 -12.1583,10.5201 -14.1981,10.8697l0.0590553 -21.6473zm1.98426 -3.65907c-19.2591,4.73623 -12.6107,33.4017 6.6697,29.093 18.4382,-4.12206 12.0532,-33.6958 -6.6697,-29.093z"/>
   <path id="_290156776" fill="#020202" d="M407.304 68.1297c-2.10709,-17.6221 16.5815,-20.5501 20.1768,-11.7426 -16.2662,2.71536 -15.7985,8.38231 -20.1768,11.7426zm31.1788 25.2804c6.93073,6.3827 5.23584,23.4213 0.818506,30.867l-35.9895 0.167717c-2.95985,-4.90631 -4.32639,-13.676 -3.96852,-19.4753 0.591734,-9.58704 5.0634,-11.8122 7.92522,-14.3091 0.757089,-0.661419 2.45079,-1.63583 3.65552,-2.54883 5.74254,12.2079 21.0485,3.013 22.0135,1.63111 0.688585,-0.986223 2.89725,0.666144 5.54529,3.66733zm-33.3651 -5.34096c-16.4245,10.3725 -6.48309,38.484 -3.70277,39.645l40.0926 0.0838585c2.86891,-6.86813 4.49056,-10.7067 4.94057,-18.5056 0.269292,-4.67127 -1.05827,-16.0678 -5.50632,-18.0473 -1.3878,-1.73032 -3.59056,-3.88466 -5.6197,-4.79057 -2.57717,-1.14922 -6.33781,-1.34528 -8.05278,-2.35749l0.914176 -2.60906c9.14058,-8.17916 8.439,-30.4088 -6.73348,-33.032 -17.1603,-2.96812 -21.6308,19.591 -14.2996,31.617 0.363781,-2.24528 0.983861,-5.00789 2.28426,-6.47955 1.20237,3.32127 5.53939,8.27247 5.65513,10.5036 -3.77009,0.24567 -7.05947,2.13308 -9.97208,3.97206zm9.53625 0.392127l3.32954 -1.1941 0.733467 -2.79213 3.69686 0.22441 1.42678 0.0496064 0.132284 2.84292 4.10198 1.00866c-3.51615,3.15828 -8.8642,3.61773 -13.4209,-0.13937zm-2.87717 -20.3056c4.91576,-5.70356 10.3111,-8.72955 18.228,-8.08349 5.00435,23.1698 -17.1166,28.1139 -18.228,8.08349z"/>
   <polygon id="_290156680" fill="#DDDDDD" points="212.232,446.501 317.695,446.475 317.631,442.668 212.199,442.938 "/>
   <path id="_290156656" fill="#DDDDDD" d="M493.986 68.5514l3.14292 0.0614175 -0.0531498 20.9174 -3.43584 -0.00826774 0.346064 -20.9705zm-3.04725 40.5816l9.01892 -0.0259843 -0.0236221 -47.5513 -8.97286 0.0342521 -0.022441 47.5431z"/>
   <path id="_290170248" fill="#020202" d="M241.64 285.245c18.7229,-4.60277 25.1079,24.9709 6.6697,29.093 -19.2804,4.30867 -25.9288,-24.3568 -6.6697,-29.093zm20.9375 18.1217c5.02206,-23.3682 -30.6816,-30.7997 -35.5324,-7.46813 -4.94175,23.7745 30.3556,31.558 35.5324,7.46813z"/>
   <path id="_290170152" fill="white" d="M422.899 80.5691c7.51538,-2.36339 8.62798,-13.4516 7.10671,-20.4969 -7.91695,-0.646065 -13.3122,2.37993 -18.228,8.08349 0.2563,4.62403 2.59607,10.2886 6.80199,12.3685 1.48937,0.738191 2.74607,0.538584 4.3193,0.044882z"/>
   <polygon id="_290170056" fill="#020202" points="443.635,194.458 447.047,199.801 449.835,198.125 441.732,184.327 434.008,198.529 436.793,199.734 440.179,194.774 440.304,245.701 443.498,245.661 "/>
   <path id="_290169960" fill="white" d="M99.1621 68.1285c2.54292,18.1713 19.0134,14.3859 18.9863,-2.4567 -1.9004,-0.92953 -4.60513,-1.10788 -6.77364,-1.96654 -2.43662,-0.966145 -4.17521,-2.42481 -6.55041,-3.25158 -1.61693,4.376 -3.10158,4.47167 -5.66222,7.67483z"/>
   <path id="_290169864" fill="white" d="M492.649 112.655c-0.672049,3.70159 -0.261024,10.9559 -0.261024,15.0508 0,4.08426 -1.02874,10.6914 1.35237,14.0563l4.71852 -1.79646 -0.210237 -27.3438 -5.59962 0.033071z"/>
   <path id="_290169768" fill="#020202" d="M367.301 436.034c-2.69528,-2.0067 -10.8201,-7.40435 -13.8839,-7.33467l-0.731105 2.51103c1.97363,1.70434 2.54056,0.95079 4.12324,3.21851l-11.5323 0.198426 -0.0401576 3.25158 12.0437 0.354332 -4.79765 3.37796 1.08662 2.22993c2.3693,-0.0437009 12.2811,-5.82521 13.7315,-7.80711z"/>
   <path id="_290169672" fill="#020202" d="M243.152 303.769l-0.148819 -7.82246c1.93111,0.571655 4.01812,2.25473 5.27364,3.73584 -1.09016,1.70788 -3.35788,3.23977 -5.12482,4.08663zm-3.55513 6.78309c2.03977,-0.349607 12.9083,-8.9705 14.1981,-10.8697 -1.16221,-1.44449 -12.6744,-10.3772 -14.139,-10.7776l-0.0590553 21.6473z"/>
   <polygon id="_290169576" fill="#020202" points="400.181,144.167 442.041,144.154 442.182,140.8 400.287,140.746 "/>
   <polygon id="_290169480" fill="#020202" points="400.228,136.75 441.995,136.735 442.243,133.405 400.205,133.327 "/>
   <polygon id="_290169456" fill="#020202" points="87.5129,144.134 129.544,144.156 129.571,140.808 87.6286,140.75 "/>
   <polygon id="_248113040" fill="#020202" points="87.5625,136.718 129.383,136.737 129.643,133.405 87.5436,133.331 "/>
   <polygon id="_248112944" fill="#EA596F" points="30.8871,136.685 41.4391,136.43 41.3363,123.459 30.9237,123.424 "/>
   <path id="_248112848" fill="#EA596F" d="M407.304 68.1297c4.37836,-3.36025 3.91064,-9.02719 20.1768,-11.7426 -3.59529,-8.80751 -22.2839,-5.87955 -20.1768,11.7426z"/>
   <polygon id="_248112752" fill="#EEEEEE" points="32.3233,119.979 34.2946,119.981 34.4989,58.6986 32.5891,58.6289 "/>
   <polygon id="_248112656" fill="#EEEEEE" points="37.8367,119.968 39.795,119.986 39.9474,58.7045 38.0729,58.6431 "/>
   <polygon id="_248112560" fill="#020202" points="51.7324,381.534 81.3558,381.353 81.2825,378.191 51.6769,378.371 "/>
   <path id="_248112464" fill="#020202" d="M457.977 238.86c4.64411,0.183071 24.039,0.953152 26.9091,-0.530317l-0.257481 -2.78505 -26.6398 0.268111 -0.0118111 3.04725z"/>
   <polygon id="_248112368" fill="#020202" points="475.513,387.027 504.526,386.767 504.424,383.672 475.55,383.865 "/>
   <path id="_248112272" fill="white" d="M101.111 87.9652c1.61812,2.05276 5.50513,6.33427 7.85554,7.55317l7.10435 -7.74924 -4.25671 -1.20118 -1.19764 -2.74843 -4.67245 -0.113386c-0.263387,2.1756 0.103937,1.36063 -0.786617,3.06025l-4.04647 1.19882z"/>
   <path id="_248112224" fill="#020202" d="M482.059 185.012c1.13622,2.59489 -0.329529,3.26221 -2.58662,1.71378 0.532679,-2.72245 0.0590553,-2.14134 2.58662,-1.71378zm-5.87364 2.27127c1.09607,5.93624 11.1048,4.78466 9.54215,-2.3882 -1.29685,-5.94687 -10.7823,-4.32403 -9.54215,2.3882z"/>
   <polygon id="_248111536" fill="#020202" points="493.64,89.5219 497.075,89.5302 497.129,68.6128 493.986,68.5514 "/>
   <path id="_248111440" fill="#020202" d="M379.49 196.653c2.58426,-1.26378 11.126,-12.6107 11.7827,-15.7063l-2.59371 -0.981499c-1.9819,2.28072 -10.6536,13.4776 -11.0811,15.3863l1.89213 1.30158z"/>
   <path id="_248111344" fill="#020202" d="M172.917 190.609l0.21378 4.02875 3.21143 -0.0602364 0.126378 -3.95552c2.29253,-0.380316 2.27953,0.146457 4.24489,-0.820869l-0.253938 -2.70709 -3.86458 -0.206694c-0.369686,-2.59371 0.311812,-2.08347 -0.933074,-4.18702l-1.98662 0.0200788c-1.18111,2.08347 -0.509057,1.6689 -0.9189,4.20474l-3.91891 0.328347 -0.0602364 2.3315c1.85552,1.35709 1.51772,0.631892 4.13978,1.02402z"/>
   <path id="_248111248" fill="#020202" d="M449.955 374.694c-5.2571,0 -8.64688,-0.859845 -9.90357,1.1504l0.170079 2.06457 20.7024 -0.0153544 -0.252757 -3.09686c-3.51261,-0.281103 -7.16341,-0.102756 -10.7162,-0.102756z"/>
   <path id="_248111224" fill="#020202" d="M495.211 248.331c3.78899,0.223229 16.3937,0.871656 19.193,-0.312993l0.0874018 -2.84292 -19.5544 0.0909452 0.274017 3.06497z"/>
   <polygon id="_246756592" fill="#020202" points="510.181,238.957 529.987,238.888 530.001,235.573 510.062,235.808 "/>
   <path id="_246756496" fill="white" d="M104.484 54.6958c2.78387,3.78544 8.2075,6.4512 13.0264,6.89293 -1.15866,-6.96971 -8.89491,-11.7709 -13.0264,-6.89293z"/>
   <polygon id="_246756400" fill="#020202" points="488.042,228.184 506.722,228.024 506.632,224.923 487.993,225.181 "/>
   <path id="_246756304" fill="#020202" d="M143.321 187.897c1.63465,3.60946 7.239,10.7599 10.5177,13.0571l2.19095 -2.05749 -10.7894 -12.665 -1.9193 1.66536z"/>
   <path id="_246756208" fill="#020202" d="M473.178 368.307c3.37088,0.55512 13.1752,1.00866 15.8941,-0.39567l-0.210237 -2.76615 -15.8871 0.0992129 0.20315 3.06261z"/>
   <polygon id="_246756112" fill="#4A9FD5" points="159.341,356.199 168.038,355.95 167.873,349.725 159.304,349.757 "/>
   <polygon id="_246756016" fill="#020202" points="465.405,228.21 481.47,228.138 481.318,224.913 465.293,224.988 "/>
   <path id="_246755920" fill="#D7E8EF" d="M32.4627 146.573c2.38938,0.503151 5.08702,0.602364 7.45278,-0.107481l-0.01063 -6.39569 -7.55672 0.0732286 0.114567 6.42994z"/>
   <polygon id="_246755824" fill="white" points="491.315,57.9273 499.366,58.0951 495.675,46.0655 "/>
   <path id="_246755728" fill="#020202" d="M186.7 432.82c1.09607,0.901184 -0.301182,0.514962 2.24528,0.830317l0.611813 2.42599 2.68583 0.159449 0.526773 -2.50513 2.40827 -0.722837 -0.0767719 -2.67993 -2.3504 -0.47008 -0.786617 -2.38701 -2.55119 0.100394 -0.428741 2.39528 -2.27835 0.574017 -0.00590553 2.27953z"/>
   <path id="_246755600" fill="#282F39" d="M139.283 184.145c2.55001,-0.614175 1.70434,0.124016 3.53977,-2.05394l-7.37128 -10.8579 -2.44961 1.37835c2.02323,4.23899 4.88623,7.23191 6.28112,11.5335z"/>
   <path id="_246755504" fill="#020202" d="M365.08 171.334l-2.42835 0.41693 0.00944885 2.59961 2.37402 0.601183 0.440552 2.44725 2.55473 0.144095 0.892916 -2.75552c3.46536,-0.303544 1.54252,0.278741 2.32678,-1.63111 -0.778349,-1.94292 1.15158,-1.3878 -2.27481,-1.65591l-0.745278 -2.6752 -2.6067 0.120473 -0.543309 2.3882z"/>
   <polygon id="_246755408" fill="#020202" points="414.984,35.3422 427.343,35.5891 427.534,32.5182 423.855,32.1969 418.389,32.243 414.914,32.4568 "/>
   <path id="_246755312" fill="#020202" d="M262.112 405.067c-2.46379,8.02207 6.5327,8.73782 6.18545,1.49292 -2.07048,-2.96694 -3.11812,-2.51457 -6.18545,-1.49292z"/>
   <polygon id="_246755216" fill="#020202" points="102.343,35.354 114.704,35.5891 114.893,32.5182 102.287,32.3032 "/>
   <polygon id="_244100016" fill="#020202" points="468.608,248.401 479.927,248.255 479.928,245.185 468.435,245.358 "/>
   <polygon id="_244099920" fill="#020202" points="78.0014,390.615 88.0007,390.433 87.7585,387.242 78.1195,387.281 "/>
   <polygon id="_244099824" fill="#020202" points="457.742,387.026 467.473,386.89 467.403,383.702 457.645,383.811 "/>
   <polygon id="_244099728" fill="#020202" points="278.767,320.516 287.06,320.356 286.997,317.032 278.577,317.057 "/>
   <path id="_244099632" fill="white" d="M243.152 303.769c1.76693,-0.846853 4.03466,-2.37875 5.12482,-4.08663 -1.25552,-1.48111 -3.34253,-3.16418 -5.27364,-3.73584l0.148819 7.82246z"/>
   <path id="_207409816" fill="#020202" d="M93.5967 378.111c-3.4441,0.0283465 -2.27953,-0.485435 -3.33662,1.4315l0.217323 1.81182c2.55001,0.307088 5.10474,0.590553 7.20593,-0.506694l-0.0460631 -2.0126c-1.76693,-0.892916 -1.77166,-0.741734 -4.04056,-0.724018z"/>
   <path id="_207409720" fill="#020202" d="M499.197 235.736c-2.58426,-0.285828 -5.07285,-0.600002 -7.14923,0.570474l0.0944885 1.78819c1.47756,1.06063 -0.146457,0.563388 2.09292,0.928349 0.00590553,0 1.77284,0.0188977 1.86733,0.0165355 2.3067,-0.0437009 1.60394,0.198426 3.35316,-0.701577l-0.258662 -2.60198z"/>
   <path id="_207409624" fill="#020202" d="M477.04 374.824c-2.31733,-0.205512 -5.27954,-0.503151 -7.2201,0.373229l-0.0377954 2.77324 7.42679 -0.240946 -0.168898 -2.90552z"/>
   <path id="_207409528" fill="white" d="M33.4218 55.1789l5.38348 0.0578742c-0.618899,-2.37639 -1.4067,-5.77206 -2.85828,-7.40553l-2.5252 7.34766z"/>
   <polygon id="_207409288" fill="#020202" points="513.906,228.192 519.698,228.207 519.559,224.898 513.776,224.961 "/>
   <polygon id="_207409360" fill="#020202" points="435.946,398.81 438.578,398.609 438.379,395.582 435.328,395.701 "/>
   <path id="_207409216" fill="#EEEEEE" d="M479.472 186.726c2.25709,1.54843 3.72285,0.881105 2.58662,-1.71378 -2.52757,-0.42756 -2.05394,-1.00866 -2.58662,1.71378z"/>
   <path id="_207409120" fill="#FEFEFE" d="M102.277 56.9742c-2.64095,1.60158 -3.87521,5.22757 -3.87521,8.20042 4.10434,-4.02403 3.87521,-2.76851 3.87521,-8.20042z"/>
   <rect id="_207409000" fill="#020202" x="0.313227" y="170.599" width="12.9588" height="3.259"/>
   <rect id="_207408976" fill="#020202" x="18.9644" y="170.597" width="31.9644" height="3.259"/>
   <g>
    <path id="_288976216" fill="white" d="M109.061 192.878c-2.39174,-2.46261 -8.36932,-9.23389 -10.8485,-10.5284l-10.4551 10.4138c-6.25514,1.08544 -22.3902,0.225591 -29.6717,0.225591 -15.4394,-0.00118111 -13.1197,2.49804 -13.1197,17.0646 0,4.48584 -0.492521,27.7501 0.414568,30.1383 1.86379,4.90986 6.52089,4.18584 10.8839,4.17993l60.71 0.00590553c4.8508,0.00236221 8.42955,-0.975593 8.72365,-6.65789 0.50197,-9.6579 -0.00472442,-20.902 -0.00472442,-30.7371 0,-17.4048 -1.91339,-13.0725 -16.6323,-14.1048z"/>
    <path id="_288976144" fill="#020202" d="M108.723 193.531c14.7189,1.03347 16.6323,-3.30001 16.6312,14.1059 0,9.83507 0.507876,21.0792 0.00590553,30.7371 -0.294095,5.6823 -3.87403,6.65907 -8.72365,6.65789l-60.7112 -0.00590553c-4.36182,0.00472442 -9.01892,0.729923 -10.8827,-4.18111 -0.907089,-2.38701 -0.414568,-25.6513 -0.414568,-30.1371 0,-14.5678 -2.31969,-17.067 13.1185,-17.0646 7.2827,0 23.4178,0.858664 29.6717,-0.225591l10.4563 -10.4138c2.47914,1.29331 8.45672,8.06577 10.8485,10.5272zm1.82717 -3.31891l-12.5363 -12.2386 -12.2965 12.2705c-10.5378,0.497246 -22.2473,-0.113386 -32.8277,-0.0425198 -14.0752,0.0944885 -11.6292,11.0894 -11.6292,21.7335 0,26.8465 -3.74411,36.5151 13.4504,36.4714l49.7777 -0.00118111c8.78152,0 23.5938,2.88898 24.2587,-9.42168 0.561025,-10.402 0.00236221,-22.5875 0.00354332,-33.1891 0.00236221,-15.9414 -3.48544,-15.6107 -18.2008,-15.5823z"/>
    <polygon id="_288976048" fill="#020202" points="72.3404,205.22 56.2785,205.276 56.2313,208.525 72.1774,208.736 "/>
    <g>
     <rect id="_288975952" fill="#020202" x="92.5842" y="230.041" width="21.7826" height="3.259"/>
     <rect id="_288975808" fill="#020202" x="80.781" y="230.041" width="6.51844" height="3.259"/>
     <rect id="_288975784" fill="#020202" x="56.1752" y="230.041" width="16.0319" height="3.259"/>
    </g>
    <rect id="_288975616" fill="#020202" x="77.2021" y="221.664" width="37.1646" height="3.259"/>
    <rect id="_288975520" fill="#020202" x="62.2278" y="221.664" width="9.97936" height="3.259"/>
    <rect id="_288975424" fill="#020202" x="64.2249" y="213.464" width="9.97936" height="3.259"/>
    <rect id="_288975288" fill="#020202" x="78.1723" y="213.464" width="11.7606" height="3.259"/>
    <rect id="_288975192" fill="#020202" x="94.8981" y="213.464" width="19.279" height="3.259"/>
    <rect id="_288975024" fill="#020202" x="93.2163" y="205.383" width="20.9609" height="3.259"/>
    <rect id="_288975048" fill="#020202" x="81.0338" y="205.383" width="5.73222" height="3.259"/>
   </g>
   <polygon id="_288974832" fill="#020202" points="186.301,256.464 170.239,256.521 170.191,259.77 186.138,259.98 "/>
   <polygon id="_288974760" fill="#020202" points="210.496,256.552 199.618,256.608 199.586,259.857 210.386,260.068 "/>
   <polygon id="_288974664" fill="#020202" points="242.074,256.613 216.34,256.67 216.264,259.918 241.813,260.129 "/>
   <rect id="_288974568" fill="#020202" x="186.185" y="265.699" width="20.9609" height="3.259"/>
   <rect id="_288974472" fill="#020202" x="181.018" y="276.157" width="3.14629" height="3.259"/>
   <rect id="_288974376" fill="#020202" x="222.523" y="270.94" width="3.14629" height="3.259"/>
   <rect id="_244099040" fill="#020202" x="199.973" y="298.749" width="3.14629" height="3.259"/>
   <rect id="_244098944" fill="#020202" x="274.02" y="301.773" width="3.14629" height="3.259"/>
   <rect id="_244098848" fill="#020202" x="300.916" y="316.474" width="3.14629" height="3.259"/>
   <rect id="_244098752" fill="#020202" x="307.452" y="325.689" width="7.82596" height="3.259"/>
   <rect id="_244098656" fill="#020202" x="267.108" y="325.808" width="33.0198" height="3.259"/>
   <rect id="_244098552" fill="#020202" x="246.171" y="325.837" width="11.745" height="3.259"/>
   <rect id="_244098456" fill="#020202" x="286.804" y="334.64" width="6.58378" height="3.259"/>
   <rect id="_244098360" fill="#020202" x="302.189" y="334.938" width="22.1434" height="3.259"/>
   <rect id="_244098192" fill="#020202" x="29.2591" y="162.015" width="11.375" height="3.259"/>
   <polygon id="_244098144" fill="#020202" points="154.032,36.2387 180.621,36.2387 172.009,31.7694 173.525,28.9631 187.542,36.2387 190.522,37.9655 187.542,39.4359 173.525,46.7104 172.009,43.9041 180.621,39.4359 154.032,39.4359 "/>
   <path id="_289734528" fill="#020202" d="M267.815 179.801c-5.57128,2.70946 -8.05514,-1.57678 -5.53702,-4.68663 2.29371,-2.83111 7.09018,-1.3441 5.53702,4.68663zm-59.3305 -161.083l113.104 -0.475986c0.360237,11.8347 -0.220867,24.4961 -0.220867,36.5493 0,14.6835 0.744097,105.933 -0.249213,112.217l-112.713 -0.0862207 0.0791341 -148.204zm53.8761 165.609c-12.0048,0.754727 -26.0398,0.111024 -38.2643,0.111024 -15.3284,0 -21.8327,1.93465 -21.828,-16.0193l-0.00590553 -152.325c0.00118111,-15.5811 13.7221,-12.6048 24.8682,-12.6048l75.8801 0c12.7477,0 23.9268,-3.07796 24.6355,13.2213 0.522049,12.0237 -0.151182,25.7977 -0.151182,38.0812l0.00118111 114.241c0.00944885,17.0504 -6.73939,15.4052 -22.6642,15.4052 -11.5689,0 -26.4072,0.817325 -37.5816,-0.152363 2.14253,-1.92638 4.05119,-2.32205 4.40316,-6.0201 0.359056,-3.76773 -2.05276,-5.16025 -3.5634,-7.75868l56.6045 -0.0933074 -0.214961 -154.555c-5.4638,-1.29685 -110.651,-0.450001 -119.411,-0.484253l0.113386 155.03 58.0348 0.231497c-2.54056,0.513781 -4.97364,3.36261 -5.11891,6.38152 -0.207875,4.28741 2.00434,4.82364 4.26261,7.30986zm-63.4833 -26.9646c0,10.4965 -2.74607,25.6265 9.31066,29.7107 5.57246,1.88623 66.1986,0.696852 77.2195,0.696852 7.4953,0 32.4214,1.19882 37.767,-1.34764 10.5922,-5.04805 7.68664,-21.2871 7.68664,-31.5166l0 -117.926c0,-6.59766 -0.184253,-13.0973 0.00236221,-19.6536 0.507876,-17.8666 -11.315,-17.0847 -21.782,-17.0847l-58.2758 0c-12.6083,0 -26.4202,-0.545671 -38.8773,0.00826774 -4.99253,0.222048 -9.45003,3.23269 -11.6315,7.74333 -2.23347,4.61458 -1.41615,12.678 -1.41851,17.9315 -0.00944885,60.0297 -0.00118111,79.6219 -0.00118111,131.438z"/>
   <g>
    <path id="_289734456" fill="#D7E8EF" d="M221.181 146.508l87.4077 -0.219686 -0.0874018 13.8296 -87.0936 0.0295276 -0.226772 -13.6394zm85.6526 -103.258l1.77166 3.49253 -0.128741 91.0007c-2.16024,1.76457 -0.951971,1.69607 -3.0567,2.46142l-81.3239 0c-1.58977,-0.693309 -1.19882,-0.980318 -2.82166,-2.49568l0.0165355 -50.5879 3.12403 -0.151182c1.22953,10.1681 -1.48701,43.5143 0.620081,49.7458l6.47837 -0.0248032 0.240946 -36.4749 3.21733 -0.044882c0.713388,8.45317 -1.17284,30.482 0.460631,36.4844l6.46655 0.0590553 0.325985 -62.0801 3.23151 -0.100394 0.122835 62.0955 6.70159 0.111024c1.95945,-6.06616 -1.17638,-70.1518 0.716931,-79.0928l2.81812 0.0118111 0.201969 79.003 7.14451 0.0767719 0.0118111 -72.6356 3.25867 -0.28819 0.151182 72.8364 7.21301 0.0342521 -0.00708664 -95.4074 3.05906 -0.0507876 0.18189 95.2467 7.17876 0.22441c0.00354332,-10.2107 -0.676774,-74.8679 0.328347,-79.0514l2.83584 0.0129922 0.186615 79.0668 7.17167 -0.044882 -0.00826774 -86.568 3.14647 -0.179528 0.0755908 86.7333 7.23309 -0.101575 -0.0129922 -88.531c0.00118111,-10.428 -1.14685,-10.4965 2.98111,-10.6595 0.218505,3.17481 0.711026,3.65198 -1.31339,5.87364zm-52.4588 6.75711c-2.25473,-2.05276 -5.69411,-7.97365 -6.76183,-11.0197 -4.60395,-13.1174 17.8749,-13.2863 13.5095,-0.201969 -1.08898,3.2634 -4.39726,8.89609 -6.74766,11.2217zm-45.9698 116.915l112.713 0.0862207c0.99331,-6.28348 0.249213,-97.5334 0.249213,-112.217 0,-12.0532 0.581104,-24.7146 0.220867,-36.5493l-113.104 0.475986 -0.0791341 148.204z"/>
    <path id="_289734312" fill="white" d="M256.384 8.02443l16.9158 0.137008 -0.0685041 3.18072 -16.9075 -0.134646 0.0602364 -3.18308zm5.9764 176.302c-2.25827,-2.48623 -4.47049,-3.02245 -4.26261,-7.30986 0.145276,-3.01891 2.57835,-5.86773 5.11891,-6.38152l-58.0348 -0.231497 -0.113386 -155.03c8.76026,0.0342521 113.947,-0.812601 119.411,0.484253l0.214961 154.555 -56.6045 0.0933074c1.51063,2.59843 3.92245,3.99096 3.5634,7.75868 -0.35197,3.69804 -2.26064,4.09371 -4.40316,6.0201 11.1744,0.969688 26.0127,0.152363 37.5816,0.152363 15.9249,0 22.6737,1.64528 22.6642,-15.4052l-0.00118111 -114.241c0,-12.2835 0.67323,-26.0576 0.151182,-38.0812 -0.708664,-16.2993 -11.8878,-13.2213 -24.6355,-13.2213l-75.8801 0c-11.1461,0 -24.867,-2.97639 -24.8682,12.6048l0.00590553 152.325c-0.00472442,17.954 6.49963,16.0193 21.828,16.0193 12.2244,0 26.2595,0.643703 38.2643,-0.111024z"/>
    <path id="_289734216" fill="#020202" d="M305.168 64.1199l0.01063 72.4467 -7.23309 0.101575 -0.0755908 -86.7333 -3.14647 0.179528 0.00826774 86.568 -7.17167 0.044882 -0.186615 -79.0668 -2.83584 -0.0129922c-1.00512,4.18348 -0.324804,68.8408 -0.328347,79.0514l-7.17876 -0.22441 -0.18189 -95.2467 -3.05906 0.0507876 0.00708664 95.4074 -7.21301 -0.0342521 -0.151182 -72.8364 -3.25867 0.28819 -0.0118111 72.6356 -7.14451 -0.0767719 -0.201969 -79.003 -2.81812 -0.0118111c-1.89331,8.94097 1.24252,73.0266 -0.716931,79.0928l-6.70159 -0.111024 -0.122835 -62.0955 -3.23151 0.100394 -0.325985 62.0801 -6.46655 -0.0590553c-1.63347,-6.00238 0.252757,-28.0312 -0.460631,-36.4844l-3.21733 0.044882 -0.240946 36.4749 -6.47837 0.0248032c-2.10709,-6.23151 0.609451,-39.5777 -0.620081,-49.7458l-3.12403 0.151182 -0.0165355 50.5879c1.62284,1.51536 1.23189,1.80237 2.82166,2.49568l81.3239 0c2.10473,-0.765357 0.896459,-0.696852 3.0567,-2.46142l0.103937 -73.6231 0.00944885 0 0 -26.354 -3.42403 0 0 26.354 0.00236221 0z"/>
    <path id="_289734192" fill="#020202" d="M224.806 149.592l80.379 0.175985 0.0165355 6.96498 -80.7097 0.0236221 0.314174 -7.16459zm-3.39804 10.5555l87.0936 -0.0295276 0.0874018 -13.8296 -87.4077 0.219686 0.226772 13.6394z"/>
    <polygon id="_244112064" fill="#4A9FD5" points="224.492,156.756 305.201,156.733 305.185,149.768 224.806,149.592 "/>
    <path id="_244111968" fill="#020202" d="M254.448 43.8344c-6.11813,-4.41025 -4.64529,-16.5898 3.6508,-9.51145 0.265749,3.47481 -1.363,7.03939 -3.6508,9.51145zm-0.0732286 6.17246c2.3504,-2.3256 5.65868,-7.95829 6.74766,-11.2217 4.36537,-13.0843 -18.1134,-12.9154 -13.5095,0.201969 1.06772,3.04607 4.5071,8.96696 6.76183,11.0197z"/>
    <path id="_244111872" fill="#EA596F" d="M254.448 43.8344c2.2878,-2.47205 3.91655,-6.03663 3.6508,-9.51145 -8.29609,-7.07837 -9.76893,5.1012 -3.6508,9.51145z"/>
    <polygon id="_244111848" fill="#020202" points="256.324,11.2075 273.231,11.3422 273.3,8.16144 256.384,8.02443 "/>
    <path id="_244111776" fill="#DDDDDD" d="M267.815 179.801c1.55315,-6.03073 -3.24332,-7.51774 -5.53702,-4.68663 -2.51812,3.10985 -0.0342521,7.39608 5.53702,4.68663z"/>
   </g>
   <path id="_289902576" fill="#EEEEEE" d="M347.931 47.5761c1.89449,-1.45748 0.881105,-0.261024 1.26496,-2.23701 -1.75276,-1.47284 -1.42205,-1.4752 -3.16418,-0.00118111 0.409844,1.99371 -0.0425198,1.63937 1.89922,2.2382z"/>
   <polygon id="_289902504" fill="#020202" points="344.778,104.905 344.778,86.979 340.36,95.6932 337.588,94.1601 344.778,79.9762 346.486,76.9609 347.937,79.9762 355.127,94.1601 352.355,95.6932 347.937,86.979 347.937,104.905 "/>
   <polygon id="_289902432" fill="#020202" fill-rule="nonzero" points="9.47011,226.775 9.47011,222.49 5.18978,222.49 5.18978,219.54 9.47011,219.54 9.47011,215.257 12.3154,215.257 12.3154,219.54 16.5969,219.54 16.5969,222.49 12.3154,222.49 12.3154,226.775 "/>
   <ellipse id="_289902360" fill="#DDDDDD" stroke="#020202" stroke-width="2.36221" cx="108.562" cy="157.893" rx="4.34515" ry="4.39659"/>
   <ellipse id="_245148728" fill="#DDDDDD" stroke="#020202" stroke-width="2.36221" cx="421.211" cy="157.026" rx="4.34515" ry="4.39659"/>
   <rect id="_245148632" fill="white" x="170.496" y="349.711" width="162.377" height="6.76808"/>
   <rect id="_245148536" fill="#D7E8EF" stroke="#020202" stroke-width="5.90553" x="157.307" y="375.528" width="178.92" height="10.566"/>
   <g>
    <rect id="_245148440" fill="#D7E8EF" stroke="#020202" stroke-width="5.90553" x="351.128" y="246.586" width="41.3415" height="10.566"/>
    <rect id="_245148344" fill="#D7E8EF" stroke="#020202" stroke-width="5.90553" x="351.128" y="278.284" width="41.3415" height="10.566"/>
    <rect id="_250095816" fill="#D7E8EF" stroke="#020202" stroke-width="5.90553" x="351.128" y="299.416" width="41.3415" height="10.566"/>
    <rect id="_250095720" fill="#D7E8EF" stroke="#020202" stroke-width="5.90553" x="351.128" y="320.548" width="41.3415" height="10.566"/>
    <rect id="_250095624" fill="white" stroke="#020202" stroke-width="5.90553" x="351.128" y="257.152" width="41.3415" height="10.566"/>
    <rect id="_250095528" fill="white" stroke="#020202" stroke-width="5.90553" x="351.128" y="288.85" width="41.3415" height="10.566"/>
    <rect id="_250095384" fill="white" stroke="#020202" stroke-width="5.90553" x="351.128" y="309.982" width="41.3415" height="10.566"/>
    <rect id="_250095408" fill="white" stroke="#020202" stroke-width="5.90553" x="351.128" y="331.114" width="41.3415" height="10.566"/>
    <rect id="_238469088" fill="#4A9FD5" stroke="#020202" stroke-width="5.90553" x="351.128" y="267.718" width="41.3415" height="10.566"/>
   </g>
  </g>
 </g>
</svg>
