<?xml version="1.0" encoding="UTF-8"?>
<!DOCTYPE svg PUBLIC "-//W3C//DTD SVG 1.1//EN" "http://www.w3.org/Graphics/SVG/1.1/DTD/svg11.dtd">
<!-- Creator: CorelDRAW -->
<svg xmlns="http://www.w3.org/2000/svg" xml:space="preserve" width="500px" height="500px" shape-rendering="geometricPrecision" text-rendering="geometricPrecision" image-rendering="optimizeQuality" fill-rule="evenodd" clip-rule="evenodd"
viewBox="0 0 500 500"
 xmlns:xlink="http://www.w3.org/1999/xlink">
 <g id="Layer_x0020_1">
  <metadata id="CorelCorpID_0Corel-Layer"/>
  <g id="_269085248">
   <circle id="_400915896" fill="none" stroke="#020202" stroke-width="3.33333" cx="199.771" cy="55.5433" r="3.66533"/>
   <circle id="_400916256" fill="none" stroke="#020202" stroke-width="3.33333" cx="345.051" cy="91.3033" r="3.66533"/>
   <path id="_400916376" fill="#020202" d="M331.957 181.597l5.25667 -0.0306667 0.196667 25.3667 -4.42933 1.66667c-2.032,-2.83933 -1.756,-23.0187 -1.024,-27.0027zm-1.584 -47.3727l8.422 -0.0313333 0.0226667 44.112 -8.466 0.0246667 0.0213333 -44.1053zm4.424 -14.402l3.46467 11.16 -7.55667 -0.156 4.092 -11.004zm-7.51333 60.956c1.152,1.696 0.513333,0.014 1.28733,2.268 0.0113333,6.83 0.02,13.6647 -0.00133333,20.494 -0.0186667,5.94533 1.49933,4.60067 1.94867,8.004 0.373333,2.83467 0.559333,6.45133 5.02067,5.416 3.88933,-0.902 2.37867,-4.392 3.446,-6.80133 2.62267,-5.91933 1.526,-13.0667 1.526,-19.728 -0.000666667,-6.49467 -0.874667,-7.56267 1.332,-9.58333l-0.0653333 -46.2553c0,-4.88133 -3.41733,-17.306 -6.64133,-20.7653 -3.84,0.578667 -5.03267,8.694 -6.23867,12.3053 -2.24867,6.73 -1.64533,9.93867 -1.64533,17.0067 0,12.482 -0.230667,25.186 0.0313333,37.6393z"/>
   <path id="_400916688" fill="#EA596F" d="M385.317 351.93c-0.117333,-3.11333 0.382667,-4.16733 0.560667,-6.918 0.204667,-3.16067 -0.890667,-4.028 -0.372,-7.27067 -1.45533,0.818 -1.65667,1.346 -3.12467,1.29533l-0.109333 -43.186 -261.034 0.176c-0.218667,7.85467 -0.259333,6.32467 -4.94467,11.46l0.05 139.377 266.029 -0.156 0.261333 -86.362c5.30733,-6.336 -0.143333,-4.42267 -0.159333,-11.0647 2.012,1.09067 1.35933,1.03 2.84333,2.64933z"/>
   <polygon id="_400917096" fill="white" points="150.429,374.583 150.429,378.363 150.29,398.197 310.364,398.303 312.637,398.203 313.051,389.343 313.064,305.217 150.457,305.143 "/>
   <path id="_400917168" fill="#020202" d="M199.884 487.597l98.9667 -0.25 0.06 3.53133 -98.9953 0.024 -0.0313333 -3.30533zm52.81 -214.266c0.725333,0.794 1.16733,1.85 1.16733,3.01 0,1.08267 -0.385333,2.07533 -1.02667,2.84867l132.329 0.0426667c0.958667,4.074 0.138,49.628 0.340667,58.5107l-0.166667 0.096 0 32.6873 0.094 79.45 -272.143 -0.00333333 -0.0426667 -141.813 -6.72 0.128667c-0.600667,8.50867 -0.0906667,18.8947 -0.0906667,27.6087l0.00133333 82.6187c0.0193333,9.30533 -0.00133333,18.614 -0.00133333,27.92 0,15.2587 -1.84933,13.7133 13.484,13.7133l260.973 0c4.25267,0 8.768,1.19267 11.1693,-2.46 0.656,-1.73467 0.37,-59.63 0.257333,-85.348l-0.038 0c0,-18.082 0,-36.1567 0,-54.2347l0 -31.2113c0,-14.552 2.02067,-13.5247 -12.528,-13.5247l-77.4947 0c-16.2007,0 -33.4227,-0.548 -49.5647,-0.0393333zm-6.776 5.80867c-0.616667,-0.765333 -0.986,-1.73867 -0.986,-2.79867 0,-1.14 0.427333,-2.17933 1.13,-2.96867l-124.828 0.100667 -0.028 5.71333 124.712 -0.0466667zm149.979 124.342c1.91667,1.46667 17.6367,3.31867 21.134,3.52667l-0.193333 -81.818c-4.426,0.4 -17.9333,2.138 -21.416,3.57933 -0.102,7.37533 -0.766,72.8907 0.475333,74.712zm-13.5627 -82.508l-0.0633333 -25.1213 -261.034 0.176c-0.218667,7.85467 -0.259333,6.32467 -4.94467,11.46l0.05 139.377 266.029 -0.156c0.128,-42.1767 -0.0366667,-83.6773 -0.0366667,-125.735zm-161.558 142.47l57.6053 -0.168 3.95467 20.9987 -65.836 0.0166667c0.365333,-3.28533 3.17467,-18.7327 4.276,-20.8473zm-137.684 -56.3267l-0.139333 -81.8353 20.0167 2.94733c0.837333,2.50867 0.948667,70.116 0.186,75.744l-20.0633 3.144zm375.509 -76.1753c2.12533,-1.05133 31.0487,-5.426 35.078,-5.762l0.144 81.9173 -35.0953 -5.38133 -0.126667 -70.774zm-38.2773 76.1973l-0.182 -81.9067 35.368 5.41933 -0.0446667 71.0313 -35.1413 5.456zm-375.824 -76.5047l35.288 -5.516 0.0926667 81.862 -35.044 -5.23533c-1.16467,-4.786 -0.310667,-28.4233 -0.310667,-35.0793 0,-11.9833 0.146667,-24.0593 -0.026,-36.0313zm-38.2273 76.5067l-0.112667 -81.8167 35.3147 5.296 -0.0153333 70.802 -35.1867 5.71867zm114.923 -124.73l261.075 -0.160667 0.0726667 10.404 -261.078 0.0173333 -0.07 -10.2607zm-3.12267 15.5587c-0.398,2.618 -1.13667,4.734 -2.43933,5.726 -1.60067,1.21867 -6.88267,1.50867 -12.3253,1.50067l0 3.05867 0.00266667 0 -0.0106667 16.6433c-8.07733,0.0433333 -17.3347,-4.334 -25.028,-2.73333 -5.24333,1.09067 -33.1447,5.81533 -38.0907,5.08133 -9.33733,-1.386 -30.258,-5.37067 -37.108,-5.614l0.016 89.0727c7.79333,-0.552667 17.5727,-2.58733 25.536,-3.82267 14.7167,-2.28333 10.6147,-2.83533 25.1393,-0.621333 7.908,1.206 16.956,2.33933 24.6693,3.97067 6.288,1.33 17.5653,-2.63267 24.8847,-2.84867l0.0366667 49.322c0.501333,6.18533 5.21067,6.644 10.294,6.63067l103.491 0.000666667c-0.447333,3.69133 -1.33667,7.50267 -2.04533,11.1593 -2.39133,12.342 1.20133,9.76933 -18.278,9.74933l-0.0746667 9.74467c11.3213,-0.0326667 102.195,0.606 105.242,-0.464l-0.118 -9.222 -16.3393 -0.205333 -3.95933 -20.706c24.6787,-0.78 50.5787,-0.0586667 75.392,-0.0586667 40.8927,0 38.478,3.57333 38.478,-17.468 0,-26.0847 -0.036,-13.8173 0.116667,-38.8173 6.526,0.88 20.5067,4.326 26.0813,3.12467 7.83867,-1.68933 17.1707,-2.708 25.1953,-3.94467 13.6827,-2.10733 10.5987,-1.53067 25.2647,0.746667 6.52467,1.01267 18.7273,3.67467 24.828,3.764l0.00133333 -88.9833c-5.17867,-0.338667 -29.4247,4.57267 -37.9433,5.62 -4.01133,0.494 -33.7607,-4.478 -38.0007,-5.38867 -3.724,-0.800667 -8.80067,0.698667 -12.7667,1.29533 -4.49733,0.676 -8.116,1.54133 -12.7607,1.90933 -0.119333,-13.888 -0.016,-27.8213 -0.016,-41.7153 0.000666667,-16.0587 -1.56533,-13.2233 -27.6513,-13.2233l-164.675 0c-13.7547,0 -58.768,0.624667 -76.4287,0.137333l0 0.000666667 -7.026 0 0 27.5787 -1.584 0z"/>
   <path id="_400917480" fill="#DDDDDD" d="M44.4987 330.63c0.172667,11.972 0.026,24.048 0.026,36.0313 0,6.656 -0.854,30.2933 0.310667,35.0793l35.044 5.23533 -0.0926667 -81.862 -35.288 5.516z"/>
   <polygon id="_400917768" fill="#EA596F" points="121.265,292.67 382.344,292.65 382.271,282.25 121.195,282.41 "/>
   <polygon id="_400918008" fill="white" points="455.464,401.683 455.511,330.65 420.144,325.23 420.324,407.137 "/>
   <polygon id="_400918248" fill="white" points="41.458,401.423 41.4733,330.617 6.15867,325.323 6.27133,407.137 "/>
   <path id="_400918296" fill="#DDDDDD" d="M458.724 401.717l35.0953 5.38133 -0.144 -81.9173c-4.02933,0.336 -32.9527,4.71067 -35.078,5.762l0.126667 70.774z"/>
   <path id="_400918416" fill="#D7E8EF" d="M82.952 207.257l39.37 0.054 -0.0253333 3.10667 -39.4533 -0.0213333 0.108667 -3.13933zm-0.08 -6.882l39.518 0.068 -0.244 3.09133 -39.256 -0.018 -0.018 -3.14133zm13.98 -46.3953c-0.133333,-3.60933 -7.202,-7.04467 -6.34067,-18.6593 0.516,-6.964 4.98,-12.5273 12.312,-12.55 11.09,-0.034 14.7287,13.4533 10.0273,23.686 -1.324,2.88133 -4.24533,4.82133 -4.402,7.78667 8.448,2.00133 14.8993,5.04667 17.182,14.1687 1.89333,7.56667 -0.026,19.4553 -4.12067,26.0627l-37.4853 -0.0266667c-4.518,-4.67733 -5.92133,-19.592 -4.402,-25.866 2.986,-12.3273 12.6533,-12.1707 17.2293,-14.602zm-19.6573 60.9627l50.692 0.0373333 0.177333 -100.201 -50.7607 0.00933333 -0.108667 100.154z"/>
   <path id="_400918704" fill="#D7E8EF" d="M376.437 207.257l39.326 0.0493333 -0.133333 3.112 -39.2927 0.0113333 0.1 -3.17267zm-0.078 -6.88333l39.46 0.072 -0.233333 3.09067 -39.2047 0.0126667 -0.022 -3.17533zm26.264 -48.09l-0.858667 2.42067c1.61,0.938667 5.14,1.12 7.55933,2.18667 1.90467,0.840667 3.972,2.83867 5.27467,4.444 4.17533,1.836 5.42133,12.4087 5.16867,16.7427 -0.422,7.23467 -1.94467,10.796 -4.63733,17.1667l-37.634 -0.0773333c-2.63467,-1.08667 -12.12,-27.652 3.92067,-37.0473l4.13533 -1.946 4.78067 -1.46933c-0.109333,-2.07 -4.18,-6.66333 -5.30933,-9.744 -1.22067,1.36467 -1.802,3.92733 -2.14333,6.01 -6.882,-11.156 -2.686,-32.084 13.4227,-29.3307 14.242,2.434 14.9007,23.0567 6.32067,30.644zm-31.9753 62.7007l50.6853 -0.00266667 0.242 -100.221 -50.8187 0.0273333 -0.108667 100.196z"/>
   <path id="_400918920" fill="#020202" d="M101.676 224.25c-1.93933,-2.45733 -0.402667,-4.508 2.732,-3.05867l-0.253333 2.80267 -2.47867 0.256zm-24.3727 -109.459l50.7607 -0.00933333 -0.177333 100.201 -50.692 -0.0373333 0.108667 -100.154zm21.9447 112.014c-5.33133,0.166667 -16.6447,1.00733 -21.0453,-1.35533 -6.83533,-3.66933 -6.06133,-9.63333 -6.06133,-16.616l-0.00133333 -90.026c-0.0153333,-6.58733 1.598,-12.4033 8.79733,-14.0133 4.338,-0.970667 16.6607,-0.374 21.8867,-0.374667 4.478,-0.00133333 19.0167,-0.530667 22.346,0.580667 7.10933,2.372 7.92933,7.516 7.91867,14.3773l-0.004 90.026c-0.00933333,16.5233 -2.308,19.0807 -27.15,17.352 2.366,-3.53133 2.644,-4.916 0.034,-8.594l25.26 -0.159333 0.000666667 -106.359 -57.1347 -0.0246667 0.0793333 106.518 25.0247 0.0713333c-2.61,5.07133 -2.29933,3.7 0.0493333,8.59667zm-17.4313 -125.308c-16.8913,2.326 -12.8987,21.5893 -12.9233,36.114l-0.00133333 74.072c-0.0333333,21.3273 14.8327,18.422 29.9433,18.422 8.08133,0 16.6747,0.570667 24.4967,-0.450667 16.7467,-2.186 13.0193,-22.7453 13.0413,-35.6347l-0.00866667 -74.072c0.022,-21.406 -13.232,-18.6667 -30.122,-18.6667 -6.884,0 -18.096,-0.656 -24.426,0.216z"/>
   <path id="_400919112" fill="#020202" d="M397.571 223.783c-4.42667,2.26133 -4.586,-4.84933 0.304667,-2.614l-0.304667 2.614zm-26.8147 -108.999l50.8187 -0.0273333 -0.242 100.221 -50.6853 0.00266667 0.108667 -100.196zm21.9453 112.015c-5.31933,0.178 -16.6553,1.00267 -21.046,-1.35867 -6.906,-3.714 -6.08067,-9.572 -6.08067,-16.6107l0.000666667 -90.026c-0.0333333,-18.562 17.276,-14.3887 30.702,-14.388 19.128,0.00133333 30.338,-3.30667 30.3147,14.958l-0.000666667 90.026c0.000666667,16.4753 -4.254,19.2127 -27.1853,17.3407 2.32733,-3.45533 2.59733,-4.88333 0.0266667,-8.57933l25.2733 -0.192 -0.207333 -106.403 -56.9833 0.206667 0.024 105.959c3.384,1.07133 20.062,0.255333 25.128,0.466 -2.572,4.82267 -2.23333,3.90933 0.034,8.60133zm-17.42 -125.299c-16.9473,2.43 -12.9333,21.1107 -12.9333,36.1073l0 73.502c-0.00733333,7.55067 0.590667,12.84 7.36667,16.8613 4.74733,2.81733 39.4607,2.98 46.134,1.94533 7.02533,-1.09 12.554,-4.20067 13.7487,-12.2133 0.925333,-6.20133 -0.343333,-61.5213 0.0133333,-73.258 0.243333,-7.992 0.172,-16.4407 0.201333,-24.5007 0.0266667,-7.32667 -0.767333,-13.112 -7.582,-16.8553 -5.08133,-2.79067 -16.4627,-1.81133 -22.534,-1.81133 -6.77067,0 -18.238,-0.663333 -24.4147,0.222667z"/>
   <path id="_400919304" fill="white" d="M186.871 196.07l-1.38667 3.60133c0.817333,33.04 18.696,24.5987 29.5493,45.6087 1.814,3.51133 14.3827,6.32067 18.43,6.518 0.646667,-3.10533 0.385333,-7.13667 1.96133,-9.51333 1.36667,-2.06067 3.86067,-2.816 5.626,-5.772 3.354,-5.61667 4.15933,-11.6313 4.18933,-18.1253 -6.93333,-0.144 -9.516,3.412 -16.4807,-2.15467 -5.72667,-4.57667 -4.85133,-7.15333 -13.7,-7.668 -6.81,-0.396667 -10.6467,-0.249333 -15.6213,-5.174 -3.198,-3.166 -6.832,-10.0593 -11.5067,-9.10133l-1.06067 1.78067z"/>
   <path id="_400919496" fill="white" d="M103.154 403.97c0.762667,-5.628 0.651333,-73.2353 -0.186,-75.744l-20.0167 -2.94733 0.139333 81.8353 20.0633 -3.144z"/>
   <path id="_400919592" fill="#DDDDDD" d="M220.777 463.443c-1.10133,2.11467 -3.91067,17.562 -4.276,20.8473l65.836 -0.0166667 -3.95467 -20.9987 -57.6053 0.168z"/>
   <path id="_400919784" fill="white" d="M398.557 106.557l3.45333 0.298667 -0.179333 2.84867 -11.6013 -0.228667 -0.0646667 -2.67667 3.26133 -0.198667 5.13067 -0.0433333zm26.1473 111.417l-0.207333 -106.403 -56.9833 0.206667 0.024 105.959c3.35,1.06067 51.8393,0.278 57.1667,0.237333zm-10.3053 9.30933l0 0.000666667 -0.00466667 0c-2.83867,0.258667 -37.3873,1.45867 -42.4927,-1.28733 -6.906,-3.714 -6.32867,-10.1233 -6.32867,-17.162l0.000666667 -90.026c-0.0333333,-18.562 17.276,-14.3887 30.702,-14.388 19.128,0.00133333 30.338,-3.30667 30.3147,14.958l-0.000666667 90.026c0.000666667,12.0427 -2.012,16.9513 -12.1907,17.8787z"/>
   <path id="_400920072" fill="white" d="M96.712 106.657l11.8327 0.198667 -0.176667 2.84933 -11.604 -0.218 -0.052 -2.83zm-12.0553 111.511l21.3153 0 -0.00333333 -0.00466667 25.26 -0.159333 0.000666667 -106.359 -57.1347 -0.0246667 0.0793333 106.518 10.4827 0.03 0 -0.000666667zm35.486 8.962l0 0.00133333 -0.0206667 0c-2.14467,0.121333 -4.64133,0.112 -7.54267,0l-27.9227 0 0 -0.222c-2.618,-0.212667 -4.94333,-0.646667 -6.454,-1.458 -6.83533,-3.66933 -6.06133,-9.63333 -6.06133,-16.616l-0.00133333 -90.026c-0.0153333,-6.58733 1.598,-12.4033 8.79733,-14.0133 4.338,-0.970667 16.6607,-0.374 21.8867,-0.374667 4.478,-0.00133333 19.0167,-0.530667 22.346,0.580667 7.10933,2.372 7.92933,7.516 7.91867,14.3773l-0.004 90.026c-0.00733333,12.5793 -1.344,17.0627 -12.942,17.7247z"/>
   <path id="_400920264" fill="#4A9FD5" d="M381.417 158.117c1.654,0.0766667 1.584,-0.498667 2.57,1.698 -2.476,2.858 -7.80467,4.14867 -8.43533,14.2493 -0.335333,5.38 0.946667,13.5153 3.72533,18.0667l33.782 -0.155333c4.14667,-6.90733 5.738,-22.7133 -0.768667,-28.6353 -0.356667,-0.4 -3.00533,-5.08733 -7.22667,-5.67533 -2.39067,-0.332667 -8.09333,-1.46667 -10.64,-1.108 -4.81067,0.677333 -6.01467,3.35667 -6.12333,3.444 -1.47067,-1.34933 -2.17067,-1.94867 -2.748,-3.83l-4.13533 1.946z"/>
   <path id="_400920456" fill="#020202" d="M150.232 401.157l8.04333 -0.03 0.07 2.61333 0 3.164 -8.07867 0.228 -0.0346667 -5.97533zm8.11333 -3.33733l3.58267 0 0 0.00266667 145.413 0.0993333 5.59867 0c0,-31.0227 0.00933333,-62.0573 0.016,-93.0853l-162.609 -0.0746667c-0.012,31.2753 0.0473333,62.4867 -0.166667,93.0527l8.16533 0.00533333zm153.711 12.454c1.26,0.101333 3.30133,0.00466667 4.24867,0l0 -2.71333 -0.313333 -105.915 -168.851 -0.018c-0.0766667,36.3293 -0.254,72.4607 -0.132667,108.655l11.338 0 3.58267 0 124.489 0.00466667 0.0126667 -0.0133333 25.6267 0z"/>
   <path id="_400920672" fill="#020202" d="M161.641 205.283l7.09267 -0.068 0.0106667 5.93333c-2.22067,0.658 -4.75333,0.566 -6.996,0.1l-0.107333 -5.96533zm-1.338 -15.5093l9.77467 0.032 0.0966667 12.032 -9.90533 0.236667 0.034 -12.3007zm6.71133 -60.0973l1.75933 0.0573333 -0.143333 56.8507 -1.838 -0.0166667 0.222 -56.8913zm-5.148 -0.0133333l1.79267 0.0653333 -0.191333 56.8507 -1.85 -0.002 0.248667 -56.914zm3.152 -10.0167c1.36333,1.516 2.10267,4.66533 2.68333,6.87067l-5.05333 -0.054 2.37 -6.81667zm-6.422 65.5493c-0.942667,3.202 -0.781333,-0.32 -1.47333,2.85133l0.00733333 15.968c1.04333,2.576 0.52,-0.288 1.46133,2.25133 0.012,6.52867 -0.919333,8.452 6.43,8.446 7.634,-0.00666667 6.87733,-1.252 6.88667,-8.44467 0.762667,-3.85733 1.40733,4.54867 1.41067,-12.5227 0.002,-11.5087 -0.784667,-4.70467 -1.41533,-8.54933l0.000666667 -50.708c-0.00266667,-4.60333 0.67,-5.094 -1.13533,-9.17533 -2.05933,-4.656 -3.158,-10.6227 -5.35667,-15.25 -1.33533,1.242 -6.82867,17.7447 -6.896,18.6973 -0.1,1.42067 0.0793333,3.61333 0.0793333,5.158l0.000666667 51.278z"/>
   <path id="_400920864" fill="#020202" d="M92.1393 159.21l8.92533 9.16733 0.006 22.7447 -15.6493 0.222c-2.18667,-6.49667 -3.924,-11.846 -3.27,-18.9967 0.517333,-5.66133 4.05,-12.078 9.988,-13.1373zm27.7473 31.9213l-15.7113 0.144667c0.168667,-7.04267 -0.132,-13.8947 0.00866667,-20.65 0.0706667,-3.39267 6.656,-9.36 9.466,-11.4107 13.4393,4.13067 9.65533,22.024 6.23667,31.916zm-24.2793 -32.838l3.79867 -1.11267c0.836,-1.57667 0.491333,-0.820667 0.738667,-2.83867l4.386 0.105333 1.124 2.54933 3.99533 1.11467 -6.66867 7.18867c-2.206,-1.13067 -5.85467,-5.102 -7.374,-7.00667zm-1.82867 -18.4027c2.40333,-2.97067 3.79733,-3.06 5.31467,-7.11933 2.23,0.767333 3.86133,2.12 6.14933,3.016 2.03533,0.797333 4.57333,0.962 6.358,1.82467 0.0246667,15.6247 -15.4353,19.136 -17.822,2.27867zm17.2233 -6.066c-4.524,-0.410667 -9.61467,-2.88333 -12.228,-6.39467 3.87867,-4.526 11.14,-0.0713333 12.228,6.39467zm-14.15 20.1587c-4.576,2.43133 -14.2433,2.27467 -17.2293,14.602 -1.51933,6.274 -0.116,21.1887 4.402,25.866l37.4853 0.0266667c4.09467,-6.60733 6.014,-18.496 4.12067,-26.0627 -2.28267,-9.122 -8.734,-12.1673 -17.182,-14.1687 0.156667,-2.96533 3.078,-4.90533 4.402,-7.78667 4.70133,-10.2327 1.06267,-23.72 -10.0273,-23.686 -7.332,0.0226667 -11.796,5.586 -12.312,12.55 -0.861333,11.6147 6.20733,15.05 6.34067,18.6593z"/>
   <path id="_400921056" fill="white" d="M389.804 158.797c0.525333,1.806 1.45067,1.448 3.182,2.00733 3.286,0.354667 5.29733,1.18467 8.028,-1.06867l1.508 -0.851333 -3.85 -0.936667 -0.124667 -2.63733 -1.33867 -0.046 -3.47 -0.208 -0.689333 2.59067 -3.24533 1.15z"/>
   <path id="_400921248" fill="#DDDDDD" d="M246.064 273.37l-124.828 0.100667 -0.028 5.71333 124.712 -0.0466667c-0.616667,-0.765333 -0.986,-1.73867 -0.986,-2.79867 0,-1.14 0.427333,-2.17933 1.13,-2.96867zm0.674 179.093c2.88,-0.947333 3.86333,-1.36733 5.806,1.38467 0.326,6.72133 -8.118,6.05733 -5.806,-1.38467zm138.58 -100.533l0.116 98.0447 -272.143 -0.00333333 -0.0426667 -141.813 -6.72 0.128667c-0.600667,8.50867 -0.0906667,18.8947 -0.0906667,27.6087l0.00133333 82.6187c0.0193333,9.30533 -0.00133333,18.614 -0.00133333,27.92 0,15.2587 -1.84933,13.7133 13.484,13.7133l260.973 0c4.25267,0 8.768,1.19267 11.1693,-2.46 0.785333,-2.078 0.219333,-84.7093 0.219333,-96.152l0 -0.163333 0 -0.046c-0.00666667,-2.17 -0.103333,-4.55 -0.0286667,-6.672 0.00666667,-0.192667 0.016,-0.374 0.0286667,-0.545333l0 -21.9793c-0.326,-1.92867 0,-4.21667 0,-6.49l0 -5.05733 0 -33.6887c0,-14.552 2.02067,-13.5247 -12.528,-13.5247l-77.4947 0c-16.2007,0 -33.4227,-0.548 -49.5647,-0.0393333 0.725333,0.794 1.16733,1.85 1.16733,3.01 0,1.08267 -0.385333,2.07533 -1.02667,2.84867l132.329 0.0426667c-0.204667,14.9493 -0.615333,52.3453 0.152,72.6993zm9.988 -1.46467l0.01 -0.004c0.289333,7.06533 -1.00533,50.69 0.582667,53.0187 1.91667,1.46667 17.6367,3.31867 21.134,3.52667l-0.193333 -81.818c-4.426,0.4 -17.9333,2.138 -21.416,3.57933l-0.102 7.36 -0.0153333 -0.00733333 0 14.3447z"/>
   <path id="_400921536" fill="#EA596F" d="M92.1393 159.21c-5.938,1.05933 -9.47067,7.476 -9.988,13.1373 -0.654,7.15067 1.08333,12.5 3.27,18.9967l15.6493 -0.222 -0.006 -22.7447 -8.92533 -9.16733z"/>
   <path id="_400921728" fill="#EA596F" d="M119.887 191.13c3.41867,-9.892 7.20267,-27.7853 -6.23667,-31.916 -2.81,2.05067 -9.39533,8.018 -9.466,11.4107 -0.140667,6.75533 0.16,13.6073 -0.00866667,20.65l15.7113 -0.144667z"/>
   <path id="_400921440" fill="white" d="M225.657 344.703c1.37467,0.371333 12.1807,8.65867 13.272,9.998 -1.21067,1.762 -11.4133,9.76 -13.3273,10.084l0.0553333 -20.082zm1.862 -3.394c-18.0773,4.39333 -11.8367,30.9867 6.26133,26.9887 17.3073,-3.824 11.3133,-31.2587 -6.26133,-26.9887z"/>
   <path id="_400922016" fill="#020202" d="M383.024 139.89c-1.978,-16.3473 15.5647,-19.064 18.9387,-10.8933 -15.268,2.51867 -14.8293,7.77667 -18.9387,10.8933zm29.266 23.452c6.50667,5.922 4.91533,21.728 0.768667,28.6353l-33.782 0.155333c-2.77867,-4.55133 -4.06067,-12.6867 -3.72533,-18.0667 0.555333,-8.894 4.75333,-10.958 7.43867,-13.2747 0.711333,-0.613333 2.30067,-1.51733 3.432,-2.36467 5.39067,11.3253 19.7573,2.796 20.6633,1.51333 0.646,-0.914 2.72,0.618667 5.20467,3.402zm-31.3187 -4.954c-15.4167,9.62267 -6.08533,35.7013 -3.47533,36.778l37.634 0.0773333c2.69267,-6.37067 4.21533,-9.932 4.63733,-17.1667 0.252667,-4.334 -0.993333,-14.9067 -5.16867,-16.7427 -1.30267,-1.60533 -3.37,-3.60333 -5.27467,-4.444 -2.41933,-1.06667 -5.94933,-1.248 -7.55933,-2.18667l0.858667 -2.42067c8.58,-7.58733 7.92133,-28.21 -6.32067,-30.644 -16.1087,-2.75333 -20.3047,18.1747 -13.4227,29.3307 0.341333,-2.08267 0.922667,-4.64533 2.14333,-6.01 1.12933,3.08067 5.2,7.674 5.30933,9.744 -3.53933,0.227333 -6.62667,1.97867 -9.36133,3.68467zm8.952 0.363333l3.12467 -1.10733 0.689333 -2.59067 3.47 0.208 1.33867 0.046 0.124667 2.63733 3.85 0.936667c-3.3,2.92933 -8.32,3.35533 -12.5973,-0.13zm-2.70133 -18.8367c4.61467,-5.292 9.67867,-8.09867 17.11,-7.49933 4.698,21.494 -16.0667,26.0807 -17.11,7.49933z"/>
   <polygon id="_400922376" fill="#DDDDDD" points="199.917,490.903 298.911,490.877 298.851,487.343 199.884,487.597 "/>
   <path id="_400922544" fill="#DDDDDD" d="M333.217 140.677l2.95 0.0573333 -0.05 19.4047 -3.22467 -0.008 0.324667 -19.454zm-2.86067 37.6473l8.466 -0.0246667 -0.0226667 -44.112 -8.422 0.0313333 -0.0213333 44.1053z"/>
   <path id="_400922424" fill="#020202" d="M227.517 341.303c17.5747,-4.27 23.5687,23.1647 6.26133,26.9887 -18.098,3.998 -24.3387,-22.5953 -6.26133,-26.9887zm19.654 16.8107c4.71333,-21.678 -28.8007,-28.572 -33.3533,-6.928 -4.63867,22.0553 28.494,29.2767 33.3533,6.928z"/>
   <path id="_400922928" fill="white" d="M397.657 151.43c7.054,-2.192 8.09867,-12.4793 6.67,-19.0147 -7.43133,-0.599333 -12.4953,2.20733 -17.11,7.49933 0.240667,4.28933 2.43733,9.54467 6.38533,11.474 1.398,0.684667 2.578,0.499333 4.05467,0.0413333z"/>
   <path id="_400923120" fill="#020202" d="M124.528 96.5767l2.59267 1.14867c7.39533,-11.586 11.7413,-18.3127 20.604,-28.036 9.788,-10.7393 24.6833,-20.3567 26.1867,-22.108l-1.45133 -2.32067c-14.4733,7.14733 -45.21,39.5307 -47.932,51.316z"/>
   <polygon id="_400923456" fill="#020202" points="417.124,257.083 420.331,262.043 422.944,260.483 415.337,247.683 408.091,260.857 410.704,261.977 413.884,257.377 413.997,304.623 416.997,304.583 "/>
   <path id="_400858200" fill="white" d="M93.7787 139.89c2.38667,16.8573 17.8467,13.346 17.822,-2.27867 -1.78467,-0.862667 -4.32267,-1.02733 -6.358,-1.82467 -2.288,-0.896 -3.91933,-2.24867 -6.14933,-3.016 -1.51733,4.05933 -2.91133,4.14867 -5.31467,7.11933z"/>
   <path id="_400858296" fill="white" d="M331.957 181.597c-0.630667,3.43333 -0.244667,10.164 -0.244667,13.962 0,3.78867 -0.966,9.91867 1.26867,13.0407l4.42933 -1.66667 -0.196667 -25.3667 -5.25667 0.0306667z"/>
   <path id="_400858488" fill="#020202" d="M340.824 59.51c1.172,1.85133 5.60333,5.31933 7.38333,7.08133 8.89667,8.80733 18.554,23.3327 19.5813,24.34l2.442 -1.03533c-1.99267,-6.59933 -22.1707,-29.458 -27.5133,-32.1587l-1.89333 1.77267z"/>
   <path id="_400858176" fill="#020202" d="M228.937 358.49l-0.14 -7.25667c1.81267,0.53 3.772,2.092 4.95,3.46533 -1.02333,1.58533 -3.152,3.006 -4.81,3.79133zm-3.33733 6.29267c1.914,-0.324 12.1167,-8.322 13.3273,-10.084 -1.09133,-1.33933 -11.8973,-9.62667 -13.272,-9.998l-0.0553333 20.082z"/>
   <polygon id="_400858944" fill="#020202" points="376.337,210.43 415.631,210.417 415.764,207.303 376.437,207.257 "/>
   <polygon id="_400859184" fill="#020202" points="376.377,203.55 415.584,203.537 415.817,200.443 376.357,200.37 "/>
   <polygon id="_400859424" fill="#020202" points="82.8433,210.397 122.297,210.417 122.322,207.31 82.952,207.257 "/>
   <polygon id="_400859664" fill="#020202" points="82.89,203.517 122.146,203.537 122.39,200.443 82.872,200.377 "/>
   <polygon id="_400859904" fill="#EA596F" points="160.269,202.077 170.174,201.843 170.077,189.81 160.303,189.777 "/>
   <path id="_400859952" fill="#EA596F" d="M383.024 139.89c4.10933,-3.11667 3.67067,-8.37467 18.9387,-10.8933 -3.374,-8.17067 -20.9167,-5.454 -18.9387,10.8933z"/>
   <polygon id="_400860336" fill="#EEEEEE" points="161.617,186.577 163.467,186.583 163.659,129.73 161.866,129.663 "/>
   <polygon id="_400860600" fill="#EEEEEE" points="166.792,186.57 168.63,186.59 168.773,129.737 167.014,129.677 "/>
   <path id="_400860768" fill="white" d="M95.6073 158.29c1.51933,1.90467 5.168,5.876 7.374,7.00667l6.66867 -7.18867 -3.99533 -1.11467 -1.124 -2.54933 -4.386 -0.105333c-0.247333,2.018 0.0973333,1.262 -0.738667,2.83867l-3.79867 1.11267z"/>
   <polygon id="_400861032" fill="#020202" points="332.891,160.13 336.117,160.143 336.164,140.737 333.217,140.677 "/>
   <path id="_400861080" fill="white" d="M98.774 127.43c2.61333,3.51133 7.704,5.984 12.228,6.39467 -1.088,-6.466 -8.34933,-10.9207 -12.228,-6.39467z"/>
   <polygon id="_400861464" fill="#4A9FD5" points="150.267,407.13 158.43,406.897 158.275,401.123 150.232,401.157 "/>
   <path id="_400861512" fill="#D7E8EF" d="M161.748 211.25c2.24267,0.466 4.77533,0.558 6.996,-0.1l-0.0106667 -5.93333 -7.09267 0.068 0.107333 5.96533z"/>
   <polygon id="_400861896" fill="white" points="330.711,130.823 338.264,130.977 334.797,119.817 "/>
   <polygon id="_400862208" fill="#020202" points="390.231,109.477 401.831,109.703 402.011,106.857 398.557,106.557 393.431,106.597 390.164,106.797 "/>
   <path id="_400862136" fill="#020202" d="M246.737 452.463c-2.312,7.442 6.132,8.106 5.806,1.38467 -1.94267,-2.752 -2.926,-2.332 -5.806,-1.38467z"/>
   <polygon id="_400862568" fill="#020202" points="96.764,109.483 108.368,109.703 108.545,106.85 96.712,106.657 "/>
   <path id="_400862616" fill="white" d="M228.937 358.49c1.658,-0.785333 3.78667,-2.206 4.81,-3.79133 -1.178,-1.37333 -3.13733,-2.93533 -4.95,-3.46533l0.14 7.25667z"/>
   <path id="_400862928" fill="white" d="M162.648 126.463l5.05333 0.054c-0.580667,-2.20533 -1.32,-5.35467 -2.68333,-6.87067l-2.37 6.81667z"/>
   <path id="_400863024" fill="#FEFEFE" d="M96.702 129.543c-2.47867,1.486 -3.638,4.84933 -3.638,7.60733 3.85267,-3.73333 3.638,-2.56867 3.638,-7.60733z"/>
   <path id="_199322728" fill="white" d="M238.697 57.6367c2.24467,2.284 7.85533,8.566 10.1827,9.76667l9.81467 -9.66133c5.87067,-1.006 21.0167,-0.209333 27.852,-0.208667 14.492,0.00133333 12.314,-2.31733 12.314,-15.8307 0,-4.162 0.462667,-25.744 -0.388667,-27.9587 -1.74933,-4.55533 -6.12067,-3.88333 -10.216,-3.878l-56.9873 -0.006c-4.55267,-0.00133333 -7.912,0.905333 -8.18867,6.17667 -0.470667,8.95933 0.00533333,19.3907 0.00533333,28.5147 -0.000666667,16.1467 1.79533,12.1267 15.612,13.0853z"/>
   <path id="_199322656" fill="#020202" d="M239.011 57.03c-13.8167,-0.958667 -15.6127,3.06133 -15.612,-13.0853 0,-9.124 -0.476,-19.5553 -0.00533333,-28.5147 0.276667,-5.27133 3.636,-6.178 8.18867,-6.17667l56.9873 0.006c4.09533,-0.00533333 8.46667,-0.677333 10.216,3.878 0.851333,2.21467 0.388667,23.7967 0.388667,27.9587 0,13.5133 2.178,15.832 -12.314,15.8307 -6.83533,-0.000666667 -21.9813,-0.797333 -27.852,0.208667l-9.81467 9.66133c-2.32733,-1.20067 -7.938,-7.48267 -10.1827,-9.76667zm-1.716 3.07867l11.7673 11.354 11.5427 -11.3827c9.892,-0.461333 20.8833,0.104667 30.8147,0.0393333 13.2113,-0.088 10.9153,-10.288 10.9153,-20.1627 0,-24.9047 3.51467,-33.874 -12.6253,-33.834l-46.7247 0.00133333c-8.24267,0 -22.1467,-2.68 -22.7707,8.74 -0.526667,9.65067 -0.002,20.9547 -0.004,30.79 -0.002,14.7887 3.27267,14.482 17.0847,14.4547z"/>
   <path id="_199321384" fill="white" d="M103.07 255.617c-2.24467,-2.284 -7.85533,-8.566 -10.1827,-9.76667l-9.81467 9.66133c-5.87067,1.006 -21.0167,0.209333 -27.852,0.208667 -14.492,-0.00133333 -12.314,2.31733 -12.314,15.8307 0,4.162 -0.462667,25.744 0.388667,27.9587 1.74933,4.55533 6.12067,3.88333 10.216,3.878l56.9873 0.006c4.55267,0.00133333 7.912,-0.905333 8.18867,-6.17667 0.470667,-8.95933 -0.00533333,-19.3907 -0.00533333,-28.5147 0.000666667,-16.1467 -1.79533,-12.1267 -15.612,-13.0853z"/>
   <path id="_199321312" fill="#020202" d="M102.753 256.223c13.8167,0.958667 15.6127,-3.06133 15.612,13.0853 0,9.124 0.476,19.5553 0.00533333,28.5147 -0.276667,5.27133 -3.636,6.178 -8.18867,6.17667l-56.9873 -0.006c-4.09533,0.00533333 -8.46667,0.677333 -10.216,-3.878 -0.851333,-2.21467 -0.388667,-23.7967 -0.388667,-27.9587 0,-13.5133 -2.178,-15.832 12.314,-15.8307 6.83533,0.000666667 21.9813,0.797333 27.852,-0.208667l9.81467 -9.66133c2.32733,1.20067 7.938,7.48267 10.1827,9.76667zm1.716 -3.07867l-11.7673 -11.354 -11.5427 11.3827c-9.892,0.461333 -20.8833,-0.104667 -30.8147,-0.0393333 -13.2113,0.088 -10.9153,10.288 -10.9153,20.1627 0,24.9047 -3.51467,33.874 12.6253,33.834l46.7247 -0.00133333c8.24267,0 22.1467,2.68 22.7707,-8.74 0.526667,-9.65067 0.002,-20.9547 0.004,-30.79 0.002,-14.7887 -3.27267,-14.482 -17.0847,-14.4547z"/>
   <polygon id="_400864368" fill="#020202" points="85.594,81.7367 110.553,81.7367 102.469,77.59 103.891,74.99 117.049,81.7367 119.847,83.3433 117.049,84.7033 103.891,91.45 102.469,88.85 110.553,84.7033 85.594,84.7033 "/>
   <polygon id="_400864608" fill="#020202" points="336.051,45.2567 319.424,45.2567 327.504,41.11 326.084,38.5033 312.924,45.2567 310.131,46.8567 312.924,48.2233 326.084,54.97 327.504,52.3633 319.424,48.2233 336.051,48.2233 "/>
   <path id="_400863120" fill="#020202" d="M299.351 234.79l0 12.7667c6.05667,-0.786 8.766,-3.712 8.76,-14.058l-0.000666667 -105.981c0,-11.3947 0.631333,-24.1727 0.141333,-35.3267 -0.664667,-15.1207 -11.1587,-12.266 -23.124,-12.266l-71.2267 0c-10.4627,0 -23.3427,-2.76067 -23.3433,11.6933l0.006 141.31c-0.004,11.4693 2.89067,14.19 9.392,14.772l0 -12.904 -6.65733 -0.026 -0.106667 -143.819c8.22267,0.032 106.959,-0.753333 112.088,0.45l0.201333 143.379 -6.13 0.01zm-102.953 -140.736l106.167 -0.442c0.337333,10.9793 -0.207333,22.7253 -0.207333,33.906 0,13.622 0.698,98.2733 -0.234,104.103l-105.801 -0.08 0.0746667 -137.487zm-9.018 128.619c0,9.73667 -2.57733,23.7733 8.73933,27.5613 5.23067,1.75067 62.1387,0.647333 72.4833,0.647333 7.03667,0 30.4333,1.112 35.4513,-1.25067 9.94267,-4.68267 7.21533,-19.748 7.21533,-29.2373l0 -109.399c0,-6.12067 -0.172667,-12.1507 0.002,-18.2333 0.476667,-16.574 -10.6207,-15.8487 -20.446,-15.8487l-54.702 0c-11.8347,0 -24.8,-0.506667 -36.4927,0.00733333 -4.68667,0.206 -8.87,2.99933 -10.9187,7.184 -2.096,4.28067 -1.32933,11.7613 -1.33067,16.634 -0.00933333,55.6893 -0.002,73.8653 -0.00133333,121.935z"/>
   <path id="_199652160" fill="#D7E8EF" d="M208.317 212.603l82.0467 -0.203333 -0.082 12.8287 -81.7513 0.0273333 -0.213333 -12.6527zm80.4 -95.7913l1.66267 3.24 -0.121333 84.4207c-2.02733,1.636 -0.893333,1.57333 -2.86867,2.28333l-76.3367 0c-1.492,-0.644 -1.12533,-0.91 -2.64867,-2.316l0.016 -46.9293 2.93267 -0.140667c1.154,9.43267 -1.39667,40.368 0.582,46.1493l6.08067 -0.0233333 0.226 -33.8373 3.02 -0.042c0.67,7.842 -1.10067,28.278 0.432,33.846l6.07067 0.0546667 0.306 -57.59 3.03267 -0.0933333 0.115333 57.6047 6.29067 0.103333c1.84,-5.628 -1.104,-65.0793 0.673333,-73.374l2.64533 0.012 0.189333 73.2893 6.70667 0.072 0.0106667 -67.3833 3.05933 -0.267333 0.142 67.5693 6.77067 0.0313333 -0.00666667 -88.508 2.87133 -0.0466667 0.170667 88.3587 6.73867 0.208667c0.00266667,-9.47267 -0.636,-69.4547 0.308,-73.3353l2.662 0.012 0.174667 73.3493 6.732 -0.0413333 -0.00733333 -80.308 2.95267 -0.166667 0.072 80.4607 6.78933 -0.094 -0.0126667 -82.1293c0.00133333,-9.67333 -1.076,-9.73667 2.798,-9.888 0.205333,2.94467 0.668,3.388 -1.232,5.44867zm-49.242 6.268c-2.11667,-1.904 -5.34467,-7.39667 -6.34733,-10.222 -4.32133,-12.1693 16.7793,-12.326 12.6813,-0.188 -1.022,3.028 -4.128,8.25267 -6.334,10.41zm-43.1507 108.461l105.801 0.08c0.932,-5.82933 0.234,-90.4807 0.234,-104.103 0,-11.1807 0.544667,-22.9267 0.207333,-33.906l-106.167 0.442 -0.0746667 137.487z"/>
   <path id="_199651872" fill="white" d="M241.357 84.13l15.8787 0.128 -0.064 2.95067 -15.8707 -0.125333 0.056 -2.95333zm64.1213 150.647l-0.201333 -143.379c-5.12933,-1.20333 -103.865,-0.418 -112.088,-0.45l0.106667 143.819c37.4747,0.148 74.724,0.07 112.183,0.00933333zm-96.538 13.0213c-12.8767,0.122667 -18.3847,0.944667 -18.3793,-14.8727l-0.006 -141.31c0.000666667,-14.454 12.8807,-11.6933 23.3433,-11.6933l71.2267 0c11.9653,0 22.4593,-2.85467 23.124,12.266 0.49,11.154 -0.141333,23.932 -0.141333,35.3267l0.000666667 105.981c0.00666667,11.0807 -3.08067,14.1867 -10.102,14.1947l-89.066 0.108z"/>
   <path id="_199650792" fill="#020202" d="M287.151 136.17l0.01 67.2073 -6.78933 0.094 -0.072 -80.4607 -2.95267 0.166667 0.00733333 80.308 -6.732 0.0413333 -0.174667 -73.3493 -2.662 -0.012c-0.944,3.88067 -0.305333,63.8627 -0.308,73.3353l-6.73867 -0.208667 -0.170667 -88.3587 -2.87133 0.0466667 0.00666667 88.508 -6.77067 -0.0313333 -0.142 -67.5693 -3.05933 0.267333 -0.0106667 67.3833 -6.70667 -0.072 -0.189333 -73.2893 -2.64533 -0.012c-1.77733,8.29467 1.16667,67.746 -0.673333,73.374l-6.29067 -0.103333 -0.115333 -57.6047 -3.03267 0.0933333 -0.306 57.59 -6.07067 -0.0546667c-1.53267,-5.568 0.238,-26.004 -0.432,-33.846l-3.02 0.042 -0.226 33.8373 -6.08067 0.0233333c-1.97867,-5.78133 0.572,-36.7167 -0.582,-46.1493l-2.93267 0.140667 -0.016 46.9293c1.52333,1.406 1.15667,1.672 2.64867,2.316l76.3367 0c1.97533,-0.71 0.841333,-0.647333 2.86867,-2.28333l0.098 -68.2993 0.00866667 0 0 -24.4487 -3.214 0 0 24.4487 0.00266667 0z"/>
   <path id="_199648944" fill="#020202" d="M211.717 215.463l75.45 0.162667 0.0153333 6.462 -75.7593 0.0213333 0.294 -6.646zm-3.18867 9.79133l81.7513 -0.0273333 0.082 -12.8287 -82.0467 0.203333 0.213333 12.6527z"/>
   <polygon id="_199648560" fill="#4A9FD5" points="211.424,222.11 287.184,222.083 287.164,215.623 211.717,215.463 "/>
   <path id="_199646112" fill="#020202" d="M239.544 117.35c-5.74333,-4.09133 -4.36,-15.39 3.42667,-8.82333 0.25,3.224 -1.27867,6.53 -3.42667,8.82333zm-0.0686667 5.726c2.206,-2.15733 5.312,-7.382 6.334,-10.41 4.098,-12.138 -17.0027,-11.9813 -12.6813,0.188 1.00267,2.82533 4.23067,8.318 6.34733,10.222z"/>
   <path id="_199643136" fill="#EA596F" d="M239.544 117.35c2.148,-2.29333 3.67667,-5.59933 3.42667,-8.82333 -7.78667,-6.56667 -9.17,4.732 -3.42667,8.82333z"/>
   <polygon id="_199642464" fill="#020202" points="241.304,87.0833 257.171,87.21 257.237,84.2567 241.357,84.13 "/>
   <path id="_400866984" fill="#EEEEEE" d="M327.291 99.3633c1.77733,-1.352 0.826667,-0.242 1.18733,-2.07467 -1.64533,-1.36667 -1.33533,-1.36867 -2.97067,-0.000666667 0.384667,1.84867 -0.0393333,1.52 1.78333,2.07533z"/>
   <polygon id="_400867248" fill="#020202" fill-rule="nonzero" points="198.597,45.2433 198.597,40.6833 193.984,40.6833 193.984,37.5433 198.597,37.5433 198.597,32.9767 201.664,32.9767 201.664,37.5433 206.277,37.5433 206.277,40.6833 201.664,40.6833 201.664,45.2433 "/>
   <circle id="_400867440" fill="#DDDDDD" stroke="#020202" stroke-width="3.33333" cx="102.602" cy="223.163" r="4.07867"/>
   <circle id="_400867776" fill="#DDDDDD" stroke="#020202" stroke-width="3.33333" cx="396.077" cy="222.357" r="4.07867"/>
   <rect id="_401531712" fill="white" x="160.737" y="401.11" width="152.419" height="6.27867"/>
   <rect id="_400868592" fill="#D7E8EF" stroke="#020202" stroke-width="3.33333" x="148.358" y="425.063" width="167.947" height="9.802"/>
   <g id="_199316200">
    <rect id="_199316968" fill="#D7E8EF" stroke="#020202" stroke-width="3.33333" x="330.292" y="305.444" width="38.806" height="9.802"/>
    <rect id="_199316872" fill="#D7E8EF" stroke="#020202" stroke-width="3.33333" x="330.292" y="334.851" width="38.806" height="9.802"/>
    <rect id="_199316776" fill="#D7E8EF" stroke="#020202" stroke-width="3.33333" x="330.292" y="354.451" width="38.806" height="9.802"/>
    <rect id="_199316680" fill="#D7E8EF" stroke="#020202" stroke-width="3.33333" x="330.292" y="374.057" width="38.806" height="9.802"/>
    <rect id="_199316584" fill="white" stroke="#020202" stroke-width="3.33333" x="330.292" y="315.244" width="38.806" height="9.802"/>
    <rect id="_199316488" fill="white" stroke="#020202" stroke-width="3.33333" x="330.292" y="344.651" width="38.806" height="9.802"/>
    <rect id="_199316392" fill="white" stroke="#020202" stroke-width="3.33333" x="330.292" y="364.257" width="38.806" height="9.802"/>
    <rect id="_199316224" fill="white" stroke="#020202" stroke-width="3.33333" x="330.292" y="383.857" width="38.806" height="9.802"/>
    <rect id="_199316272" fill="#4A9FD5" stroke="#020202" stroke-width="3.33333" x="330.292" y="325.043" width="38.806" height="9.802"/>
   </g>
   <circle id="_400843304" fill="none" stroke="#020202" stroke-width="3.33333" cx="249.496" cy="241.33" r="4.90067"/>
  </g>
 </g>
</svg>
