<?xml version="1.0" encoding="UTF-8"?>
<!DOCTYPE svg PUBLIC "-//W3C//DTD SVG 1.1//EN" "http://www.w3.org/Graphics/SVG/1.1/DTD/svg11.dtd">
<!-- Creator: CorelDRAW -->
<svg xmlns="http://www.w3.org/2000/svg" xml:space="preserve" width="177px" height="177px" shape-rendering="geometricPrecision" text-rendering="geometricPrecision" image-rendering="optimizeQuality" fill-rule="evenodd" clip-rule="evenodd"
viewBox="0 0 177 177"
 xmlns:xlink="http://www.w3.org/1999/xlink"
 version="1.1">
 <g id="Layer_x0020_1">
  <metadata id="CorelCorpID_0Corel-Layer"/>
  <g id="_189980720">
   <circle id="_189089792" fill="none" stroke="#69A0D2" stroke-width="3.84783" cx="88.5" cy="88.5" r="84.6799"/>
   <g id="_349289712">
    <path id="_300601752" fill="#97BF3C" d="M56.0097 116.404c0,8.93465 6.96226,8.4706 12.764,8.4706 0,1.74037 -0.347843,1.50835 -0.347843,3.48113 0,4.98948 -0.812276,14.2724 1.62417,17.2891 4.06138,4.87366 12.3,3.2491 12.3,-6.1496l0 -11.2557c0,-1.97278 -0.348228,-1.74076 -0.348228,-3.48113l13.1122 0c0,1.74076 -0.348228,1.50835 -0.348228,3.48113 0,7.19428 -1.9724,20.0741 6.96226,20.0741 8.93465,0 6.96226,-12.764 6.96226,-20.0741 0,-1.97278 -0.348228,-1.74076 -0.348228,-3.48113 5.80175,0 12.764,0.464048 12.764,-8.4706l0 -49.8955 -64.9802 0 0 49.8955 -0.116204 0.116204z"/>
    <path id="_300601680" fill="#97BF3C" d="M98.9434 49.5677c0,-5.68555 6.96187,-4.64125 6.96187,-0.812276 0,5.68593 -6.96187,4.64163 -6.96187,0.812276zm-27.8486 0c0,-5.68555 6.96187,-4.64125 6.96187,-0.812276 0,5.68593 -6.96187,4.64163 -6.96187,0.812276zm-4.17758 -20.0741c0.348228,1.27632 1.97278,3.2491 2.78506,4.52543 1.0443,1.62455 2.0886,3.01708 3.0167,4.75745 -8.93465,4.75745 -15.5487,10.6754 -16.593,23.2074l64.9802 0c-0.696072,-8.93504 -4.1772,-14.5048 -10.443,-19.378 -1.85658,-1.39253 -4.17758,-2.66885 -6.26618,-3.82936 3.36492,-6.2658 7.77453,-9.16668 4.2934,-10.0952l-6.14998 9.28288c-6.96226,-3.36492 -20.8864,-3.36492 -27.8486,0 -1.16012,-1.85658 -5.2215,-8.3544 -6.61403,-9.28288l-1.1605 0.812276 0 0z"/>
    <path id="_300601248" fill="#97BF3C" d="M125.632 75.4443l0 25.8759c0,11.7197 13.9245,11.7197 13.9245,0l0 -25.8759c0,-9.16706 -8.00656,-10.9074 -12.0679,-6.26618 -1.39253,1.50873 -1.85658,3.59733 -1.85658,6.26618z"/>
    <path id="_300601584" fill="#97BF3C" d="M37.444 75.4443l0 25.8759c0,9.16706 8.00656,10.9074 12.0679,6.26618 1.39253,-1.50873 1.85658,-3.59733 1.85658,-6.26618l0 -25.8759c0,-11.7197 -13.9245,-11.7197 -13.9245,0z"/>
   </g>
  </g>
 </g>
</svg>
