<?xml version="1.0" encoding="UTF-8"?>
<!DOCTYPE svg PUBLIC "-//W3C//DTD SVG 1.1//EN" "http://www.w3.org/Graphics/SVG/1.1/DTD/svg11.dtd">
<!-- Creator: CorelDRAW -->
<svg xmlns="http://www.w3.org/2000/svg" xml:space="preserve" width="177px" height="177px" shape-rendering="geometricPrecision" text-rendering="geometricPrecision" image-rendering="optimizeQuality" fill-rule="evenodd" clip-rule="evenodd"
viewBox="0 0 177 177"
 xmlns:xlink="http://www.w3.org/1999/xlink"
 version="1.1">
 <g id="Layer_x0020_1">
  <metadata id="CorelCorpID_0Corel-Layer"/>
  <g id="_189983120">
   <g id="_346930200">
    <path id="_300651368" fill="white" d="M88.6481 93.406l-8.9081 -0.074263c1.0393,-3.48921 3.04363,-7.72066 4.37998,-11.2837 0.742246,-1.85581 1.41023,-3.56347 2.22712,-5.5678l2.37526 -5.27075 0 -23.6068c-0.445193,0.297052 -0.519457,0.594104 -0.965035,1.70767 -0.296667,0.742246 -0.59372,1.41023 -0.890772,2.15286l-5.79021 13.659c-2.59844,5.86447 -5.12223,12.026 -7.6464,18.0394 -1.18744,2.8951 -14.9211,34.3707 -15.2924,36.3008l11.5065 -0.222789c0.59372,-2.0786 5.49354,-15.2182 6.23579,-16.2574l12.9168 0 0 -9.72461 -0.148526 0.148526z"/>
    <path id="_300650648" fill="#DF3237" d="M88.5 71.6542l-2.15286 4.89944c-0.74263,1.93007 -1.48488,3.63773 -2.22712,5.5678 -1.33635,3.48882 -3.34068,7.79454 -4.37998,11.2837l8.75996 0.074263 0 -21.751 0 -0.074263zm-40.6811 51.0737l40.2356 23.3097c0.148526,0 0.297052,-0.074263 0.445578,-0.074263l0 -42.7594 -12.7686 0c-0.816509,1.0393 -5.64168,14.1789 -6.23579,16.2574l-11.5062 0.222789c0.37093,-1.93007 14.1046,-33.4057 15.2924,-36.3008 2.52379,-6.01338 5.04796,-12.1006 7.64602,-18.0394l5.79021 -13.659c0.371315,-0.816893 0.594104,-1.41061 0.890772,-2.15286 0.445578,-0.965035 0.519841,-1.41061 0.816893,-1.6334l0 -12.8425c-1.41061,0.222789 -4.67703,1.63302 -6.08726,2.0786l-42.9821 16.1089 7.34935 68.0734c0.296667,1.26209 0,0.74263 0.965035,1.41061l0.148141 0z"/>
    <path id="_300650744" fill="#B32E31" d="M88.5 71.5042l2.22674 5.04796c0.74263,1.93007 1.48488,3.63773 2.22712,5.5678 1.33635,3.48882 3.34068,7.79454 4.37998,11.2837l-8.83384 0.074263 0 -21.8995 0 -0.074263zm40.755 51.148l-40.2356 23.3097c-0.222789,0 -0.371315,-0.074263 -0.445578,-0.148526l0 -42.6851 12.7686 0c0.816509,1.0393 5.64168,14.1789 6.23579,16.2574l11.5062 0.222789c-0.37093,-1.93007 -14.1046,-33.4057 -15.2924,-36.3008 -2.52379,-6.01338 -5.04796,-12.1006 -7.64602,-18.0394l-5.79021 -13.659c-0.371315,-0.816509 -0.594104,-1.41061 -0.890772,-2.15286 -0.445578,-1.0393 -0.519841,-1.41061 -0.891157,-1.6334l0 -3.19177c0.074263,-1.48488 0,-3.19216 0,-4.82556l0 -4.75091c1.33635,0.148526 4.7513,1.63302 6.16152,2.15286l42.9821 16.1089 -7.34935 68.0734c-0.296667,1.26209 0,0.742246 -0.965035,1.41061l-0.148141 -0.148526z"/>
   </g>
   <circle id="_244743376" fill="none" stroke="#69A0D2" stroke-width="3.84783" cx="88.5" cy="88.5" r="84.6799"/>
  </g>
 </g>
</svg>
