<?xml version="1.0" encoding="UTF-8"?>
<!DOCTYPE svg PUBLIC "-//W3C//DTD SVG 1.1//EN" "http://www.w3.org/Graphics/SVG/1.1/DTD/svg11.dtd">
<!-- Creator: CorelDRAW -->
<svg xmlns="http://www.w3.org/2000/svg" xml:space="preserve" width="19px" height="19px" shape-rendering="geometricPrecision" text-rendering="geometricPrecision" image-rendering="optimizeQuality" fill-rule="evenodd" clip-rule="evenodd"
viewBox="0 0 19 19"
 xmlns:xlink="http://www.w3.org/1999/xlink"
 version="1.1"
 enable-background="new 0 0 512 512">
 <g id="Layer_x0020_1">
  <metadata id="CorelCorpID_0Corel-Layer"/>
  <g id="_189578928">
   <path id="_189579552" fill="white" d="M16.1465 2.85351c-1.77292,-1.77675 -4.13679,-2.7553 -6.64649,-2.7553 -2.5097,0 -4.87359,0.978558 -6.64649,2.7553 -1.7729,1.77675 -2.7553,4.13679 -2.7553,6.64649 0,2.5097 0.978558,4.87359 2.7553,6.64649 1.77675,1.7729 4.13679,2.7553 6.64649,2.7553 2.5097,0 4.87359,-0.978558 6.64649,-2.7553 1.7729,-1.77675 2.7553,-4.13679 2.7553,-6.64649 0,-2.5097 -0.978558,-4.87359 -2.7553,-6.64649zm1.90339 6.22437l-3.64559 0c-0.0345336,-1.45057 -0.237921,-2.8474 -0.594802,-4.0869 0.694588,-0.356881 1.34311,-0.805876 1.93793,-1.33544 1.34311,1.43521 2.19887,3.33092 2.30248,5.42234l-1.45038e-005 0zm-8.12776 0.844238l3.64176 0c-0.0307046,1.33544 -0.214903,2.61331 -0.533407,3.75688 -0.982387,-0.395258 -2.03003,-0.625506 -3.10836,-0.675399l0 -3.08148zm5.21897 -6.85372c-0.491201,0.433635 -1.02844,0.802032 -1.59639,1.10903 -0.145821,-0.406774 -0.310831,-0.790516 -0.49503,-1.15124 -0.364553,-0.721449 -0.779,-1.31242 -1.23567,-1.76523 1.24718,0.349208 2.37924,0.974715 3.32709,1.80745l0 -1.45038e-005zm-5.21897 -1.99548c0.878786,0.195715 1.70768,1.00542 2.37539,2.32551 0.180355,0.356881 0.341536,0.736794 0.483528,1.13972 -0.901804,0.37224 -1.86502,0.590973 -2.85892,0.640851l0 -4.10609zm3.11219 4.27494c0.314675,1.1359 0.49503,2.4061 0.525734,3.73386l-3.63792 -1.45038e-005 0 -3.05462c1.08217,-0.0498931 2.1298,-0.28397 3.11219,-0.679228zm-3.95642 3.73002l-3.64176 0c0.0307046,-1.32777 0.21106,-2.59797 0.525734,-3.73386 0.982387,0.399102 2.03386,0.62935 3.11219,0.675399l0 3.05846 0.00384351 0zm0.00382901 -8.00496l0 4.10609c-0.993903,-0.0498931 -1.96095,-0.268625 -2.85892,-0.640851 0.141992,-0.402931 0.303159,-0.782844 0.483528,-1.13972 0.667727,-1.32009 1.49662,-2.1298 2.37539,-2.32551zm-1.89186 0.188042c-0.456653,0.452824 -0.871099,1.04763 -1.23567,1.76523 -0.180355,0.360724 -0.345379,0.744466 -0.49503,1.15124 -0.56794,-0.307002 -1.10135,-0.675399 -1.59639,-1.10903 0.947853,-0.832737 2.07991,-1.45824 3.32709,-1.80745l0 1.45038e-005zm-3.93341 2.39458c0.594802,0.529578 1.24334,0.974715 1.93793,1.33544 -0.356881,1.24334 -0.564111,2.63634 -0.594802,4.0869l-3.64561 0c0.103615,-2.09142 0.959369,-3.98713 2.30248,-5.42234zm-2.30248 6.26658l3.64559 0c0.0345336,1.46207 0.241764,2.86275 0.602489,4.10993 -0.690744,0.356881 -1.33928,0.798189 -1.93024,1.32777 -1.35463,-1.43905 -2.21423,-3.3386 -2.31783,-5.4377l-1.45038e-005 0zm2.92414 6.02483c0.491201,-0.429792 1.02461,-0.798189 1.58872,-1.10135 0.145821,0.395258 0.307002,0.775171 0.487357,1.12822 0.364553,0.721449 0.779,1.31242 1.23567,1.76907 -1.2395,-0.349208 -2.36772,-0.970885 -3.31173,-1.79594l-1.45038e-005 -1.45038e-005zm5.20361 1.98013c-0.878786,-0.195715 -1.70768,-1.00542 -2.37539,-2.32551 -0.176526,-0.349208 -0.333863,-0.721449 -0.475841,-1.11671 0.897975,-0.37224 1.86117,-0.590973 2.85123,-0.637022l0 4.07923 0 1.45038e-005zm-3.10834 -4.24808c-0.318504,-1.14357 -0.502702,-2.42144 -0.533407,-3.75688l3.64175 0 0 3.08148c-1.07833,0.0460496 -2.12595,0.276298 -3.10836,0.675399l1.45038e-005 0zm3.95259 4.24808l0 -4.07923c0.990074,0.0498931 1.95327,0.264782 2.85123,0.637022 -0.141992,0.395258 -0.29933,0.767498 -0.475841,1.11671 -0.667727,1.32009 -1.49662,2.1298 -2.37539,2.32551l0 -1.45038e-005zm1.89186 -0.188042c0.456653,-0.452824 0.871099,-1.04763 1.23567,-1.76907 0.180355,-0.353052 0.341536,-0.73295 0.487357,-1.12822 0.564111,0.303159 1.09752,0.671556 1.58872,1.10135 -0.944024,0.828893 -2.07223,1.45057 -3.31173,1.79594l-1.45038e-005 1.45038e-005zm3.9219 -2.37922c-0.590973,-0.525734 -1.2395,-0.970885 -1.93024,-1.32777 0.360724,-1.24718 0.56794,-2.65169 0.602489,-4.10993l3.64558 0c-0.107444,2.09909 -0.967042,3.99864 -2.31783,5.4377z"/>
  </g>
 </g>
</svg>
