<?xml version="1.0" encoding="UTF-8"?>
<!DOCTYPE svg PUBLIC "-//W3C//DTD SVG 1.1//EN" "http://www.w3.org/Graphics/SVG/1.1/DTD/svg11.dtd">
<!-- Creator: CorelDRAW -->
<svg xmlns="http://www.w3.org/2000/svg" xml:space="preserve" width="19px" height="19px" shape-rendering="geometricPrecision" text-rendering="geometricPrecision" image-rendering="optimizeQuality" fill-rule="evenodd" clip-rule="evenodd"
viewBox="0 0 19 19"
 xmlns:xlink="http://www.w3.org/1999/xlink"
 version="1.1">
 <g id="Layer_x0020_1">
  <metadata id="CorelCorpID_0Corel-Layer"/>
  <path fill="#FEFEFE" d="M16.3741 0.0896226l-13.7483 0c-1.40064,0 -2.53613,1.13545 -2.53613,2.53613l0 13.7484c0,1.40069 1.13545,2.53613 2.53613,2.53613l6.7806 8.96226e-006 0.0115524 -6.72549 -1.74727 0c-0.227068,0 -0.411368,-0.18361 -0.412246,-0.410678l-0.00837972 -2.1679c-0.000878302,-0.228314 0.183977,-0.413859 0.412291,-0.413859l1.7441 0 0 -2.09474c0,-2.43093 1.48466,-3.7546 3.65322,-3.7546l1.77946 0c0.227668,0 0.412291,0.184578 0.412291,0.412291l0 1.82799c0,0.227624 -0.184488,0.412157 -0.412058,0.412291l-1.09203 0.000510849c-1.17933,0 -1.40768,0.560401 -1.40768,1.38282l0 1.81349 2.59138 -8.96226e-006c0.24691,0 0.438488,0.215605 0.409387,0.460822l-0.256948 2.1679c-0.0245835,0.207458 -0.200504,0.363769 -0.409387,0.363769l-2.32288 -8.96226e-006 -0.0115524 6.72549 4.03456 0c1.40064,0 2.53609,-1.13545 2.53609,-2.53609l0 -13.7486c-4.48113e-005,-1.40069 -1.13549,-2.53613 -2.53618,-2.53613l-1.79245e-005 3.58491e-005z"/>
  <g id="_303508656">
  </g>
  <g id="_303509304">
  </g>
  <g id="_303509664">
  </g>
  <g id="_303509952">
  </g>
  <g id="_303510264">
  </g>
  <g id="_303510576">
  </g>
  <g id="_303510888">
  </g>
  <g id="_303511200">
  </g>
  <g id="_303511512">
  </g>
  <g id="_303511824">
  </g>
  <g id="_303512136">
  </g>
  <g id="_303512448">
  </g>
  <g id="_303512760">
  </g>
  <g id="_303513072">
  </g>
  <g id="_303513384">
  </g>
 </g>
</svg>
