<?xml version="1.0" encoding="UTF-8"?>
<!DOCTYPE svg PUBLIC "-//W3C//DTD SVG 1.1//EN" "http://www.w3.org/Graphics/SVG/1.1/DTD/svg11.dtd">
<!-- Creator: CorelDRAW -->
<svg xmlns="http://www.w3.org/2000/svg" xml:space="preserve" width="19px" height="19px" shape-rendering="geometricPrecision" text-rendering="geometricPrecision" image-rendering="optimizeQuality" fill-rule="evenodd" clip-rule="evenodd"
viewBox="0 0 19 19"
 xmlns:xlink="http://www.w3.org/1999/xlink"
 version="1.1">
 <g id="Layer_x0020_1">
  <metadata id="CorelCorpID_0Corel-Layer"/>
  <g id="_300708000">
   <g>
    <g>
     <g>
      <path id="_301323184" fill="#408DD2" d="M15.2452 0.307624l-11.4905 0c-1.90396,0 -3.44712,1.54315 -3.44712,3.44712l0 11.4905c0,1.90398 1.54315,3.44713 3.44713,3.44713l11.4905 0c1.90398,0 3.44713,-1.54319 3.44713,-3.44713l0 -11.4905c2.71429e-005,-1.90396 -1.54315,-3.44712 -3.44713,-3.44712zm-8.30991 15.3776c-2.03494,0 -3.75163,-0.828468 -3.75163,-2.15216 0,-1.34323 1.56613,-2.64051 3.60111,-2.63937l0.635428 -0.00574071c-0.278079,-0.270031 -0.498669,-0.602083 -0.498669,-1.01231 0,-0.243607 0.0781307,-0.476859 0.186159,-0.684828l-0.338974 0.011495c-1.67185,0 -2.79102,-1.18925 -2.79102,-2.66349 0,-1.44205 1.54546,-2.68648 3.18862,-2.68648l3.66544 -1.35714e-005 -0.822714 0.592909 -1.16169 0c0.771006,0.296454 1.18123,1.19499 1.18123,2.11655 0,0.773314 -0.428599,1.43978 -1.03416,1.91316 -0.591769,0.463071 -0.703204,0.656097 -0.703204,1.04908 0,0.33554 0.634288,0.905459 0.965214,1.14102 0.968661,0.684828 1.28004,1.32026 1.28004,2.38084 -8.14286e-005,1.32369 -1.28125,2.63933 -3.60119,2.63933zm9.45897 -7.31252l-2.29809 0 0 2.29466 -1.1479 0 0 -2.29466 -2.29923 0 0 -1.17088 2.29923 0 0 -2.29809 1.1479 -1.35714e-005 0 2.29809 2.29809 1.35714e-005 0 1.17088z"/>
      <path id="_250142304" fill="#408DD2" d="M8.71176 6.63317c-0.163169,-1.23869 -1.06058,-2.23376 -2.00394,-2.26249 -0.943364,-0.0275907 -1.57648,0.920387 -1.41331,2.16134 0.163169,1.23982 1.06058,2.26823 2.00508,2.29578 0.942183,0.0287714 1.57648,-0.953651 1.41217,-2.19464z"/>
      <path id="_300718800" fill="#408DD2" d="M8.08552 11.3833c-0.278079,-0.0896257 -0.584847,-0.14364 -0.912339,-0.147074 -1.40643,-0.0149286 -2.6658,0.857185 -2.6658,1.90628 0,1.07089 1.01575,1.96026 2.42219,1.96026 1.97749,0 2.6658,-0.836516 2.6658,-1.9051 0,-0.128698 -0.0172357,-0.255102 -0.0448264,-0.378019 -0.153954,-0.606751 -0.702064,-0.906639 -1.46502,-1.43635z"/>
     </g>
    </g>
   </g>
   <g>
   </g>
   <g>
   </g>
   <g>
   </g>
   <g>
   </g>
   <g>
   </g>
   <g>
   </g>
   <g>
   </g>
   <g>
   </g>
   <g>
   </g>
   <g>
   </g>
   <g>
   </g>
   <g>
   </g>
   <g>
   </g>
   <g>
   </g>
   <g>
   </g>
  </g>
  <g id="_300650480">
  </g>
  <g id="_579724240">
  </g>
  <g id="_579724744">
  </g>
  <g id="_579725248">
  </g>
  <g id="_579725752">
  </g>
  <g id="_579726256">
  </g>
  <g id="_579726760">
  </g>
  <g id="_579727264">
  </g>
  <g id="_579727768">
  </g>
  <g id="_579728272">
  </g>
  <g id="_579728776">
  </g>
  <g id="_579729280">
  </g>
  <g id="_579729784">
  </g>
  <g id="_579730288">
  </g>
  <g id="_579730792">
  </g>
 </g>
</svg>
