<?xml version="1.0" encoding="UTF-8"?>
<!DOCTYPE svg PUBLIC "-//W3C//DTD SVG 1.1//EN" "http://www.w3.org/Graphics/SVG/1.1/DTD/svg11.dtd">
<!-- Creator: CorelDRAW -->
<svg xmlns="http://www.w3.org/2000/svg" xml:space="preserve" width="543px" height="543px" shape-rendering="geometricPrecision" text-rendering="geometricPrecision" image-rendering="optimizeQuality" fill-rule="evenodd" clip-rule="evenodd"
viewBox="0 0 543 543"
 xmlns:xlink="http://www.w3.org/1999/xlink"
 version="1.1">
 <g id="Layer_x0020_1">
  <metadata id="CorelCorpID_0Corel-Layer"/>
  <g id="_249397824">
   <g id="_350263152">
    <path id="_300708024" fill="#E34D26" d="M270.036 372.688l-72.8482 -20.3306c-0.92428,-2.6182 -5.5445,-52.8268 -5.23641,-57.2936l36.1933 0 2.15547 22.3326c0.153457,2.46357 0.153457,4.77486 1.07774,6.77688l40.1985 10.6263c-0.92428,-4.77368 -0.306913,-48.052 -0.306913,-56.8309l-61.6069 0c-3.54248,0 -17.8647,0.92428 -19.7133,-1.07774l-9.54854 -109.659 90.8687 0 0.308093 -36.3468 118.282 0.153457 -22.6396 252.43c-4.15749,2.6182 -40.0439,11.5506 -48.2066,13.7072l-47.7439 13.091 -0.153457 -28.8002c0,-2.46475 0.46037,-5.23759 -0.309274,-7.39306l-0.92428 -1.38583 0.153457 0 0 0zm0.616187 62.8369c2.77284,0 4.92832,-0.92428 7.39306,-1.69392l97.0294 -26.7994c5.08177,-1.38465 10.3194,-3.07975 15.0942,-4.15749l3.23321 -36.5014c0.308093,-5.54568 1.23237,-12.7829 1.84856,-18.0193l3.23439 -37.1176c0.153457,-4.00522 0.46273,-5.69914 0.616187,-9.54972 0.153457,-2.31011 0.46155,-6.62224 0.92428,-9.3939 1.69392,-11.7064 1.69392,-24.18 3.38785,-36.9641l6.62224 -73.619c0.616187,-12.1667 2.77284,-26.182 3.23557,-37.271 0.46155,-10.1647 3.23321,-28.1852 3.23321,-37.2722l-290.009 0c0,4.6214 0.770824,9.54972 1.23237,13.5538l9.70199 108.426c0.309274,4.92832 0.617367,9.39508 1.0801,13.5538l4.61904 54.3661c0.46273,8.62544 2.15665,18.3274 2.6182,26.9529 0.308093,8.62426 1.54047,18.7902 2.46475,27.1063 0.46155,4.77486 0.616187,9.39508 1.23237,13.5538 0.615007,4.77368 0.46155,8.93353 1.07774,13.7084l1.69392 20.1748c0.308093,6.46878 1.07892,4.77368 14.1688,8.31616l92.4103 25.7217c2.30893,0.615007 10.4728,3.23321 12.1667,3.23321l-0.308093 -0.306913 -0.00118043 -0.00118043z"/>
    <path id="_300707808" fill="#F06429" d="M271.115 167.226l90.8687 0 -3.38785 35.5771c-1.07774,0.770824 0,0.308093 -1.54047,0.770824l-85.9392 0.153457 0 36.963 74.5433 0c2.61702,0 7.54534,-0.92428 9.54854,0.92428l-9.70435 110.583 -74.5421 20.4841 -1.07892 0 0.92428 1.38583c0.770824,2.15665 0.309274,5.08295 0.309274,7.39306l0.153457 28.8002 47.7439 -13.091c8.16271,-2.31011 43.8945,-11.2425 48.2066,-13.7072l22.6396 -252.43 -118.282 -0.153457 -0.308093 36.3468 -0.154637 0 0 0z"/>
    <path id="_300708168" fill="#EBEBEB" d="M189.95 276.885l81.1643 0.306913 0 -35.4237 84.2464 0c-2.00202,-2.00202 -6.93151,-1.07774 -9.54854,-0.92428l-74.5433 0 -47.8985 -0.153457 -3.23439 -36.8095 51.1329 0 85.9404 -0.153457c1.53929,-0.46155 0.46155,0 1.53929,-0.770824l-87.6343 0 0 -35.5771 -90.8687 0 9.54854 109.659 0.155817 -0.153457 0 0z"/>
    <path id="_300708552" fill="white" d="M271.115 277.197l44.356 0 -4.00403 46.6661 -40.0439 10.9367c-1.38701,5.69796 -0.46273,30.1861 -0.46273,37.8872l74.5433 -20.4841 9.70317 -110.583 -84.2464 0 0 35.4237 0.154637 0.153457 0 0z"/>
    <path id="_300719184" fill="#EBEBEB" d="M270.036 372.688l1.07774 0c0,-7.70116 -0.9231,-32.1905 0.46273,-37.8872l-40.1985 -10.6275c-0.92428,-2.0032 -0.92428,-4.31331 -1.07774,-6.77688l-2.15547 -22.3326 -36.1933 0c-0.154637,4.46677 4.31213,54.6754 5.23641,57.2936l72.8482 20.3306 0 0 0 0z"/>
    <polygon id="_300718896" fill="white" points="358.748,202.809 362.137,167.226 271.115,167.226 271.115,202.809 "/>
    <path id="_300719112" fill="#F06429" d="M271.577 334.796l40.0427 -10.9355 4.0064 -46.6661 -44.3572 0 -81.1655 -0.308093c1.84856,2.15665 16.172,1.07892 19.7133,1.07892l61.6069 0c0,8.77771 -0.617367,52.056 0.306913,56.8309l-0.153457 0 0 0z"/>
    <polygon id="_300719016" fill="#E34D26" points="271.27,240.688 271.27,203.735 220.137,203.735 223.37,240.544 "/>
   </g>
   <circle id="_189089792" fill="none" stroke="#69A0D2" stroke-width="12.018" cx="271.5" cy="271.5" r="264.475"/>
  </g>
 </g>
</svg>
