<?xml version="1.0" encoding="UTF-8"?>
<!DOCTYPE svg PUBLIC "-//W3C//DTD SVG 1.1//EN" "http://www.w3.org/Graphics/SVG/1.1/DTD/svg11.dtd">
<!-- Creator: CorelDRAW -->
<svg xmlns="http://www.w3.org/2000/svg" xml:space="preserve" width="177px" height="177px" shape-rendering="geometricPrecision" text-rendering="geometricPrecision" image-rendering="optimizeQuality" fill-rule="evenodd" clip-rule="evenodd"
viewBox="0 0 177 177"
 xmlns:xlink="http://www.w3.org/1999/xlink"
 version="1.1">
 <g id="Layer_x0020_1">
  <metadata id="CorelCorpID_0Corel-Layer"/>
  <g id="_244907104">
   <circle id="_251545680" fill="none" stroke="#69A0D2" stroke-width="3.84783" cx="88.5" cy="88.5" r="84.6799"/>
   <g id="_583040800">
    <g>
     <path id="_581053384" fill="#9E9D9D" d="M98.7545 34.2195l-0.0734935 0.0734935 -0.287817 0.00577174c0,0.116589 0.0246261,0.0781109 -0.109278,0.0781109l-0.16815 0.00115435 -0.148911 0.0784957c-0.562937,0.0153913 -0.8673,0.277813 -1.34366,0.3186 0,0.114665 0.0288587,0.0865761 -0.085037,0.0865761l-0.16007 -0.00731087 -0.0777261 0.0765717 -0.129672 0.00269348c0,0.120052 0.0261652,0.0823435 -0.108509,0.0823435 -0.409793,0.0280891 -0.829591,0.29205 -1.27132,0.394017l-0.0777261 0.0800348 -0.146602 -0.000769565c0,0.115435 0.0277043,0.0846522 -0.0911935,0.0846522 -0.299361,0.0604109 -0.46982,0.14968 -0.759561,0.267039 -0.261652,0.1062 -0.530615,0.179309 -0.749557,0.283585l-0.0781109 0.07965c-0.345535,0.0280891 -0.559089,0.223943 -0.947335,0.317061 0,0.112357 0.0284739,0.0842674 -0.0842674,0.0842674l-0.155067 -0.00500217 -0.083113 0.0723391 -0.13198 0.00731087 -0.105815 0.0708c-0.386322,0.109663 -0.763793,0.290896 -1.1959,0.325911l-0.0738783 0.0746478 -0.217402 0.00461739 -0.179309 0.0738783 -0.243183 0.00577174c-0.1947,0.118898 -0.830746,0.115435 -1.0316,0l-0.232793 -0.00423261 -0.181233 -0.0754174 -0.295128 0.00577174c-0.113126,0 -0.085037,0.0284739 -0.085037,-0.085037 -0.519072,-0.0446348 -0.709924,-0.26473 -1.18436,-0.326296l-0.103507 -0.0704152 -0.134674 -0.0065413 -0.0777261 -0.0731087 -0.160454 -0.00384783 -0.0765717 -0.0754174c-0.448657,-0.102737 -0.822665,-0.327065 -1.26286,-0.485596 -0.387091,-0.139291 -0.875765,-0.380165 -1.27902,-0.461739 -0.116589,0 -0.0888848,0.0296283 -0.0888848,-0.0846522l-0.149296 -0.00769565 -0.0719543 -0.0715696c-0.45212,-0.100813 -0.859604,-0.364774 -1.27709,-0.394787 -0.127363,0 -0.101583,0.0350152 -0.101583,-0.0815739l-0.136213 0.00846522c-0.117743,0 -0.0885,0.0296283 -0.0885,-0.0877304 -0.582176,-0.0507913 -1.11318,-0.379396 -1.73691,-0.398635l-0.192391 -0.0777261 -0.20432 -0.00115435 -0.210861 -0.0781109 -0.42403 0.0138522 -0.148526 -0.0931174 -2.55226 0 -0.155837 0.093887 -0.484826 -0.0146217c-0.0700304,0.0661826 0.0896543,0.0700304 -0.22933,0.0788804l-0.259343 0.000384783 -0.216633 0.0788804c-0.617961,0.00192391 -1.36136,0.282815 -1.93045,0.39748l-0.13275 0.102352 -0.083113 -0.023087 -0.155067 0.0823435c-0.4425,0.030013 -1.11625,0.457507 -1.62955,0.552933l-0.0369391 0.0808043c-0.294743,0.0657978 -0.767641,0.33553 -1.03276,0.474822l-0.0781109 0.0792652c-0.261267,0.0696457 -1.04007,0.554087 -1.25939,0.714157 0,0.114665 0.0277043,0.0846522 -0.0896543,0.0846522l-0.151989 0.074263c0,0.113511 0.0280891,0.0846522 -0.0858065,0.0846522l-0.154683 0.074263 -0.0834978 0.0738783c-0.439037,0.313213 -0.78842,0.5841 -1.22476,0.923093 -0.435574,0.338224 -0.766487,0.805735 -1.15589,1.06662l-0.0723391 0.0811891 -0.0861913 0.0819587 -1.12318 1.25324c-0.243567,0.298976 -0.859604,1.12357 -1.01352,1.44101 0,0.113126 0.0280891,0.0846522 -0.0854217,0.0846522 -0.158146,0.226252 -0.349383,0.538696 -0.46905,0.788804 0,0.127748 0.0342457,0.100043 -0.0861913,0.100043 -0.105046,0.167765 -0.514839,0.915013 -0.554472,1.09047l-0.0804196 0.0885 0.00153913 0.0700304 -0.0808043 0.07965c-0.0804196,0.344765 -0.235872,0.448272 -0.3186,0.793807 0,0.1239 0.0346304,0.0988891 -0.0781109,0.0988891l-0.0858065 0.297822 -0.0731087 0.0734935c-0.0881152,0.392478 -0.245876,0.578328 -0.304363,0.958493l-0.0923478 0.143909 -0.00384783 0.0942717 -0.0754174 0.0961957c-0.0480978,0.523304 -0.370161,1.02198 -0.405176,1.57068l-0.0711848 0.0696457 0.012313 0.2478 -0.0915783 0.145833 0.00885 0.171613c0,0.135059 0.0369391,0.10697 -0.0881152,0.10697 0,0.696457 -0.335146,1.3375 -0.310904,2.11553 -0.00115435,0.0808043 0.00461739,0.15122 -0.0100043,0.231254 -0.04425,0.245491 -0.0111587,0.0631043 -0.0758022,0.160839l0.00885 0.242798c-0.00115435,0.0804196 0.00384783,0.153143 -0.0111587,0.232409 -0.0504065,0.273965 -0.00615652,0.0561783 -0.0769565,0.165072l0.00423261 0.475591c0.00115435,0.127363 0.00307826,0.112357 -0.021163,0.233948 -0.00346304,0.0173152 -0.0246261,0.0754174 -0.0280891,0.0646435 -0.00307826,-0.0103891 -0.023087,0.0404022 -0.0346304,0.0607957l0 4.28917c0.058487,0.101967 0.00577174,-0.0765717 0.0800348,0.192007 0.00769565,0.0284739 0.00538696,0.11428 0.00538696,0.160454l-0.00577174 0.559474c0.083113,0.0985043 0.0350152,-0.0100043 0.07965,0.161224 0.012313,0.0473283 0.00808043,0.178539 0.00846522,0.231639l-0.00885 0.298591c0.0415565,0.0684913 0.0457891,0.0396326 0.0792652,0.179693 0.0115435,0.0488674 0.00615652,0.181617 0.0065413,0.236257 -0.0280891,0.897698 0.310904,1.66342 0.310904,2.49224 0.13352,0 0.0885,-0.0277043 0.0885,0.126978l-0.00923478 0.256265 0.0723391 0.14083c0.0261652,0.76918 0.389015,1.40253 0.404022,2.06243l0.0765717 0.0804196 0.00269348 0.214709 0.0746478 0.102737 0.00461739 0.175846 0.0754174 0.141985c0.0146217,0.349383 0.101198,0.466357 0.191622,0.764563 0.0854217,0.282046 0.143524,0.54947 0.208937,0.811122 0.117743,0 0.0873457,-0.0288587 0.0873457,0.0911935l-0.00769565 0.138907c0.112741,0 0.0781109,-0.0250109 0.0781109,0.0992739 0.0457891,0.514839 0.356693,0.918476 0.397865,1.43755l0.0738783 0.0704152 0.00538696 0.128517c0.118898,0 0.0804196,-0.0253957 0.0804196,0.109663 0.0988891,0.435189 0.29128,0.734935 0.395941,1.19437l0.0792652 0.0754174 0 0.0842674 0.0754174 0.0746478 0.00384783 0.130057c0.120437,0 0.0827283,-0.0261652 0.0827283,0.108124 0.0573326,0.269348 0.164687,0.409024 0.234717,0.720313l0.0738783 0.0734935 0.0846522 0.302054 0.0700304 0.0946565c0.076187,0.261652 0.158146,0.367083 0.274735,0.607957l0.845752 1.85119 0.0827283 0.0808043c0.0519457,0.245107 0.34438,0.694148 0.472128,0.953107 0.332452,0.674524 0.743785,1.31018 1.08663,1.92968l0.580252 0.926172 0.0819587 0.0808043c0.194315,0.380935 0.467126,0.75302 0.723776,1.09894 0.144678,0.195085 0.250878,0.378626 0.384783,0.567554 0.139291,0.196239 0.260883,0.349383 0.396711,0.561398l0.074263 0.0738783c0.18585,0.261652 0.332837,0.465202 0.527922,0.746863 0.196624,0.284354 0.404791,0.488289 0.587948,0.760715l0.07965 0.0800348 0.15853 0.241259 0.0777261 0.076187 0.23972 0.323602 0.0727239 0.0731087 0.859989 1.05123c0.56563,0.641817 2.28715,2.29908 3.03478,2.67616l0.0827283 0.0827283c0.268963,0.18508 0.842289,0.557935 1.18705,0.632198l0.0819587 0.0823435c0.170843,0.0834978 0.486365,0.219711 0.711463,0.235872 0.11582,0 0.0888848,-0.0303978 0.0888848,0.0815739 0.175076,0.0430957 0.174691,0.0623348 0.387091,0.074263 0.126978,0 0.0996587,-0.0342457 0.0996587,0.0842674 0.243183,0.00615652 0.463663,0.0704152 0.736474,0.116204 0.300515,0.0500217 0.50522,0.0446348 0.829976,0.0430957 0.651822,-0.00307826 1.10702,-0.07965 1.6588,-0.07965 0,-0.115435 -0.0284739,-0.0861913 0.0873457,-0.0861913l0.403637 0.0065413 0.0723391 -0.0842674 0.172383 0.00500217 0.145063 -0.085037 0.130826 0.00577174c0.0815739,-0.103891 -0.139676,-0.0838826 0.18662,-0.0823435 0.374009,-0.0253957 0.741476,-0.228176 1.10971,-0.314752l0.0808043 -0.07965 0.0858065 0.000384783 0.151989 -0.0888848 0.0542543 0.00961957c0,-0.12313 -0.0280891,-0.0869609 0.104661,-0.0869609 0.378626,-0.0165457 0.36362,-0.146602 0.705307,-0.230485 0,-0.117743 -0.0292435,-0.0881152 0.0881152,-0.0881152 0.516763,-0.0935022 1.072,-0.488289 1.66726,-0.626426l0.0784957 -0.0842674 0.0842674 0.00500217 0.0746478 -0.0738783c0.429802,-0.0488674 0.9558,-0.297822 1.44178,-0.402483l0.145063 -0.0977348 0.252033 0.0184696 0.065413 -0.0773413c0.419028,-0.00423261 0.937715,-0.127748 1.39214,-0.197009 0.417104,-0.0638739 2.68309,-0.076187 3.10019,-0.0126978 0.451735,0.0688761 0.932328,0.205474 1.37983,0.209322l0.15122 0.0777261 0.166226 0.00153913c0.138522,0 0.11428,-0.040787 0.11428,0.0777261 0.521765,0.0534848 0.992739,0.366698 1.3933,0.394017l0.0834978 0.0823435 0.0750326 -0.0157761 0.127748 0.0950413c0.204704,0.0800348 0.414026,0.150835 0.599491,0.225867 0.249339,0.101583 0.37093,0.188543 0.621809,0.25665l0.0885 0.0731087c0.37247,0.091963 0.746863,0.373239 1.10202,0.39017 0.125054,0 0.0969652,-0.0330913 0.0969652,0.0861913l0.0615652 0.00346304 0.0711848 0.0758022c0.452504,0.100428 0.973885,0.390939 1.43639,0.393633l0.165072 0.0827283 0.152374 -0.0065413 0.142754 0.0858065 0.254341 -0.00346304 0.143524 0.0827283 0.490983 -0.00346304 0.0811891 0.083113 1.97163 0c0,-0.117743 -0.0288587,-0.0877304 0.0900391,-0.0877304l0.430957 0.00808043 0.20355 -0.0842674 0.137752 0.00500217c0.0769565,-0.107739 -0.133904,-0.0858065 0.179693,-0.085037 0.505989,0.00307826 1.04199,-0.362465 1.50912,-0.470589l0.0781109 -0.0704152 0.0415565 -0.00885c0,-0.127748 -0.0273196,-0.0865761 0.116974,-0.0865761 0.212015,-0.0473283 0.439422,-0.207398 0.637585,-0.31052l0.0765717 -0.0758022 0.162378 -0.0827283 0.0758022 -0.0715696c0.352846,-0.208167 0.976193,-0.664135 1.28902,-0.941178l0.786111 -0.721852c0.130057,-0.150065 0.0203935,-0.0554087 0.185465,-0.211246 0.418643,-0.394787 0.854217,-0.92925 1.24977,-1.36944 0.133904,-0.148911 0.212785,-0.276659 0.343226,-0.450196 0.486365,-0.647589 1.57645,-2.03281 1.947,-2.66423l0.0715696 -0.0754174c0.350537,-0.53985 0.823435,-1.10279 1.10663,-1.67073l0.0834978 -0.0846522 0.0819587 -0.153528 0.0769565 -0.0777261c0.126593,-0.242798 0.219326,-0.349767 0.364004,-0.589872 0.14968,-0.24857 0.226252,-0.409024 0.375163,-0.656824 0.175461,-0.29205 0.604493,-1.00467 0.697996,-1.29479l0.0704152 -0.0708 -0.00423261 -0.0881152c0,-0.112741 -0.0284739,-0.0846522 0.0834978,-0.0846522 0.141985,-0.25742 0.412487,-0.731472 0.46982,-1.0266 0,-0.114665 -0.0288587,-0.0861913 0.0858065,-0.0861913 0.129287,-0.232024 0.33553,-0.590257 0.392093,-0.866146l0.0838826 -0.0819587 -0.00731087 -0.0769565 0.0865761 -0.136598c0.103122,-0.226637 0.178539,-0.435189 0.290511,-0.684143 0.0965804,-0.215093 0.216248,-0.474052 0.262422,-0.687222 0,-0.117743 -0.0307826,-0.0908087 0.0819587,-0.0908087 0.110048,-0.439807 0.303593,-0.759176 0.394017,-1.17936l0.0819587 -0.0354c0.0923478,-0.501372 0.369776,-1.01044 0.360157,-1.23823 -0.00769565,-0.185465 0.0261652,-0.0434804 -0.0427109,-0.146217 -0.131596,0 -0.103122,0.0354 -0.103122,-0.0881152l-0.134674 0.00500217 -0.083113 -0.0846522c-0.119283,-0.0588717 -0.200087,-0.0750326 -0.333607,-0.138522 -0.252033,-0.119667 -0.112741,-0.108509 -0.377087,-0.178539 -0.119283,0 -0.0935022,0.0323217 -0.0935022,-0.07965 -0.303978,-0.180463 -0.57602,-0.316676 -0.890772,-0.523304 -0.177385,-0.116589 -0.280507,-0.172383 -0.439422,-0.27512 -0.214709,-0.138137 -0.219711,-0.181233 -0.480593,-0.306287 -0.117359,0 -0.0861913,0.0284739 -0.0861913,-0.0923478l-0.065413 -0.0731087c-0.672215,-0.42557 -1.32481,-1.04045 -1.89159,-1.60724 -0.315137,-0.315137 -0.568709,-0.537926 -0.848061,-0.898083 -0.278967,-0.359002 -0.50445,-0.624117 -0.758791,-0.979272 -0.116204,0 -0.0869609,0.0292435 -0.0869609,-0.0873457 -0.3717,-0.611804 -1.33019,-1.98317 -1.50027,-2.69425l-0.0842674 -0.0838826c-0.0427109,-0.204704 -0.014237,-0.0896543 -0.074263,-0.275504 -0.127748,0 -0.085037,0.02655 -0.085037,-0.121207 -0.0534848,-0.267039 -0.105046,-0.342841 -0.199702,-0.588333 -0.0923478,-0.23895 -0.135828,-0.442885 -0.191622,-0.680296l-0.0781109 -0.0808043 -0.00115435 -0.14968 -0.0727239 -0.167765c-0.0200087,-0.360157 -0.111587,-0.482902 -0.18662,-0.851909 -0.0588717,-0.290896 -0.137367,-0.582946 -0.137367,-0.98235l-0.0908087 -0.150065 0.0115435 -0.418643c-0.116589,-0.146987 -0.0746478,-0.13352 -0.076187,-0.375163l-0.00346304 -0.461354c-0.00961957,-0.0177 -0.0242413,-0.0400174 -0.0288587,-0.0538696 -0.00423261,-0.0138522 -0.0200087,-0.0392478 -0.0242413,-0.0573326 -0.0434804,-0.169689 -0.0869609,-1.77808 0.0531,-1.86427l0.00346304 -0.500217c0.00538696,-0.289741 -0.0219326,-0.155452 0.076187,-0.308596l-0.012313 -0.405946 0.0915783 -0.161993c0,-0.322448 0.0923478,-0.762254 0.156607,-1.03045 0.0800348,-0.332452 0.226637,-0.674139 0.24703,-1.03006l0.0723391 -0.07965 0.00192391 -0.158146 0.0773413 -0.0777261c0.114665,-0.495985 0.389015,-0.934637 0.46982,-1.35136 0,-0.126209 -0.0334761,-0.0981196 0.0858065,-0.0981196 0.168535,-0.641048 1.13588,-2.14132 1.51104,-2.68001l0.076187 -0.0958109c0.110433,-0.143139 0.304363,-0.39902 0.385552,-0.53908 0,-0.120052 -0.030013,-0.0896543 0.0904239,-0.0896543l0.232024 -0.307057c0,-0.113511 -0.0280891,-0.085037 0.0854217,-0.085037 0.235102,-0.33553 1.74076,-1.85157 2.07205,-2.0582l0.0704152 -0.0708c0.214324,-0.15853 0.420183,-0.340917 0.634507,-0.484826l0.07965 -0.07965 1.11087 -0.793422c-0.0881152,-0.330913 -0.689915,-1.01198 -0.927711,-1.29479 -0.85768,-1.02083 -2.42067,-2.52879 -3.59541,-3.15022l-0.0781109 -0.07965c-0.260498,-0.136598 -0.442115,-0.258574 -0.715311,-0.390554 -0.147372,0 -0.120437,0.0427109 -0.120437,-0.0854217l-0.99043 -0.474437c-0.143524,0 -0.117743,0.0419413 -0.117743,-0.0811891l-0.0411717 0.00500217c-0.129287,0 -0.101967,0.0354 -0.101967,-0.0846522 -0.476361,-0.128517 -0.991585,-0.408254 -1.53336,-0.586793 -0.363235,-0.119667 -1.34674,-0.437113 -1.69728,-0.445193 -0.357078,-0.00153913 -0.163533,-0.00961957 -0.243183,-0.0792652l-0.153528 -0.000769565c-0.130441,0 -0.10543,0.0369391 -0.10543,-0.0784957l-0.37093 0.00192391 -0.0873457 -0.0811891c-0.502526,0 -0.950028,-0.134674 -1.42177,-0.157376 -0.577943,-0.0280891 -0.969652,-0.0823435 -1.5853,-0.0811891 -1.68073,0.00384783 -2.56419,0.238565 -3.02131,0.238565z"/>
     <path id="_581045824" fill="#9E9D9D" d="M101.538 16.9158c-0.639124,-0.00115435 -1.1101,0.269733 -1.66072,0.317061 0,0.11582 0.0292435,0.0873457 -0.085037,0.0873457l-0.134674 -0.00808043c0,0.121207 0.0273196,0.0854217 -0.103507,0.0854217 -0.454428,0.0238565 -0.987352,0.370161 -1.43485,0.470204l-0.0727239 0.0777261 -0.0569478 0.00192391c0,0.121207 0.0277043,0.0861913 -0.101967,0.0861913 -0.302054,0.0581022 -0.762639,0.32745 -1.03199,0.469435l-0.0788804 0.0723391c-0.16815,0.0523304 -0.61873,0.30975 -0.784572,0.403637 0,0.113896 0.0277043,0.0842674 -0.0881152,0.0842674 -0.454813,0.224713 -0.909626,0.579098 -1.32673,0.890772 -0.239335,0.178924 -0.385167,0.30013 -0.624117,0.487135 -0.248954,0.195085 -0.348613,0.363235 -0.591411,0.522535l-0.0827283 0.0731087 -0.0731087 0.0758022 -0.564091 0.565246 -0.0750326 0.0723391 -0.0827283 0.0808043 -0.0631043 0.0781109c0,0.125824 0.0330913,0.09735 -0.0881152,0.09735 -0.123515,0.16815 -0.217017,0.233948 -0.363235,0.419028 -0.160454,0.203935 -0.229715,0.282046 -0.385552,0.48752 -0.220865,0.290896 -0.53023,0.691454 -0.67337,0.987352 0,0.115435 0.0288587,0.0869609 -0.0854217,0.0869609l-0.0888848 0.15122 -0.0696457 0.0688761c-0.233178,0.475207 -0.51253,0.875765 -0.767641,1.38599 -0.177385,0.35477 -0.586793,1.20552 -0.652976,1.56145 0,0.121976 0.0315522,0.0935022 -0.0873457,0.0935022l0.0023087 0.144678 -0.0815739 0.0811891c-0.0827283,0.350537 -0.288972,0.833054 -0.315907,1.18898l-0.0808043 0.185465 0.00384783 0.13198 -0.083113 0.146602 0.0023087 0.170843c0,0.146217 0.0430957,0.120822 -0.0815739,0.120822l-0.00846522 0.355539 -0.0711848 0.0704152c0,0.554472 -0.144678,1.13395 -0.161224,1.67303l0.0819587 1.74884c0.72493,0 1.55568,0.0361696 2.15517,-0.0669522 0.683374,-0.117359 1.19321,-0.263576 1.81002,-0.409409l0.161224 -0.0858065 0.0480978 0.0065413c0,-0.122746 -0.02655,-0.0838826 0.110433,-0.0838826 0.360926,-0.021163 1.2844,-0.47867 1.58723,-0.630274 0.246261,-0.123515 0.488289,-0.227407 0.730317,-0.38055 0.278967,-0.176615 0.404022,-0.260498 0.702613,-0.413257l0.0746478 -0.0754174c0.276659,-0.194315 0.528307,-0.360157 0.793807,-0.559474 0.125824,-0.0946565 0.280891,-0.201626 0.408254,-0.305902 0.165457,-0.135059 0.208552,-0.210861 0.385167,-0.329374l0.0792652 -0.0788804c0.447887,-0.30167 1.40677,-1.39176 1.78039,-1.87081 0.550624,-0.706076 1.05084,-1.38445 1.47372,-2.17787l0.0788804 -0.0923478c0.179309,-0.306287 0.32822,-0.644896 0.502911,-0.99197 0.137752,-0.272811 0.37978,-0.780724 0.455967,-1.05892l0.0723391 -0.100043 0.00538696 -0.137752 0.074263 -0.0723391 0.00923478 -0.165841 0.0700304 -0.0704152c0.0877304,-0.396711 0.273196,-0.713387 0.326296,-1.12049l0.0704152 -0.170843 -0.00923478 -0.146602 0.0885 -0.15045 -0.00769565 -0.166996c0,-0.144678 -0.0411717,-0.116974 0.0873457,-0.116974 0,-0.342072 0.104276,-0.668367 0.159685,-0.993124 0.0527152,-0.309365 0.0988891,-0.773028 0.136213,-1.0543 0.100043,-0.759176 0.00500217,-1.68804 -0.0581022,-2.33178l-0.555241 -0.0253957 -0.298591 -0.00269348c-0.0842674,0.0484826 0.0523304,0.0111587 -0.179309,0.0738783 -0.0223174,0.00577174 -0.115435,0.00577174 -0.156991,0.00577174z"/>
     <path id="_581046760" fill="#4F4F4F" d="M108.044 55.5865l0 -1.97547c-0.140061,0.0861913 -0.0965804,1.69458 -0.0531,1.86427 0.00423261,0.0180848 0.0200087,0.0434804 0.0242413,0.0573326 0.00461739,0.0138522 0.0192391,0.0361696 0.0288587,0.0538696z"/>
     <path id="_581053912" fill="#4F4F4F" d="M89.4708 37.2358l-1.0316 0c0.200857,0.115435 0.836902,0.118898 1.0316,0z"/>
     <path id="_581043856" fill="#4F4F4F" d="M102.728 16.8643c-0.0946565,-0.153913 0.164302,-0.0854217 -0.240489,-0.118513 -0.315907,-0.0257804 -0.269733,0.0631043 -0.314752,0.0931174l0.555241 0.0253957z"/>
     <path id="_581052184" fill="#4F4F4F" d="M59.5601 52.4763c0.0708,-0.108893 0.02655,0.108893 0.0769565,-0.165072 0.0150065,-0.0792652 0.0100043,-0.151989 0.0111587,-0.232409 -0.1239,0.0935022 -0.0488674,-0.0192391 -0.0819587,0.164687 -0.0115435,0.0661826 -0.00615652,0.164302 -0.00615652,0.232793z"/>
     <path id="_581050696" fill="#3B3B3B" d="M59.4805 53.3112c0.0115435,-0.0203935 0.0315522,-0.0711848 0.0346304,-0.0607957 0.00346304,0.0107739 0.0246261,-0.0473283 0.0280891,-0.0646435 0.0242413,-0.121591 0.0223174,-0.106585 0.021163,-0.233948 -0.143909,0 -0.0838826,0.192776 -0.0838826,0.359387z"/>
     <path id="_581049136" fill="#5F5F5F" d="M59.7252 59.6198c-0.000384783,-0.0546391 0.00500217,-0.187389 -0.0065413,-0.236257 -0.0334761,-0.140061 -0.0377087,-0.111202 -0.0792652,-0.179693 0,0.0507913 -0.00538696,0.202011 0.00615652,0.249724 0.0434804,0.178924 -0.00461739,0.0631043 0.07965,0.166226z"/>
     <path id="_581042128" fill="#4F4F4F" d="M59.6482 58.9052c-0.000384783,-0.0531 0.00384783,-0.184311 -0.00846522,-0.231639 -0.0446348,-0.171228 0.00346304,-0.0627196 -0.07965,-0.161224 0,0.0511761 -0.00538696,0.184311 0.00615652,0.228561 0.0469435,0.179693 -0.00731087,0.0581022 0.0819587,0.164302z"/>
     <path id="_581052088" fill="#5F5F5F" d="M59.6394 51.836c0.0646435,-0.0977348 0.0315522,0.0846522 0.0758022,-0.160839 0.0146217,-0.0800348 0.00885,-0.15045 0.0100043,-0.231254 -0.0657978,0.0954261 -0.0484826,-0.0115435 -0.07965,0.164302 -0.0115435,0.0650283 -0.00615652,0.16007 -0.00615652,0.227791z"/>
     <path id="_581045296" fill="#3B3B3B" d="M59.5659 57.9529c0,-0.0461739 0.0023087,-0.13198 -0.00538696,-0.160454 -0.074263,-0.268578 -0.0215478,-0.0900391 -0.0800348,-0.192007 0,0.281661 -0.0569478,0.241643 0.0854217,0.352461z"/>
     <path id="_581050144" fill="#3B3B3B" d="M108.124 56.423c0,-0.0527152 0.00500217,-0.166996 -0.00577174,-0.2124 -0.0330913,-0.141215 -0.0261652,-0.0900391 -0.0704152,-0.162763 0.00153913,0.241643 -0.0404022,0.228176 0.076187,0.375163z"/>
     <path id="_581050408" fill="#5F5F5F" d="M101.874 16.8362c-0.264346,0 -0.225483,-0.0538696 -0.3363,0.07965 0.0415565,0 0.134674,0 0.156991,-0.00577174 0.231639,-0.0627196 0.0950413,-0.0253957 0.179309,-0.0738783z"/>
     <path id="_581040424" fill="#4F4F4F" d="M105.743 34.4573c-0.083113,-0.0769565 0.125824,-0.0792652 -0.243183,-0.0792652 0.07965,0.0696457 -0.113896,0.0777261 0.243183,0.0792652z"/>
     <path id="_581044480" fill="#3B3B3B" d="M75.3424 34.2988c-0.380165,0 -0.136598,-0.0065413 -0.22933,0.0788804 0.318985,-0.00885 0.1593,-0.0126978 0.22933,-0.0788804z"/>
     <path id="_581054008" fill="#5F5F5F" d="M80.747 87.7158c-0.326296,-0.00153913 -0.105046,-0.0215478 -0.18662,0.0823435 0.305517,0 0.12467,0.0234717 0.18662,-0.0823435z"/>
     <path id="_581046496" fill="#4F4F4F" d="M103.442 87.7924c-0.313598,-0.000769565 -0.102737,-0.0227022 -0.179693,0.085037 0.298591,0 0.117743,0.0246261 0.179693,-0.085037z"/>
     <path id="_581046160" fill="#3B3B3B" d="M108.048 53.1108c0.0100043,-0.0157761 0.0284739,-0.0569478 0.0307826,-0.0469435 0.0023087,0.0103891 0.0223174,-0.0404022 0.0250109,-0.0527152 0.021163,-0.101198 0.0203935,-0.103122 0.0203935,-0.208937 -0.0981196,0.153143 -0.0708,0.0188543 -0.076187,0.308596z"/>
     <path id="_581054872" fill="#3B3B3B" d="M60.1246 62.239c0,-0.154683 0.0450196,-0.126978 -0.0885,-0.126978 0,0.154683 -0.0450196,0.126978 0.0885,0.126978z"/>
     <path id="_581052616" fill="#5F5F5F" d="M110.346 36.21c0,-0.128133 0.0269348,-0.0854217 -0.120437,-0.0854217 0,0.128133 -0.0269348,0.0854217 0.120437,0.0854217z"/>
     <path id="_581047480" fill="#5F5F5F" d="M109.156 60.614c0,-0.147757 0.0427109,-0.121207 -0.085037,-0.121207 0,0.147757 -0.0427109,0.121207 0.085037,0.121207z"/>
     <path id="_581051920" fill="#3B3B3B" d="M102.49 21.2435c-0.128517,0 -0.0873457,-0.0277043 -0.0873457,0.116974 0.128133,0 0.0873457,0.0277043 0.0873457,-0.116974z"/>
     <path id="_581044960" fill="#5F5F5F" d="M105.188 87.156c-0.144293,0 -0.116974,-0.0411717 -0.116974,0.0865761 0.144293,0 0.116974,0.0411717 0.116974,-0.0865761z"/>
     <path id="_581046928" fill="#3B3B3B" d="M88.6054 29.2981c-0.12467,0 -0.0815739,-0.0257804 -0.0815739,0.120822 0.12467,0 0.0815739,0.0253957 0.0815739,-0.120822z"/>
     <path id="_581054560" fill="#5F5F5F" d="M109.235 35.6501c0,-0.12313 0.0253957,-0.0811891 -0.117743,-0.0811891 0,0.12313 -0.0257804,0.0811891 0.117743,0.0811891z"/>
     <path id="_581045464" fill="#3B3B3B" d="M60.1242 49.2214c-0.125054,0 -0.0881152,-0.0280891 -0.0881152,0.10697 0.125054,0 0.0881152,0.0280891 0.0881152,-0.10697z"/>
     <path id="_581055040" fill="#5F5F5F" d="M92.6499 32.6273c-0.136983,0 -0.110433,-0.038863 -0.110433,0.0838826 0.137367,0 0.110433,0.038863 0.110433,-0.0838826z"/>
     <path id="_581039824" fill="#5F5F5F" d="M82.3342 87.1556c-0.13275,0 -0.104661,-0.0361696 -0.104661,0.0869609 0.13275,0 0.104661,0.0361696 0.104661,-0.0869609z"/>
     <path id="_581043280" fill="#4F4F4F" d="M117.487 69.0742c0,-0.1239 0.0284739,-0.0881152 -0.103122,-0.0881152 0,0.123515 -0.0284739,0.0881152 0.103122,0.0881152z"/>
     <path id="_581051008" fill="#3B3B3B" d="M93.2405 85.6549c0,-0.118513 0.0242413,-0.0777261 -0.11428,-0.0777261 0,0.118513 -0.0242413,0.0777261 0.11428,0.0777261z"/>
     <path id="_581048848" fill="#5F5F5F" d="M62.5787 70.7323c0,-0.134289 0.0377087,-0.108124 -0.0827283,-0.108124 0,0.134289 -0.0377087,0.108124 0.0827283,0.108124z"/>
     <path id="_581049280" fill="#4F4F4F" d="M96.1706 34.9336c-0.134289,0 -0.108509,-0.0380935 -0.108509,0.0823435 0.134674,0 0.108509,0.0377087 0.108509,-0.0823435z"/>
     <path id="_581052568" fill="#4F4F4F" d="M61.9415 69.0654c0,-0.135059 0.0384783,-0.109663 -0.0804196,-0.109663 0,0.135059 -0.0384783,0.109663 0.0804196,0.109663z"/>
     <path id="_581050000" fill="#4F4F4F" d="M99.6572 17.3121c-0.130826,0 -0.103507,-0.0357848 -0.103507,0.0854217 0.130826,0 0.103507,0.0357848 0.103507,-0.0854217z"/>
     <path id="_581053552" fill="#5F5F5F" d="M97.9891 17.9474c-0.129672,0 -0.101967,-0.0350152 -0.101967,0.0861913 0.129672,0 0.101967,0.0350152 0.101967,-0.0861913z"/>
     <path id="_581052520" fill="#4F4F4F" d="M109.076 35.5739c0,-0.119667 0.0273196,-0.0846522 -0.101967,-0.0846522 0,0.120052 -0.0273196,0.0846522 0.101967,0.0846522z"/>
     <path id="_581042944" fill="#4F4F4F" d="M62.5029 43.0302c-0.120437,0 -0.0861913,-0.0280891 -0.0861913,0.100043 0.120437,0 0.0861913,0.0277043 0.0861913,-0.100043z"/>
     <path id="_581044408" fill="#3B3B3B" d="M98.3931 34.2988c-0.13352,0 -0.109278,-0.0384783 -0.109278,0.0781109 0.133904,0 0.109278,0.0384783 0.109278,-0.0781109z"/>
     <path id="_581049064" fill="#3B3B3B" d="M109.314 48.4087c-0.119283,0 -0.0858065,-0.0280891 -0.0858065,0.0981196 0.119667,0 0.0858065,0.0280891 0.0858065,-0.0981196z"/>
     <path id="_581044864" fill="#3B3B3B" d="M76.3236 87.9567c0,-0.118513 0.0273196,-0.0842674 -0.0996587,-0.0842674 0,0.118513 -0.0273196,0.0842674 0.0996587,0.0842674z"/>
     <path id="_581052808" fill="#5F5F5F" d="M97.4289 87.2425c0,-0.119283 0.0280891,-0.0861913 -0.0969652,-0.0861913 0,0.119283 -0.0280891,0.0861913 0.0969652,0.0861913z"/>
     <path id="_581043016" fill="#3B3B3B" d="M105.347 34.3772c0,-0.115435 0.0246261,-0.0784957 -0.10543,-0.0784957 0,0.115435 -0.0250109,0.0784957 0.10543,0.0784957z"/>
     <path id="_581042680" fill="#4F4F4F" d="M81.7786 35.0152c0,-0.116589 0.0261652,-0.0815739 -0.101583,-0.0815739 0,0.116589 -0.0257804,0.0815739 0.101583,0.0815739z"/>
     <path id="_581043976" fill="#5F5F5F" d="M92.4205 21.9091c-0.118128,0.00923478 -0.0881152,-0.0223174 -0.0881152,0.09735 0.121207,0 0.0881152,0.0284739 0.0881152,-0.09735z"/>
     <path id="_581042896" fill="#4F4F4F" d="M89.2457 27.1549c-0.118898,0 -0.0873457,-0.0284739 -0.0873457,0.0935022 0.118898,0 0.0873457,0.0284739 0.0873457,-0.0935022z"/>
     <path id="_581043712" fill="#4F4F4F" d="M111.377 45.0042c-0.120437,0 -0.0904239,-0.0303978 -0.0904239,0.0896543 0.120437,0 0.0904239,0.0303978 0.0904239,-0.0896543z"/>
     <path id="_581051248" fill="#4F4F4F" d="M61.3136 67.0811c0,-0.120052 0.0303978,-0.0911935 -0.0873457,-0.0911935 0,0.119667 -0.0303978,0.0911935 0.0873457,0.0911935z"/>
     <path id="_581050672" fill="#4F4F4F" d="M102.49 87.9486c-0.118898,0 -0.0900391,-0.030013 -0.0900391,0.0877304 0.118898,0 0.0900391,0.030013 0.0900391,-0.0877304z"/>
     <path id="_581052952" fill="#4F4F4F" d="M61.384 67.3193c0,-0.124285 0.0346304,-0.0992739 -0.0781109,-0.0992739 0,0.124285 -0.0346304,0.0992739 0.0781109,0.0992739z"/>
     <path id="_581051224" fill="#4F4F4F" d="M61.384 45.2527c-0.112741,0 -0.0781109,-0.0250109 -0.0781109,0.0988891 0.112741,0 0.0781109,0.0250109 0.0781109,-0.0988891z"/>
     <path id="_581043760" fill="#4F4F4F" d="M81.5408 34.9421c0,-0.117359 0.0288587,-0.0877304 -0.0885,-0.0877304 0,0.117359 -0.0292435,0.0877304 0.0885,0.0877304z"/>
     <path id="_581054200" fill="#4F4F4F" d="M83.1277 86.837c-0.117359,0 -0.0881152,-0.0296283 -0.0881152,0.0881152 0.117359,0 0.0881152,0.0292435 0.0881152,-0.0881152z"/>
     <path id="_581050792" fill="#4F4F4F" d="M94.5665 35.4893c-0.118898,0 -0.0911935,-0.0307826 -0.0911935,0.0846522 0.118898,0 0.0911935,0.0307826 0.0911935,-0.0846522z"/>
     <path id="_581054056" fill="#5F5F5F" d="M110.901 63.755c0,-0.116204 0.0288587,-0.0873457 -0.0869609,-0.0873457 0,0.116589 -0.0292435,0.0873457 0.0869609,0.0873457z"/>
     <path id="_581042464" fill="#5F5F5F" d="M68.2989 36.918c-0.117359,0 -0.0896543,-0.030013 -0.0896543,0.0846522 0.117359,0 0.0896543,0.030013 0.0896543,-0.0846522z"/>
     <path id="_581043184" fill="#5F5F5F" d="M79.6361 87.9501c-0.11582,0 -0.0873457,-0.0292435 -0.0873457,0.0861913 0.116204,0 0.0873457,0.0292435 0.0873457,-0.0861913z"/>
     <path id="_581047456" fill="#5F5F5F" d="M116.456 68.5894c0,-0.111972 0.0261652,-0.07965 -0.0935022,-0.07965 0,0.111972 -0.0257804,0.07965 0.0935022,0.07965z"/>
     <path id="_581051824" fill="#4F4F4F" d="M83.3658 35.5739c0,-0.11428 0.0277043,-0.0846522 -0.0888848,-0.0846522 0,0.11428 -0.0277043,0.0846522 0.0888848,0.0846522z"/>
     <path id="_581051584" fill="#3B3B3B" d="M116.694 71.6735c-0.112741,0 -0.0819587,-0.0269348 -0.0819587,0.0908087 0.112741,0 0.0819587,0.02655 0.0819587,-0.0908087z"/>
     <path id="_581043784" fill="#4F4F4F" d="M99.8769 17.2329c-0.11428,0 -0.085037,-0.0280891 -0.085037,0.0873457 0.11428,0 0.085037,0.0284739 0.085037,-0.0873457z"/>
     <path id="_581049352" fill="#5F5F5F" d="M95.9917 18.979c-0.11582,0 -0.0881152,-0.0296283 -0.0881152,0.0842674 0.11582,0 0.0881152,0.0296283 0.0881152,-0.0842674z"/>
     <path id="_581050048" fill="#4F4F4F" d="M90.9103 23.9004c-0.11428,0 -0.0854217,-0.0284739 -0.0854217,0.0869609 0.11428,0 0.0854217,0.0284739 0.0854217,-0.0869609z"/>
     <path id="_581051368" fill="#5F5F5F" d="M115.504 74.2973c-0.114665,0 -0.0858065,-0.0284739 -0.0858065,0.0861913 0.11428,0 0.0858065,0.0284739 0.0858065,-0.0861913z"/>
     <path id="_581047576" fill="#5F5F5F" d="M96.6231 34.7751c-0.113896,0 -0.085037,-0.0284739 -0.085037,0.0865761 0.113896,0 0.085037,0.0280891 0.085037,-0.0865761z"/>
     <path id="_581052352" fill="#4F4F4F" d="M68.0573 37.0769c-0.113896,0 -0.0858065,-0.0284739 -0.0858065,0.0846522 0.113896,0 0.0858065,0.0288587 0.0858065,-0.0846522z"/>
     <path id="_581048824" fill="#5F5F5F" d="M75.8368 87.7982c0,-0.111972 0.0269348,-0.0815739 -0.0888848,-0.0815739 0,0.111587 -0.02655,0.0815739 0.0888848,0.0815739z"/>
     <path id="_581046184" fill="#4F4F4F" d="M87.73 37.1619c0,-0.113511 0.0284739,-0.085037 -0.085037,-0.085037 0,0.113511 -0.0280891,0.085037 0.085037,0.085037z"/>
     <path id="_581054800" fill="#5F5F5F" d="M111.695 44.6121c-0.113511,0 -0.0854217,-0.0284739 -0.0854217,0.085037 0.113511,0 0.0854217,0.0284739 0.0854217,-0.085037z"/>
     <path id="_581053960" fill="#5F5F5F" d="M63.0574 42.1568c-0.113511,0 -0.0854217,-0.0284739 -0.0854217,0.0846522 0.113511,0 0.0854217,0.0284739 0.0854217,-0.0846522z"/>
     <path id="_581044648" fill="#4F4F4F" d="M91.9407 36.5213c-0.112357,0 -0.0842674,-0.0280891 -0.0842674,0.0842674 0.112741,0 0.0842674,0.0280891 0.0842674,-0.0842674z"/>
     <path id="_581045080" fill="#5F5F5F" d="M114.948 75.4101c-0.111972,0 -0.0834978,-0.0280891 -0.0834978,0.0846522 0.111972,0 0.0834978,0.0277043 0.0834978,-0.0846522z"/>
     <path id="_581050120" fill="#4F4F4F" d="M74.8537 34.378c-0.378626,0 -0.117359,-0.0126978 -0.216633,0.0788804l0.216633 -0.0788804z"/>
     <path id="_581046376" fill="#3B3B3B" d="M103.124 87.8724l-0.20355 0.0842674c0.37093,0 0.0988891,0.0188543 0.20355,-0.0842674z"/>
     <path id="_581048752" fill="#3B3B3B" d="M79.3187 34.3769c-0.100813,-0.091963 0.163533,-0.0781109 -0.210861,-0.0781109l0.210861 0.0781109z"/>
     <path id="_581054512" fill="#4F4F4F" d="M79.7154 34.4557c-0.06195,-0.100043 0.122361,-0.0777261 -0.192391,-0.0777261l0.192391 0.0777261z"/>
     <path id="_581051848" fill="#5F5F5F" d="M88.6824 28.8487l0.0808043 -0.185465c-0.104276,0.06195 -0.0808043,-0.121976 -0.0808043,0.185465z"/>
     <path id="_581045632" fill="#3B3B3B" d="M108.112 52.3962c0.117359,-0.0615652 0.0915783,0.116204 0.0915783,-0.161993l-0.0915783 0.161993z"/>
     <path id="_581040376" fill="#3B3B3B" d="M75.983 34.2195c-0.269348,0 -0.0942717,-0.0261652 -0.155837,0.093887l0.155837 -0.093887z"/>
     <path id="_581043112" fill="#4F4F4F" d="M86.6192 85.5572l-0.145063 0.0977348c0.254341,0 0.0838826,0.0269348 0.145063,-0.0977348z"/>
     <path id="_581045512" fill="#4F4F4F" d="M92.4913 32.7046l-0.161224 0.0858065c0.27358,0 0.0996587,0.0242413 0.161224,-0.0858065z"/>
     <path id="_581044024" fill="#3B3B3B" d="M78.6838 34.3126c-0.0611804,-0.118898 0.110817,-0.0931174 -0.148526,-0.0931174l0.148526 0.0931174z"/>
     <path id="_581041600" fill="#3B3B3B" d="M108.203 56.9917c0,-0.261652 0.0250109,-0.0888848 -0.0908087,-0.150065l0.0908087 0.150065z"/>
     <path id="_582609104" fill="#4F4F4F" d="M82.1753 87.2329l-0.151989 0.0888848c0.259728,0 0.0908087,0.0246261 0.151989,-0.0888848z"/>
     <path id="_582600992" fill="#4F4F4F" d="M102.322 21.6779c0.113126,-0.0611804 0.0885,0.107739 0.0885,-0.15045l-0.0885 0.15045z"/>
     <path id="_582599360" fill="#4F4F4F" d="M60.1154 49.0498l0.0915783 -0.145833c-0.116589,0.0611804 -0.0915783,-0.109663 -0.0915783,0.145833z"/>
     <path id="_582606968" fill="#4F4F4F" d="M72.7066 34.8544c-0.237026,0 -0.0715696,-0.0277043 -0.13275,0.102352l0.13275 -0.102352z"/>
     <path id="_582613832" fill="#5F5F5F" d="M60.7502 46.8253l0.0923478 -0.143909c-0.117743,0.0611804 -0.0923478,-0.108893 -0.0923478,0.143909z"/>
     <path id="_582608408" fill="#4F4F4F" d="M80.4296 87.7924l-0.145063 0.085037c0.251263,0 0.0838826,0.023087 0.145063,-0.085037z"/>
     <path id="_582613544" fill="#4F4F4F" d="M88.6031 29.1273l0.083113 -0.146602c-0.105815,0.0611804 -0.083113,-0.1062 -0.083113,0.146602z"/>
     <path id="_582603368" fill="#4F4F4F" d="M99.4582 87.8774l-0.142754 -0.0858065c0.0611804,0.109278 -0.10543,0.0858065 0.142754,0.0858065z"/>
     <path id="_582604520" fill="#3B3B3B" d="M99.8561 87.9567l-0.143524 -0.0827283c0.0607957,0.105046 -0.105815,0.0827283 0.143524,0.0827283z"/>
     <path id="_582612752" fill="#4F4F4F" d="M94.9201 86.2105l-0.127748 -0.0950413c0.0611804,0.120437 -0.101583,0.0950413 0.127748,0.0950413z"/>
     <path id="_582605240" fill="#4F4F4F" d="M115.972 73.2722c0.109663,-0.0607957 0.0865761,0.100428 0.0865761,-0.136598l-0.0865761 0.136598z"/>
     <path id="_582607760" fill="#5F5F5F" d="M114.551 67.4051l-0.0861913 -0.0923478c0,0.120822 -0.0311674,0.0923478 0.0861913,0.0923478z"/>
     <path id="_582607472" fill="#5F5F5F" d="M65.2803 39.3806c-0.113896,-0.0023087 -0.0861913,-0.0307826 -0.0861913,0.0819587l0.0861913 -0.0819587z"/>
     <polygon id="_582607592" fill="#3B3B3B" points="90.1846,37.0769 90.1107,37.1515 "/>
     <polygon id="_582608696" fill="#3B3B3B" points="88.2064,37.2316 88.0252,37.1561 "/>
     <polygon id="_582603560" fill="#3B3B3B" points="89.8933,37.1561 89.714,37.23 "/>
     <polygon id="_582612920" fill="#4F4F4F" points="67.8168,37.2358 67.7333,37.3097 "/>
     <polygon id="_582613280" fill="#5F5F5F" points="65.3526,39.2994 65.2803,39.3806 "/>
     <polygon id="_582599264" fill="#4F4F4F" points="108.6,58.9937 108.527,58.8259 "/>
     <polygon id="_582605216" fill="#4F4F4F" points="108.679,59.2242 108.601,59.1434 "/>
     <polygon id="_582608288" fill="#4F4F4F" points="109.314,60.9734 109.23,60.8895 "/>
     <polygon id="_582607208" fill="#3B3B3B" points="108.679,50.0941 108.607,50.1737 "/>
     <polygon id="_582607880" fill="#3B3B3B" points="60.1877,62.6361 60.1154,62.4952 "/>
     <polygon id="_582604088" fill="#4F4F4F" points="108.758,49.8582 108.681,49.9359 "/>
     <polygon id="_582611336" fill="#3B3B3B" points="60.6683,64.7789 60.5917,64.6985 "/>
     <polygon id="_582611096" fill="#3B3B3B" points="60.7456,65.0964 60.671,64.9936 "/>
     <polygon id="_582611192" fill="#4F4F4F" points="60.8257,65.4142 60.7502,65.2722 "/>
     <polygon id="_582610808" fill="#4F4F4F" points="60.2658,48.5865 60.1946,48.6561 "/>
     <polygon id="_582610448" fill="#3B3B3B" points="60.7464,46.9196 60.671,47.0158 "/>
     <polygon id="_582606680" fill="#4F4F4F" points="98.1188,17.8678 98.0461,17.9455 "/>
     <polygon id="_582606992" fill="#4F4F4F" points="96.8552,18.503 96.7763,18.5754 "/>
     <polygon id="_582606272" fill="#4F4F4F" points="93.3613,20.9637 93.2786,21.0368 "/>
     <polygon id="_582605600" fill="#4F4F4F" points="114.465,67.3127 114.4,67.2396 "/>
     <polygon id="_582603776" fill="#4F4F4F" points="93.2786,21.0368 93.2055,21.1126 "/>
     <polygon id="_582611864" fill="#4F4F4F" points="92.6414,21.6779 92.5664,21.7502 "/>
     <polygon id="_582599624" fill="#4F4F4F" points="92.5664,21.7502 92.4837,21.831 "/>
     <polygon id="_582603416" fill="#3B3B3B" points="61.8557,68.8272 61.7818,68.7568 "/>
     <polygon id="_582603896" fill="#5F5F5F" points="117.249,68.9911 117.166,68.9065 "/>
     <polygon id="_582603344" fill="#4F4F4F" points="92.4837,21.831 92.4205,21.9091 "/>
     <polygon id="_582604928" fill="#4F4F4F" points="110.901,45.6329 110.825,45.7287 "/>
     <polygon id="_582611720" fill="#5F5F5F" points="62.4167,70.3352 62.3375,70.2598 "/>
     <polygon id="_582605912" fill="#4F4F4F" points="62.4922,70.4941 62.4167,70.4194 "/>
     <polygon id="_582613376" fill="#5F5F5F" points="117.17,70.4587 117.088,70.4941 "/>
     <polygon id="_582612080" fill="#4F4F4F" points="61.2201,45.6495 61.147,45.7229 "/>
     <polygon id="_582608360" fill="#4F4F4F" points="102.261,21.9953 102.331,21.8245 "/>
     <polygon id="_582609344" fill="#3B3B3B" points="62.8873,71.5261 62.8135,71.4526 "/>
     <polygon id="_582611768" fill="#4F4F4F" points="101.934,23.1158 101.864,23.1862 "/>
     <polygon id="_582612056" fill="#4F4F4F" points="63.042,71.9228 62.972,71.8281 "/>
     <polygon id="_582601784" fill="#3B3B3B" points="101.855,23.3521 101.781,23.4244 "/>
     <polygon id="_582601808" fill="#5F5F5F" points="115.98,73.3492 115.896,73.4311 "/>
     <polygon id="_582612368" fill="#4F4F4F" points="101.775,23.5622 101.703,23.6622 "/>
     <polygon id="_582602000" fill="#4F4F4F" points="90.736,24.1386 90.6663,24.2074 "/>
     <polygon id="_582601496" fill="#5F5F5F" points="64.2452,74.4627 64.1625,74.3819 "/>
     <polygon id="_582604400" fill="#3B3B3B" points="100.744,25.7131 100.665,25.8054 "/>
     <polygon id="_582603872" fill="#4F4F4F" points="89.1607,27.3931 89.0791,27.4742 "/>
     <polygon id="_582606008" fill="#4F4F4F" points="114.869,75.5828 114.798,75.6536 "/>
     <polygon id="_582612344" fill="#3B3B3B" points="61.7834,44.3793 61.7026,44.4589 "/>
     <polygon id="_582601568" fill="#4F4F4F" points="113.361,78.1951 113.284,78.2729 "/>
     <polygon id="_582601064" fill="#5F5F5F" points="66.4662,78.3525 66.3842,78.2717 "/>
     <polygon id="_582612560" fill="#4F4F4F" points="113.202,78.4264 113.119,78.511 "/>
     <polygon id="_582605192" fill="#4F4F4F" points="112.012,80.1818 111.941,80.2572 "/>
     <polygon id="_582610160" fill="#3B3B3B" points="68.0457,80.6543 67.9715,80.5804 "/>
     <polygon id="_582605144" fill="#3B3B3B" points="61.8623,44.2208 61.7818,44.3093 "/>
     <polygon id="_582605768" fill="#4F4F4F" points="88.5154,29.7745 88.4442,29.8449 "/>
     <polygon id="_582605936" fill="#5F5F5F" points="69.2412,82.2419 69.1616,82.1619 "/>
     <polygon id="_582612296" fill="#4F4F4F" points="69.4775,82.5593 69.3998,82.4832 "/>
     <polygon id="_582609968" fill="#3B3B3B" points="69.7899,82.9561 69.7172,82.8829 "/>
     <polygon id="_582611648" fill="#5F5F5F" points="97.4112,29.8541 97.3319,29.933 "/>
     <polygon id="_582605072" fill="#3B3B3B" points="95.7447,31.1278 95.67,31.2032 "/>
     <polygon id="_582600680" fill="#4F4F4F" points="86.9366,85.4983 86.8712,85.5757 "/>
     <polygon id="_582609680" fill="#4F4F4F" points="92.96,85.5757 92.8088,85.4979 "/>
     <polygon id="_582612800" fill="#3B3B3B" points="98.7545,34.2195 98.681,34.293 "/>
     <polygon id="_582613472" fill="#3B3B3B" points="104.87,34.3007 104.783,34.2195 "/>
     <polygon id="_582608984" fill="#4F4F4F" points="98.1157,34.378 97.9668,34.4565 "/>
     <polygon id="_582601136" fill="#4F4F4F" points="85.0323,86.0574 84.9577,86.1313 "/>
     <polygon id="_582602672" fill="#5F5F5F" points="94.7173,86.1313 94.6338,86.0489 "/>
     <polygon id="_582599096" fill="#3B3B3B" points="96.378,34.8544 96.3003,34.9309 "/>
     <polygon id="_582605840" fill="#4F4F4F" points="72.4907,34.9336 72.3357,35.016 "/>
     <polygon id="_582609944" fill="#5F5F5F" points="84.8734,86.1263 84.7949,86.2105 "/>
     <polygon id="_582607928" fill="#4F4F4F" points="83.1277,35.4816 83.0557,35.41 "/>
     <polygon id="_582605384" fill="#4F4F4F" points="94.7908,35.41 94.7131,35.49 "/>
     <polygon id="_582609032" fill="#5F5F5F" points="70.7061,35.5689 70.6692,35.6497 "/>
     <polygon id="_582601448" fill="#4F4F4F" points="106.14,86.6153 106.064,86.6869 "/>
     <polygon id="_582607952" fill="#5F5F5F" points="73.7674,86.7662 73.6847,86.6834 "/>
     <polygon id="_582607568" fill="#3B3B3B" points="96.2299,86.7662 96.1414,86.6931 "/>
     <polygon id="_582604040" fill="#5F5F5F" points="69.6364,36.1245 69.5583,36.2038 "/>
     <polygon id="_582605288" fill="#5F5F5F" points="92.9662,36.1245 92.8881,36.2042 "/>
     <polygon id="_582612320" fill="#4F4F4F" points="105.902,86.7696 105.825,86.8454 "/>
     <polygon id="_582601976" fill="#4F4F4F" points="85.9843,36.5967 85.9077,36.5213 "/>
     <polygon id="_582609488" fill="#4F4F4F" points="113.837,42.4831 113.767,42.5539 "/>
     <polygon id="_582607520" fill="#3B3B3B" points="86.2225,36.6736 86.1447,36.6005 "/>
     <polygon id="_582608432" fill="#4F4F4F" points="97.5616,87.3218 97.4904,87.246 "/>
     <polygon id="_581604096" fill="#4F4F4F" points="105.029,87.2514 104.951,87.3218 "/>
     <polygon id="_581601120" fill="#5F5F5F" points="81.9375,87.3214 81.8567,87.4011 "/>
     <polygon id="_581607768" fill="#5F5F5F" points="75.0365,87.4807 74.9545,87.3984 "/>
     <polygon id="_581592672" fill="#3B3B3B" points="91.7014,36.6005 91.6183,36.6729 "/>
     <polygon id="_581592648" fill="#5F5F5F" points="99.1631,87.7982 98.998,87.7154 "/>
     <polygon id="_581599344" fill="#4F4F4F" points="111.139,36.6802 111.061,36.6005 "/>
     <polygon id="_581605032" fill="#3B3B3B" points="114.551,41.9186 114.472,41.9983 "/>
     <polygon id="_581594448" fill="#3B3B3B" points="80.1121,87.8724 80.0398,87.9567 "/>
     <polygon id="_581599776" fill="#4F4F4F" points="86.4607,36.7506 86.3571,36.6802 "/>
     <polygon id="_581599968" fill="#4F4F4F" points="91.4863,36.6802 91.3805,36.751 "/>
     <polygon id="_581601000" fill="#3B3B3B" points="100.428,88.0363 100.347,87.9532 "/>
    </g>
    <g>
     <path id="_581601792" fill="#9E9D9D" d="M97.0252 122.521c0,0.352076 -0.0157761,0.175076 -0.07965,0.252033l0.000384783 0.382859 -0.07965 0.0461739c0,0.781493 -0.565246,3.43265 -0.822665,4.21145 -0.217787,0.658748 -0.366313,1.30788 -0.616807,1.92276l-0.694533 1.83657c0,0.120437 0.0307826,0.0911935 -0.0877304,0.0911935l0.00153913 0.0677217 -0.0811891 0.0777261c-0.107739,0.46828 -0.728778,1.49911 -0.979272,1.95893l-1.15858 1.85273 -0.0838826 0.0838826 -0.167765 0.233563 -0.0704152 0.0746478c-0.409024,0.634507 -1.55798,1.88851 -2.16132,2.44645 -0.20432,0.189313 -0.308596,0.227791 -0.517148,0.435189 -0.270887,0.269348 -0.747633,0.656054 -1.057,0.853833l-0.0657978 0.0731087c0,0.121591 0.0311674,0.0927326 -0.0869609,0.0927326 -0.318985,0.151604 -1.60108,1.00082 -2.61498,1.50104l-0.083113 0.0834978 -0.07965 -0.00423261 -0.0788804 0.0792652c-0.465587,0.109278 -0.91963,0.438267 -1.32904,0.476361l-0.0992739 0.0777261 -0.0977348 0.00192391 -0.140446 0.0977348c-0.286278,-0.00423261 -0.54947,0.16892 -0.91963,0.252033 -0.306672,0.0688761 -0.765333,0.198548 -1.03622,0.205859 0,0.118128 0.0253957,0.0804196 -0.107354,0.0804196 -0.573711,-0.00384783 -1.12818,0.200472 -1.74537,0.237026 -0.647204,0.0380935 -1.22746,0.0792652 -1.98394,0.0792652 -1.82656,0 -3.45535,-0.318215 -3.80896,-0.316676 -0.116589,0 -0.0904239,0.0311674 -0.0904239,-0.0800348 -0.31783,-0.00769565 -0.659133,-0.126978 -0.973885,-0.205474 -0.370161,-0.0927326 -0.664135,-0.242028 -0.998896,-0.272426 -0.135059,0 -0.110817,0.0392478 -0.110817,-0.0777261l-0.127363 -0.00192391 -0.0815739 -0.0777261c-0.2478,-0.058487 -0.446348,-0.144293 -0.644896,-0.225867 -0.246261,-0.101198 -0.377857,-0.196624 -0.622578,-0.243183 -0.11505,0 -0.0861913,0.0288587 -0.0861913,-0.0865761l-0.0723391 0.00384783c-0.120437,0 -0.0935022,0.031937 -0.0935022,-0.083113 -0.366698,-0.0935022 -1.41677,-0.762254 -1.82618,-1.0166 -0.223559,-0.138907 -0.414796,-0.271657 -0.6195,-0.41672l-0.0719543 -0.0750326c-1.40369,-0.88423 -3.1052,-2.82815 -4.05445,-4.20298l-0.0842674 -0.083113c-0.125824,-0.255111 -0.171228,-0.269348 -0.308211,-0.480209 -0.118513,-0.182002 -0.225867,-0.367083 -0.321678,-0.561783l-0.0704152 -0.0692609c-0.308211,-0.516378 -0.547161,-0.997357 -0.829207,-1.56106 -0.295513,-0.591026 -0.50368,-1.10933 -0.766872,-1.70497l-0.0908087 -0.146987 0.0115435 -0.0777261 -0.0719543 -0.0811891 -0.483672 -1.51566 -0.0708 -0.0719543c-0.0419413,-0.327065 -0.166996,-0.564861 -0.247415,-0.872302 -0.083113,-0.315907 -0.160839,-0.634122 -0.23818,-0.952337 -0.117359,-0.483287 -0.395941,-1.47872 -0.395941,-1.98509l-0.0777261 -0.07965c-0.00461739,-0.618346 -0.352076,-2.20904 -0.39748,-3.17561 -0.148141,-3.15022 -0.28397,-5.18187 0.181617,-8.38942 0.067337,-0.464048 0.20432,-1.08124 0.220865,-1.61147l0.0727239 -0.0723391c0,-0.454813 0.278967,-1.41908 0.380165,-1.84927 0.0738783,-0.313213 0.133135,-0.573711 0.225483,-0.885385 0.0981196,-0.329759 0.235102,-0.5841 0.272426,-0.923478l0.074263 -0.0915783 0.00615652 -0.146602 0.0731087 -0.0708c0.118128,-0.533309 0.344765,-0.931559 0.482902,-1.43716l0.0727239 -0.07965c0.116589,-0.500602 0.463278,-0.916167 0.549854,-1.34943 0,-0.116204 -0.0296283,-0.0881152 0.085037,-0.0881152 0.0854217,-0.347843 0.28397,-0.555626 0.45058,-0.889617 0.180078,-0.36208 0.3363,-0.609496 0.499448,-0.927326 0,-0.1239 -0.0338609,-0.0977348 0.0815739,-0.0977348 0.261652,-0.426339 0.520996,-0.812661 0.807659,-1.23708 0.161609,-0.23895 0.279352,-0.350922 0.450965,-0.581022 0.146217,-0.196239 0.374778,-0.451735 0.479439,-0.624117 0,-0.115435 -0.0288587,-0.0865761 0.0869609,-0.0865761l0.405176 -0.46905 0.0781109 -0.0708 0.0642587 -0.0800348c0,-0.121976 -0.0323217,-0.0946565 0.0834978,-0.0946565l0.083113 -0.0800348 0.326296 -0.309365 0.06195 -0.0715696c0,-0.122361 -0.0323217,-0.0946565 0.085037,-0.0946565l0.0823435 -0.076187 0.0704152 -0.0750326 0.0792652 -0.0869609 0.0881152 -0.0758022 0.544852 -0.472128c0,-0.114665 -0.0277043,-0.0842674 0.0900391,-0.0842674l0.311289 -0.233563 0.0854217 -0.0788804c0.502141,-0.337839 0.9558,-0.746093 1.51143,-1.03237l0.0758022 -0.0754174c0.653361,-0.364004 1.30557,-0.724546 2.0101,-1.03583l0.132365 -0.0885 0.0607957 0.00923478c0,-0.117359 -0.0269348,-0.0834978 0.0977348,-0.0834978 0.351691,-0.0731087 0.776876,-0.293589 1.18321,-0.392863l0.0865761 -0.0731087c0.00961957,-0.00115435 1.95008,-0.518302 2.76543,-0.652976 2.68771,-0.444039 6.04263,-0.402483 8.61105,0.379396 0.274735,0.0834978 0.392093,0.159685 0.684913,0.19547l0.0950413 0.0719543 0.143139 -0.00692609c0.115435,0 0.0865761,-0.0288587 0.0865761,0.0861913 0.487135,0.118513 0.83267,0.363235 1.26247,0.484441l0.1062 0.0711848c0.33553,0.0935022 0.583715,0.26627 0.879613,0.442885 0.307441,0.183541 0.627965,0.35477 0.918476,0.510607l0.0927326 0.0784957c1.2844,0.963496 1.74922,1.13819 3.06287,2.5588l0.983504 1.15935c0.116589,0.145833 0.182387,0.272041 0.29282,0.421337 0.414796,0.562167 0.781109,1.11087 1.1228,1.72844 0.112357,0 0.0834978,-0.0277043 0.0834978,0.0854217 0.283585,0.569478 0.624117,1.09625 0.891926,1.72306 0.254726,0.597183 0.61065,1.29287 0.770335,1.91198l0.0700304 0.0954261c0.29282,1.01082 0.669137,1.97971 0.913859,3.06402 0.129287,0.573711 0.23972,1.11395 0.345535,1.63879 0.102352,0.50522 0.257804,1.19975 0.257804,1.73614l0.0804196 0.228561 -0.00115435 0.315137c0.0469435,0.0746478 0.0153913,-0.0354 0.0727239,0.166226 0.012313,0.0434804 0.00615652,0.091963 0.0065413,0.153913 0,0.744554 0.155067,1.37598 0.161993,2.06051 0.00808043,0.819587 0.076187,1.37252 0.076187,2.22558 0,0.843828 -0.0800348,1.45987 -0.0773413,2.22481 0.00307826,0.724546 -0.161609,1.36944 -0.160454,2.14093zm-22.6121 -29.6867l-0.083113 0.0715696 -0.180078 0.00808043 -0.216633 0.0885c-0.308211,-0.00731087 -0.704922,0.145448 -0.968883,0.212015 -0.332067,0.0838826 -0.609111,0.226637 -0.916167,0.255111l-0.0985043 0.074263c-0.295128,0.0323217 -0.268193,0.0665674 -0.479439,0.160839 -0.474052,0.212015 -0.729163,0.24703 -1.39907,0.58487 -0.636046,0.320909 -1.17243,0.604109 -1.76923,0.926172l-0.0819587 0.0854217 -0.147757 0.0734935c0,0.11428 0.0277043,0.0834978 -0.0904239,0.0834978 -0.313598,0.155837 -0.673754,0.404791 -0.96465,0.618346 -0.329759,0.242413 -0.614498,0.509452 -0.940409,0.726854l-0.0873457 0.0781109 -0.0708 0.0719543c-1.12895,0.833824 -2.49916,2.42336 -3.36646,3.62619 -0.402098,0.557935 -1.06354,1.55529 -1.36867,2.12362 -0.119283,0.222789 -0.170459,0.360157 -0.290126,0.582946 -0.222404,0.413257 -0.741861,1.34135 -0.849215,1.77231l-0.0769565 0.0727239c-0.0981196,0.439422 -0.356693,0.888463 -0.481748,1.35597l-0.0734935 0.106585c-0.472898,1.69728 -1.05392,3.0494 -1.33673,5.06528 -0.0885,0.631428 -0.253957,1.24593 -0.24857,1.89236 -0.000769565,0.106585 0.00423261,0.0588717 -0.0169304,0.157761 -0.00384783,0.0177 -0.0238565,0.0746478 -0.0273196,0.0642587 -0.00307826,-0.0100043 -0.0242413,0.0377087 -0.0369391,0.0557935l0.00346304 0.357463c0.00192391,0.364004 -0.0223174,0.190083 -0.0827283,0.268193l0.000769565 0.604878 -0.0804196 0.175076c0,0.666443 -0.0834978,1.05892 -0.0811891,1.64879l0.000769565 3.6539c-0.00346304,0.634891 0.0804196,1.02429 0.0804196,1.71575 0.0557935,0.0731087 0.0823435,-0.0677217 0.0827283,0.267809l-0.00307826 0.435959c0.0107739,0.0200087 0.0307826,0.0246261 0.0338609,0.0600261 0.00307826,0.0361696 0.0238565,0.047713 0.0273196,0.0646435 0.0238565,0.117359 0.0223174,0.110433 0.0227022,0.233178 -0.0161609,0.705691 0.153913,1.3021 0.246646,1.97124 0.158915,1.14858 0.484057,2.5184 0.807659,3.63697 0.174691,0.60257 0.395941,1.13665 0.527922,1.69035l0.0827283 0.0834978c0.0992739,0.462509 0.87538,2.26098 1.10779,2.69771l0.0792652 0.0804196c0.0527152,0.225867 0.577943,1.14473 0.714157,1.34943 0.137752,0.207013 0.265885,0.430187 0.391324,0.640278 0.156222,0.260498 0.262807,0.365543 0.402098,0.630274l0.0784957 0.0784957c0.216633,0.320524 0.417874,0.596798 0.669137,0.919246l0.741091 0.925787c0.499833,0.566015 1.06931,1.11433 1.62494,1.62878 0.174691,0.161609 0.255111,0.1947 0.436728,0.356693 0.67183,0.598722 2.78236,2.09553 3.43265,2.28561l0.102737 0.0754174c0.397865,0.107739 0.672215,0.344765 1.16705,0.484057l0.0823435 0.0715696 0.076187 -0.00192391 0.0827283 0.0811891 1.83695 0.62027c0.568324,0.152759 1.51912,0.410948 2.0482,0.412102l0.0800348 0.0788804c0.56717,0 1.01698,0.156991 1.58338,0.161609 0.671061,0.00577174 1.0189,0.0781109 1.66919,0.0773413 0.958109,-0.00153913 2.94705,-0.23895 3.27527,-0.23895l0.136983 -0.106585 0.287817 0.0273196c0.0827283,-0.103122 -0.141215,-0.0834978 0.188159,-0.0819587 0.456352,0.00577174 1.39984,-0.281276 1.81617,-0.403637 0.2832,-0.083113 0.543313,-0.15122 0.853063,-0.257804 0.320139,-0.110048 0.50522,-0.216248 0.830361,-0.288587l0.0715696 -0.0715696 0.083113 -0.00769565 0.0754174 -0.0723391c0.39017,-0.0469435 1.32519,-0.551393 1.66688,-0.721083 0.279352,-0.138137 0.474052,-0.26627 0.766102,-0.424415 0.293974,-0.158915 0.458276,-0.297437 0.737628,-0.449041l0.0827283 -0.0815739c0.409409,-0.210091 1.27709,-0.881537 1.64879,-1.20629 0.255111,-0.222789 0.788804,-0.608726 0.970422,-0.855372l0.0800348 -0.0777261 0.0781109 -0.0804196 0.476746 -0.476746 0.0788804 -0.07965c0.436343,-0.29205 1.9039,-2.22828 2.05897,-2.53995l0.0834978 -0.0838826c0.418259,-0.60103 0.936176,-1.416 1.25401,-2.07513 0.192776,-0.399789 0.400174,-0.711848 0.559859,-1.10625 0.156607,-0.385937 0.393248,-0.778415 0.487904,-1.17974l0.0788804 -0.0873457c0.137752,-0.563707 0.918476,-2.41297 1.21091,-3.78126 0.0446348,-0.208167 0.0931174,-0.445193 0.15853,-0.714541 0.0554087,-0.228561 0.14237,-0.393633 0.132365,-0.734935 0,-0.151604 -0.04425,-0.125054 0.085037,-0.125054l-0.00692609 -0.272041 0.0865761 -0.160839c0.0065413,-0.287817 0.103507,-0.700689 0.147757,-0.961187 0.0569478,-0.335146 0.085037,-0.611804 0.135059,-0.975809 0.100043,-0.723391 0.206243,-1.33135 0.188543,-2.10899 0,-0.0715696 -0.00961957,-0.262037 -0.00192391,-0.320524 0.0373239,-0.270887 -0.0292435,-0.0846522 0.0858065,-0.228561l-0.00269348 -0.720698c0,-0.247415 -0.0500217,-0.452889 0.0823435,-0.611035l0 -3.17138c-0.12313,-0.22202 -0.0827283,-0.227022 -0.0823435,-0.58333l0.00269348 -0.777646c-0.0623348,-0.103891 -0.0338609,0.0869609 -0.0777261,-0.177385 -0.0138522,-0.0838826 -0.00615652,-0.225867 -0.00615652,-0.315137 0.0150065,-0.66298 -0.0750326,-1.23438 -0.15853,-1.82118 -0.038863,-0.272811 -0.0600261,-0.524074 -0.107354,-0.844983 -0.0504065,-0.339378 -0.126209,-0.563322 -0.126209,-0.910011l-0.074263 -0.0750326 -0.00500217 -0.38132c-0.119667,0 -0.0873457,0.0284739 -0.0873457,-0.0950413l0.00769565 -0.16007c-0.0754174,-0.0784957 -0.0758022,0.117743 -0.0846522,-0.236641 0.00269348,-0.553317 -0.342841,-1.32288 -0.391324,-1.90583l-0.0811891 -0.0784957 0.00192391 -0.16007 -0.0696457 -0.0781109c-0.0307826,-0.434035 -0.298591,-1.06123 -0.436343,-1.47833 -0.174691,-0.528691 -0.38863,-0.941563 -0.525613,-1.43101l-0.0769565 -0.10697c-0.0669522,-0.271272 -0.153143,-0.358233 -0.263191,-0.612189 -0.107739,-0.249724 -0.146987,-0.366313 -0.267809,-0.605648 -0.206628,-0.409793 -0.377857,-0.781493 -0.582176,-1.16089l-0.0827283 -0.0819587c-0.338224,-0.671061 -0.760715,-1.36367 -1.20937,-1.96201 -0.245876,-0.32822 -0.41518,-0.599491 -0.67337,-0.913859 -0.260883,-0.317446 -0.478285,-0.561398 -0.732626,-0.855372l-0.0784957 -0.0773413 -0.0819587 -0.0808043c-0.233178,-0.355539 -0.723007,-0.763793 -1.04969,-1.09163 -0.403637,-0.405176 -0.714157,-0.630274 -1.15204,-0.990815 -0.809967,-0.666443 -1.68958,-1.22399 -2.63692,-1.72806l-0.0769565 -0.0788804 -0.0819587 -0.00885 -0.0715696 -0.0708c-0.190083,-0.0950413 -0.367083,-0.151989 -0.562167,-0.23895 -0.186235,-0.083113 -0.320909,-0.168535 -0.533309,-0.260498 -0.382474,-0.165072 -0.817663,-0.352076 -1.2136,-0.459046l-0.10697 -0.0731087c-0.26473,-0.0257804 -0.16892,-0.0427109 -0.405561,-0.120437 -0.199702,-0.065413 -0.303209,-0.0804196 -0.502526,-0.134289 -0.278198,-0.0754174 -0.600261,-0.22125 -0.968498,-0.2124l-0.156222 -0.0885 -0.161224 -0.00769565 -0.101967 -0.0719543 -0.294743 0.00615652c-0.11428,0 -0.0858065,0.0284739 -0.0858065,-0.0854217l-1.91045 -0.225867c-1.6384,-0.171228 -3.45112,-0.067337 -5.05335,0.159685 -0.273196,0.038863 -0.66298,0.138907 -0.961572,0.145448z"/>
     <path id="_581594592" fill="#9E9D9D" d="M115.1 92.8338l-0.1416 0.0900391 -0.152374 -0.0103891 -0.165072 0.0711848c-0.350922,0.0219326 -0.785341,0.192776 -1.13973,0.297052 -1.96278,0.576404 -4.57968,2.16556 -5.7979,3.72547 -0.152374,0.1947 -0.238565,0.244337 -0.362465,0.430572 0,0.135443 0.038863,0.110048 -0.07965,0.110048l-0.152759 0.207398c0,0.113126 0.0280891,0.0846522 -0.0854217,0.0846522 -0.329759,0.471743 -0.588717,0.900776 -0.875765,1.4237l-0.0765717 0.0908087c-0.0988891,0.170843 -0.456352,0.958109 -0.484826,1.17897l-0.0704152 0.0715696 0.00307826 0.0873457 -0.0827283 0.0811891c-0.121591,0.517917 -0.49483,1.41831 -0.465202,1.9824l-0.0900391 0.160454 0.00615652 0.315907c0,0.290896 0.0234717,0.0996587 -0.0854217,0.168535 0,0.607187 -0.07965,1.04584 -0.07965,1.73652 0.000384783,0.723391 0.07965,1.20668 0.07965,1.84503l0.0869609 0.0600261 -0.00769565 0.439037 0.0711848 0.0373239c0.129672,2.07937 2.41682,5.2215 4.21375,6.3443 0.114665,0 0.085037,-0.0280891 0.085037,0.0885l0.0696457 0.0758022 0.162763 0.0804196 0.0792652 0.0784957c0.617576,0.413641 2.87163,1.85311 3.41225,1.98663l0.0977348 0.0769565c0.0881152,0.0607957 0.0750326,0.0523304 0.219711,0.0881152l0.0708 0.0708c0.198548,0.0896543 0.368237,0.138522 0.564861,0.237411 0.200087,0.100428 0.309365,0.180848 0.554472,0.240489l0.0777261 0.0777261c0.157761,0.0746478 0.267809,0.0985043 0.450965,0.185465 0.220096,0.104276 0.259343,0.153528 0.502911,0.21317l0.0773413 0.0777261c0.408254,0.093887 0.858065,0.429802 1.19244,0.444809l0.135059 0.110817c0.189313,0.085037 0.3894,0.153528 0.577943,0.23972 0.214324,0.0977348 0.297052,0.178924 0.556396,0.230485 0.140446,0 0.113511,-0.0396326 0.113511,0.0854217l0.0454043 -0.00346304c0.116204,0 0.0888848,-0.030013 0.0888848,0.0827283 0.27358,0.0677217 0.500217,0.212015 0.749941,0.351307 0.272811,0.152374 0.493291,0.222404 0.748017,0.369007l0.0784957 0.0734935c0.262037,0.137367 0.47713,0.252802 0.719159,0.392478 0.235487,0.135828 0.480593,0.282046 0.710309,0.397865l0.0823435 0.0827283c0.4956,0.268193 0.97273,0.62835 1.42523,0.960033l0.0719543 0.0719543c0.220096,0.138907 0.42403,0.306672 0.622578,0.495985 0.395172,0.377472 0.768796,0.628735 1.22938,1.15165 0.128517,0.146217 0.120822,0.166611 0.243183,0.312443 0.127748,0.152374 0.182772,0.179309 0.29282,0.335146 0.115435,0 0.0869609,-0.0288587 0.0869609,0.0858065 0.0904239,0.148911 0.139676,0.187004 0.262422,0.364389 0.552548,0.799578 1.47449,2.3591 1.55529,3.27642 0.111202,0 0.0804196,-0.0261652 0.0804196,0.0900391 0.00577174,0.359002 0.119667,0.527152 0.192007,0.918091 0.0731087,0.395172 0.124285,0.644896 0.124285,1.08432l0.085037 0.220096 0 2.30177c-0.000769565,0.359002 -0.0257804,0.193546 -0.085037,0.270502 0,0.611035 -0.201626,1.3175 -0.350922,1.83926 -0.0892696,0.311289 -0.18662,0.57448 -0.273196,0.838057 -0.110433,0.334761 -0.256265,0.571017 -0.333991,0.862298l-0.0734935 0.0734935c-0.109663,0.216248 -0.4248,0.768411 -0.479054,0.958493l-0.0765717 0.083113 -0.0773413 0.155067 -0.0811891 0.0815739c-0.346304,0.643357 -1.12357,1.47564 -1.64648,2.00202 -1.23708,1.244 -2.83662,2.15055 -4.48541,2.81584 -0.586793,0.237026 -2.25367,0.736089 -2.99015,0.736089 0,0.113511 0.0288587,0.0861913 -0.083113,0.0861913 -0.649898,-0.0215478 -1.23746,0.0727239 -1.98355,0.0727239 -0.80612,0 -1.31095,-0.0600261 -2.0632,-0.0869609l-0.0688761 -0.0719543c-0.764948,0 -1.25016,-0.306672 -1.91506,-0.315907 -0.125054,0 -0.0992739,0.0342457 -0.0992739,-0.0808043l-0.218172 -0.00885 -0.0727239 -0.0708c-0.584485,-0.0469435 -0.980041,-0.33707 -1.51412,-0.405176l-0.0719543 -0.0708c-0.31937,-0.0715696 -0.604109,-0.203165 -0.890387,-0.307441 -0.34438,-0.125439 -0.47713,-0.242413 -0.863067,-0.324372l-0.0834978 -0.0827283 -0.0750326 0.00153913 -0.0800348 -0.0808043c-0.263191,-0.0615652 -0.223943,-0.0861913 -0.439037,-0.19547l-1.30595 -0.669907c-0.132365,0 -0.104276,0.0361696 -0.104276,-0.0873457 -0.200857,-0.130441 -0.339763,-0.254341 -0.60988,-0.317446 -0.118128,0.507528 -0.587948,1.02237 -0.634891,1.58761 0.215093,0.0569478 0.0623348,-0.00808043 0.23818,0.0800348l0.0788804 0.0784957c0.4956,0.429417 2.44068,1.37521 2.93628,1.43678l0.0834978 0.0715696 0.0754174 -0.0126978 0.148526 0.091963c0.321293,0.143909 0.669137,0.211246 1.0316,0.32745 0.323987,0.103891 0.71685,0.215093 1.06123,0.287817 0.775722,0.163533 1.49642,0.397096 2.36103,0.422876l0.0838826 0.0731087c0.4248,0 0.866915,0.047713 1.33981,0.0842674 0.437883,0.0334761 0.7965,0.0746478 1.35367,0.0746478 1.04661,-0.000384783 1.83272,-0.158915 2.77005,-0.158915l0.0865761 -0.0738783c0.764563,-0.0200087 1.39022,-0.234717 1.99972,-0.386322 0.364389,-0.0904239 0.597952,-0.153913 0.926557,-0.263961 0.253572,-0.085037 0.636046,-0.250493 0.885385,-0.307826l0.0765717 -0.0750326 0.0734935 -0.00423261c0,-0.113511 -0.0284739,-0.085037 0.0854217,-0.085037l0.143139 0.00577174 0.0946565 -0.0723391 1.01583 -0.483287 0.0950413 -0.0750326c0.233948,-0.0688761 1.06085,-0.622578 1.2821,-0.785726 0.211246,-0.155837 0.372854,-0.271272 0.589872,-0.442115 0.951183,-0.748017 1.952,-1.80694 2.56342,-2.82469 0,-0.11505 -0.0280891,-0.0854217 0.0877304,-0.0854217l0.0711848 -0.152759c0,-0.118128 -0.030013,-0.0892696 0.0877304,-0.0892696 1.76846,-3.10058 2.14593,-5.40389 1.90737,-8.96236 -0.0350152,-0.518687 -0.161609,-0.959648 -0.161609,-1.42177l-0.0823435 -0.0834978c-0.00538696,-0.719928 -0.750326,-2.40489 -1.02852,-2.93897l-0.0773413 -0.0773413 -0.0023087 -0.0777261 -0.0696457 -0.0811891c-0.161993,-0.269733 -0.312059,-0.544083 -0.485596,-0.785341 -0.11582,0 -0.0865761,0.0288587 -0.0865761,-0.0877304 -0.223943,-0.366698 -0.883461,-1.14434 -1.20129,-1.48988l-0.714541 -0.634507c-0.2655,-0.246261 -0.480209,-0.462893 -0.774952,-0.649128l-0.0838826 -0.0838826 -0.312828 -0.231639 -0.0815739 -0.0858065c-0.273196,-0.186235 -0.527152,-0.367467 -0.791883,-0.555626 -0.263191,-0.187004 -0.581022,-0.408254 -0.872302,-0.550239l-0.0823435 -0.085037c-0.367852,-0.198933 -0.733396,-0.422491 -1.10817,-0.642587l-0.0708 -0.0715696 -0.0877304 -0.00692609 -0.0734935 -0.0727239c-0.356309,-0.180463 -1.35944,-0.794191 -1.67227,-0.86807 -0.144293,0 -0.117743,0.0415565 -0.117743,-0.0842674 -0.154298,-0.11428 -0.275504,-0.154298 -0.448272,-0.226252 -0.25665,-0.10697 -0.330143,-0.193161 -0.544852,-0.248185 -0.142754,0 -0.116974,0.0415565 -0.116974,-0.0811891l-0.0419413 0.00115435c-0.121976,0 -0.0961957,0.0334761 -0.0961957,-0.0804196 -0.480978,-0.125054 -0.933867,-0.531385 -1.41138,-0.631043l-0.0842674 -0.0834978c-0.285124,-0.0784957 -0.207013,-0.153528 -0.550624,-0.242413l-0.104661 -0.0750326c-0.324757,-0.0892696 -0.876535,-0.411717 -1.21784,-0.582176 -0.285893,-0.142754 -0.996972,-0.559474 -1.21668,-0.602185 -0.11428,0 -0.0858065,0.0284739 -0.0858065,-0.0858065 -0.262807,-0.146217 -0.48675,-0.266654 -0.762639,-0.421337 -0.303593,-0.169689 -0.528307,-0.299361 -0.818048,-0.450965l-0.0842674 -0.0800348 -0.153913 -0.0723391c-0.114665,0 -0.0858065,0.0288587 -0.0858065,-0.0865761 -0.232409,-0.164687 -0.474822,-0.312059 -0.70723,-0.476361 -0.250493,-0.177 -0.476361,-0.369007 -0.714926,-0.554857l-0.694917 -0.574865c-0.515609,-0.47713 -1.32288,-1.50989 -1.68304,-2.12669 -0.232024,-0.397096 -0.612574,-1.3352 -0.716465,-1.84811l-0.0946565 -0.133904 0.0153913 -0.156991 -0.0750326 -0.160839c-0.00769565,-0.356309 -0.10697,-0.694533 -0.143139,-0.972346 -0.215093,-1.64341 0.12467,-2.45145 0.143909,-3.23448l0.074263 -0.147757 0.00307826 -0.169689 0.076187 -0.113511c0.012313,-0.449811 0.499448,-1.58492 0.679911,-1.98471 0.282046,-0.626041 0.616807,-1.20129 0.995433,-1.7119l0.0704152 -0.0708c0.447887,-0.715696 1.52528,-1.85888 2.22712,-2.31023l0.074263 -0.0734935c0.28397,-0.20432 0.557935,-0.384398 0.859604,-0.561783l0.0927326 -0.0708c0.184311,-0.109278 0.305902,-0.203165 0.501757,-0.300515 0.244337,-0.121207 0.372854,-0.128133 0.587948,-0.263576l0.100428 -0.0727239c0.30975,-0.0846522 0.553317,-0.228946 0.872687,-0.324372 0.331683,-0.0985043 0.54947,-0.178154 0.91963,-0.270502 0.595643,-0.149296 1.39137,-0.364389 2.07013,-0.364389 0.1239,-0.0661826 -0.116204,-0.00846522 0.185465,-0.0723391 0.0534848,-0.0115435 0.178154,-0.00500217 0.237026,-0.00461739l0.763024 -0.0023087c0.0981196,-0.0511761 -0.0885,-0.0138522 0.189313,-0.0723391 0.0488674,-0.0103891 0.183157,-0.00615652 0.23818,-0.00615652 0.285893,-0.000384783 0.421337,-0.0492522 0.617576,0.0784957l0.651822 0.00115435c0.0765717,0.000384783 0.155837,-0.00500217 0.231254,0.00731087 0.243952,0.0400174 0.06195,0.00923478 0.1593,0.0708l0.561783 0.00346304 0.0781109 0.076187c0.431341,0 0.677602,0.0519457 1.06623,0.125054 0.359002,0.067337 0.736474,0.187389 1.07739,0.188543 0.11505,0 0.0873457,-0.0296283 0.0873457,0.083113 0.558704,0.0484826 1.3021,0.342841 1.81733,0.482517l0.10697 0.0731087 0.130826 0.00615652 0.0804196 0.0731087c0.371315,0.0869609 0.696457,0.32668 1.03083,0.3894 0.127748,0 0.0992739,-0.0342457 0.0992739,0.0869609l0.0592565 0.00153913 0.0784957 0.0777261c0.189698,0.100043 0.270887,0.183157 0.47713,0.23818 0.120437,-0.227791 0.254341,-0.437883 0.315137,-0.714157l0.0815739 -0.0823435c0.0842674,-0.171998 0.138522,-0.31052 0.15853,-0.552933 -0.68145,-0.456352 -1.4414,-0.815739 -2.291,-1.12126 -0.547161,-0.196624 -2.04204,-0.689915 -2.7081,-0.710693l-0.145063 -0.0731087 -1.71344 -0.204704c-0.955415,-0.139676 -2.73311,-0.0784957 -3.69622,-0.0330913 -0.57525,0.0269348 -1.23246,0.227022 -1.76269,0.237796z"/>
     <polygon id="_581605920" fill="#9E9D9D" points="48.4611,143.555 49.969,143.555 49.969,107.677 48.4611,107.677 "/>
     <path id="_581600160" fill="#9E9D9D" d="M48.7785 95.2198c-0.557165,0.11428 -0.907702,0.653361 -0.992739,1.3098 -0.093887,0.7257 0.237796,1.25324 0.675293,1.54182l0.07965 0.0808043c0.570633,0.273965 0.810737,0.122746 1.35405,0l0.074263 -0.0734935c0.067337,-0.0484826 0.205859,-0.1416 0.273196,-0.208937 0.0661826,-0.0661826 0.160839,-0.205859 0.210091,-0.273196l0.0719543 -0.0708c0.121591,-0.549085 0.278967,-0.746478 0.0665674,-1.42447 -0.126978,-0.403637 -0.406715,-0.786496 -0.859989,-0.882691 -0.13275,0 -0.106585,0.0369391 -0.106585,-0.0827283l-0.753404 0c0,0.11505 0.0273196,0.0838826 -0.0923478,0.0838826z"/>
     <path id="_581604480" fill="#4F4F4F" d="M119.068 94.104c-0.196239,-0.127748 -0.331683,-0.0788804 -0.617576,-0.0784957 -0.0550239,0 -0.189313,-0.00423261 -0.23818,0.00615652 -0.277813,0.058487 -0.0911935,0.021163 -0.189313,0.0723391l1.04507 0z"/>
     <path id="_581603952" fill="#3B3B3B" d="M98.7679 120.219c0.1062,-0.161993 0.0392478,0.187389 0.0858065,-0.236641 0.00885,-0.0815739 -0.00346304,-0.278967 -0.00346304,-0.374393 -0.132365,0.158146 -0.0823435,0.36362 -0.0823435,0.611035z"/>
     <path id="_581597424" fill="#3B3B3B" d="M98.8503 116.436c0,-0.0692609 0.0103891,-0.29282 0.00346304,-0.349767 -0.0465587,-0.374778 0.0134674,-0.106585 -0.0858065,-0.233563 -0.000384783,0.356309 -0.040787,0.361311 0.0823435,0.58333z"/>
     <path id="_581593368" fill="#4F4F4F" d="M98.6867 121.489c0.103507,-0.153913 0.0419413,0.176615 0.0877304,-0.234717 0.00692609,-0.0623348 -0.00384783,-0.239335 -0.00384783,-0.314367 -0.11505,0.143909 -0.0484826,-0.0423261 -0.0858065,0.228561 -0.00769565,0.058487 0.00192391,0.248954 0.00192391,0.320524z"/>
     <path id="_581601648" fill="#4F4F4F" d="M98.7706 115.075l-0.0242413 -0.391324c-0.00500217,-0.0161609 -0.0227022,-0.0404022 -0.0273196,-0.0531 -0.00461739,-0.0119283 -0.0203935,-0.0330913 -0.0323217,-0.0480978 0,0.0892696 -0.00769565,0.231254 0.00615652,0.315137 0.0438652,0.264346 0.0153913,0.0734935 0.0777261,0.177385z"/>
     <path id="_581599464" fill="#3B3B3B" d="M117.26 94.1063c-0.0588717,-0.000384783 -0.183541,-0.00692609 -0.237026,0.00461739 -0.30167,0.0638739 -0.0615652,0.00615652 -0.185465,0.0723391 0.0531,0 0.203935,0.00577174 0.256265,-0.00538696 0.162378,-0.0350152 0.0777261,-0.0065413 0.166226,-0.0715696z"/>
     <path id="_581592840" fill="#3B3B3B" d="M120.11 94.1832c-0.09735,-0.0615652 0.0846522,-0.0307826 -0.1593,-0.0708 -0.0754174,-0.012313 -0.154683,-0.00692609 -0.231254,-0.00731087 0.0815739,0.0507913 0.00461739,0.0465587 0.164302,0.0723391 0.0657978,0.0107739 0.157761,0.00577174 0.226252,0.00577174z"/>
     <path id="_581603808" fill="#4F4F4F" d="M57.7501 123.314c-0.000384783,-0.122746 0.00115435,-0.11582 -0.0227022,-0.233178 -0.00346304,-0.0169304 -0.0242413,-0.0284739 -0.0273196,-0.0646435 -0.00307826,-0.0354 -0.023087,-0.0400174 -0.0338609,-0.0600261 0,0.278967 -0.0569478,0.246646 0.0838826,0.357848z"/>
     <path id="_581593488" fill="#3B3B3B" d="M127.576 132.237c0.0592565,-0.0769565 0.0842674,0.0885 0.085037,-0.270502 -0.0819587,0.0823435 -0.085037,-0.10543 -0.085037,0.270502z"/>
     <path id="_581592168" fill="#4F4F4F" d="M57.6662 114.454c0.0604109,-0.0781109 0.0846522,0.0958109 0.0827283,-0.268193 -0.0773413,0.0800348 -0.0827283,-0.0915783 -0.0827283,0.268193z"/>
     <path id="_581604864" fill="#5F5F5F" d="M57.7455 113.829c0.0126978,-0.0180848 0.0338609,-0.0657978 0.0369391,-0.0557935 0.00346304,0.0103891 0.0234717,-0.0465587 0.0273196,-0.0642587 0.021163,-0.0988891 0.0161609,-0.0511761 0.0169304,-0.157761 -0.139291,0 -0.0811891,0.104276 -0.0811891,0.277813z"/>
     <path id="_581606664" fill="#3B3B3B" d="M57.6693 122.521c-0.000384783,-0.33553 -0.0269348,-0.1947 -0.0827283,-0.267809 0,0.359002 0.00577174,0.187774 0.0827283,0.267809z"/>
     <path id="_581602536" fill="#5F5F5F" d="M98.1357 110.295c0,-0.396711 0.0111587,-0.139676 -0.0846522,-0.236641 0.00885,0.354385 0.00923478,0.158146 0.0846522,0.236641z"/>
     <path id="_581607648" fill="#4F4F4F" d="M96.9456 122.773c0.0638739,-0.0769565 0.07965,0.100043 0.07965,-0.252033 -0.0738783,0.0792652 -0.07965,-0.107739 -0.07965,0.252033z"/>
     <path id="_581601504" fill="#5F5F5F" d="M81.7097 143.949c-0.329374,-0.00153913 -0.10543,-0.021163 -0.188159,0.0819587 0.310904,0 0.126209,0.0242413 0.188159,-0.0819587z"/>
     <path id="_581606136" fill="#4F4F4F" d="M97.0249 113.869c-0.000384783,-0.06195 0.00577174,-0.110433 -0.0065413,-0.153913 -0.0573326,-0.201626 -0.0257804,-0.0915783 -0.0727239,-0.166226 0,0.0446348 -0.00153913,0.131211 0.00538696,0.155067 0.0411717,0.145063 0.0215478,0.085037 0.0738783,0.165072z"/>
     <path id="_581602008" fill="#3B3B3B" d="M104.802 103.401c0.108893,-0.0688761 0.0854217,0.122361 0.0854217,-0.168535 -0.109663,0.06195 -0.0854217,-0.113511 -0.0854217,0.168535z"/>
     <path id="_581601576" fill="#5F5F5F" d="M98.1357 125.967c-0.129287,0 -0.085037,-0.02655 -0.085037,0.125054 0.129672,0 0.085037,0.02655 0.085037,-0.125054z"/>
     <path id="_581605488" fill="#4F4F4F" d="M119.244 117.366c0,-0.125824 0.02655,-0.0842674 -0.117743,-0.0842674 0,0.125824 -0.02655,0.0842674 0.117743,0.0842674z"/>
     <path id="_581592408" fill="#4F4F4F" d="M118.167 118.552c0,-0.125054 0.0269348,-0.0854217 -0.113511,-0.0854217 0,0.125054 -0.0269348,0.0854217 0.113511,0.0854217z"/>
     <path id="_581593464" fill="#4F4F4F" d="M118.133 116.807c0,-0.122746 0.0253957,-0.0811891 -0.116974,-0.0811891 0,0.122746 -0.0257804,0.0811891 0.116974,0.0811891z"/>
     <path id="_581604792" fill="#4F4F4F" d="M104.881 140.07c0,-0.12313 0.0280891,-0.0873457 -0.104276,-0.0873457 0,0.123515 -0.0280891,0.0873457 0.104276,0.0873457z"/>
     <path id="_581604648" fill="#5F5F5F" d="M107.341 97.4377c-0.118513,0 -0.07965,-0.0250109 -0.07965,0.110048 0.118513,0 0.07965,0.0253957 0.07965,-0.110048z"/>
     <path id="_581593656" fill="#4F4F4F" d="M49.7308 95.2187c0,-0.120052 0.0261652,-0.0827283 -0.106585,-0.0827283 0,0.119667 -0.0261652,0.0827283 0.106585,0.0827283z"/>
     <path id="_581594496" fill="#4F4F4F" d="M72.029 141.807c0,-0.116974 0.0242413,-0.0777261 -0.110817,-0.0777261 0,0.116974 -0.0242413,0.0777261 0.110817,0.0777261z"/>
     <path id="_581607408" fill="#4F4F4F" d="M81.7378 142.285c-0.13275,0 -0.107354,-0.0377087 -0.107354,0.0804196 0.13275,0 0.107354,0.0377087 0.107354,-0.0804196z"/>
     <path id="_581608080" fill="#5F5F5F" d="M126.248 95.7709c0,-0.121207 0.0284739,-0.0869609 -0.0992739,-0.0869609 0,0.121207 -0.0284739,0.0869609 0.0992739,0.0869609z"/>
     <path id="_581602512" fill="#4F4F4F" d="M98.2154 110.55c0,-0.123515 0.031937,-0.0950413 -0.0873457,-0.0950413 0,0.123515 -0.0323217,0.0950413 0.0873457,0.0950413z"/>
     <path id="_581603088" fill="#5F5F5F" d="M71.1559 95.6874c-0.12467,0 -0.0977348,-0.0338609 -0.0977348,0.0834978 0.125054,0 0.0977348,0.0334761 0.0977348,-0.0834978z"/>
     <path id="_581597520" fill="#4F4F4F" d="M110.594 142.366c0,-0.115435 0.0261652,-0.0808043 -0.0992739,-0.0808043 0,0.11505 -0.0257804,0.0808043 0.0992739,0.0808043z"/>
     <path id="_581604144" fill="#4F4F4F" d="M94.7323 131.172c-0.118513,0 -0.0877304,-0.0292435 -0.0877304,0.0911935 0.118513,0 0.0877304,0.0292435 0.0877304,-0.0911935z"/>
     <path id="_581603136" fill="#4F4F4F" d="M62.9035 102.976c-0.115435,0 -0.0815739,-0.0261652 -0.0815739,0.0977348 0.11505,0 0.0815739,0.02655 0.0815739,-0.0977348z"/>
     <path id="_581592552" fill="#5F5F5F" d="M65.916 99.1766c-0.117359,0 -0.085037,-0.0277043 -0.085037,0.0946565 0.116589,-0.0103891 0.0888848,0.0215478 0.085037,-0.0946565z"/>
     <path id="_581604696" fill="#5F5F5F" d="M127.26 137.91c-0.117743,0 -0.0877304,-0.0288587 -0.0877304,0.0892696 0.117359,0 0.0877304,0.0292435 0.0877304,-0.0892696z"/>
     <path id="_581605584" fill="#3B3B3B" d="M117.974 116.727c0,-0.113896 0.0261652,-0.0804196 -0.0961957,-0.0804196 0,0.113896 -0.0257804,0.0804196 0.0961957,0.0804196z"/>
     <path id="_581604120" fill="#5F5F5F" d="M65.3596 99.7322c-0.11582,0 -0.0834978,-0.0273196 -0.0834978,0.0946565 0.116204,-0.0103891 0.0885,0.0215478 0.0834978,-0.0946565z"/>
     <path id="_581607048" fill="#5F5F5F" d="M70.2832 141.098c0,-0.11505 0.0269348,-0.083113 -0.0935022,-0.083113 0,0.11505 -0.0269348,0.083113 0.0935022,0.083113z"/>
     <path id="_581607240" fill="#4F4F4F" d="M48.8709 95.136c-0.119667,0 -0.0923478,-0.0315522 -0.0923478,0.0838826 0.119667,0 0.0923478,0.0311674 0.0923478,-0.0838826z"/>
     <path id="_581607216" fill="#5F5F5F" d="M74.1499 92.9135c-0.387091,0 -0.112357,-0.0192391 -0.216633,0.0885l0.216633 -0.0885z"/>
     <path id="_581601960" fill="#3B3B3B" d="M127.66 129.664l-0.085037 -0.220096c0,0.388246 -0.0169304,0.117359 0.085037,0.220096z"/>
     <path id="_581602584" fill="#5F5F5F" d="M127.26 123.481c0,-0.116589 0.0292435,-0.0877304 -0.0865761,-0.0877304 0,0.116589 -0.0292435,0.0877304 0.0865761,0.0877304z"/>
     <path id="_581598768" fill="#4F4F4F" d="M68.0723 95.3741c-0.117743,0 -0.0904239,-0.0307826 -0.0904239,0.0834978 0.118128,0 0.0904239,0.0307826 0.0904239,-0.0834978z"/>
     <path id="_581600544" fill="#4F4F4F" d="M66.871 98.3062c-0.117743,0 -0.0900391,-0.0303978 -0.0900391,0.0842674 0.117743,0 0.0900391,0.0303978 0.0900391,-0.0842674z"/>
     <path id="_581604768" fill="#4F4F4F" d="M64.7285 100.447c-0.11582,0 -0.0869609,-0.0288587 -0.0869609,0.0865761 0.11582,0 0.0869609,0.0288587 0.0869609,-0.0865761z"/>
     <path id="_581606856" fill="#4F4F4F" d="M127.099 138.152c-0.11582,0 -0.0877304,-0.0296283 -0.0877304,0.0854217 0.116204,0 0.0877304,0.0292435 0.0877304,-0.0854217z"/>
     <path id="_581606880" fill="#5F5F5F" d="M61.8719 104.89c-0.114665,0 -0.085037,-0.0280891 -0.085037,0.0881152 0.114665,0 0.085037,0.0280891 0.085037,-0.0881152z"/>
     <path id="_581603760" fill="#4F4F4F" d="M84.8119 95.2945c0,-0.11505 0.0288587,-0.0861913 -0.0865761,-0.0861913 0,0.11505 -0.0288587,0.0861913 0.0865761,0.0861913z"/>
     <path id="_581599608" fill="#3B3B3B" d="M96.9467 113.233l-0.0804196 -0.228561c0,0.385167 -0.00923478,0.133135 0.0804196,0.228561z"/>
     <path id="_581607096" fill="#5F5F5F" d="M70.4418 141.181c0,-0.11505 0.0288587,-0.0865761 -0.0861913,-0.0865761 0,0.115435 -0.0288587,0.0865761 0.0861913,0.0865761z"/>
     <path id="_581592528" fill="#5F5F5F" d="M125.363 123.711c0,-0.114665 0.0284739,-0.0858065 -0.0869609,-0.0858065 0,0.11505 -0.0284739,0.0858065 0.0869609,0.0858065z"/>
     <path id="_581607792" fill="#5F5F5F" d="M111.388 113.32c0,-0.11505 0.0288587,-0.0865761 -0.0858065,-0.0865761 0,0.115435 -0.0288587,0.0865761 0.0858065,0.0865761z"/>
     <path id="_581600760" fill="#3B3B3B" d="M118.301 118.631c0,-0.112741 0.0273196,-0.0827283 -0.0888848,-0.0827283 0,0.112741 -0.0273196,0.0827283 0.0888848,0.0827283z"/>
     <path id="_581605272" fill="#3B3B3B" d="M113.292 114.43c0,-0.11428 0.0284739,-0.0858065 -0.0858065,-0.0858065 0,0.11428 -0.0284739,0.0858065 0.0858065,0.0858065z"/>
     <path id="_581605176" fill="#4F4F4F" d="M82.4243 92.84c0,-0.113896 0.0280891,-0.0854217 -0.0858065,-0.0854217 0,0.113896 -0.0284739,0.0854217 0.0858065,0.0854217z"/>
     <path id="_581603184" fill="#4F4F4F" d="M74.0922 142.365c0,-0.111202 0.0261652,-0.0800348 -0.0904239,-0.0800348 0,0.111202 -0.0261652,0.0800348 0.0904239,0.0800348z"/>
     <path id="_581592360" fill="#5F5F5F" d="M122.981 94.6596c0,-0.112741 0.0277043,-0.083113 -0.0873457,-0.083113 0,0.112357 -0.0273196,0.083113 0.0873457,0.083113z"/>
     <path id="_581605944" fill="#4F4F4F" d="M121.228 142.914c-0.113896,0 -0.0854217,-0.0284739 -0.0854217,0.085037 0.113511,0 0.0854217,0.0284739 0.0854217,-0.085037z"/>
     <path id="_581593248" fill="#5F5F5F" d="M127.26 127.442c0,-0.116204 0.0307826,-0.0900391 -0.0804196,-0.0900391 0,0.116204 -0.0307826,0.0900391 0.0804196,0.0900391z"/>
     <path id="_581608296" fill="#3B3B3B" d="M107.109 97.7552c-0.113511,0 -0.0854217,-0.0284739 -0.0854217,0.0846522 0.113511,0 0.0854217,0.0284739 0.0854217,-0.0846522z"/>
     <path id="_581607816" fill="#3B3B3B" d="M116.708 142.682c-0.111972,0 -0.083113,-0.0273196 -0.083113,0.0861913 0.111972,0 0.083113,0.0273196 0.083113,-0.0861913z"/>
     <path id="_581593752" fill="#5F5F5F" d="M93.6168 102.835c0,-0.113126 0.0288587,-0.0854217 -0.0834978,-0.0854217 0,0.113126 -0.0284739,0.0854217 0.0834978,0.0854217z"/>
     <path id="_581597688" fill="#5F5F5F" d="M116.919 117.996l-0.135059 -0.110817c0.0611804,0.14083 -0.105046,0.110817 0.135059,0.110817z"/>
     <path id="_581605392" fill="#4F4F4F" d="M104.881 102.916l0.0900391 -0.160454c-0.115435,0.06195 -0.0900391,-0.11505 -0.0900391,0.160454z"/>
     <path id="_581601600" fill="#5F5F5F" d="M81.2338 144.004l-0.136983 0.106585c0.243183,0 0.0758022,0.0292435 0.136983,-0.106585z"/>
     <path id="_581601360" fill="#3B3B3B" d="M57.5866 115.234l0.0804196 -0.175076c-0.103122,0.06195 -0.0804196,-0.116974 -0.0804196,0.175076z"/>
     <path id="_581592504" fill="#4F4F4F" d="M98.1288 125.695c0.110817,-0.0615652 0.0865761,0.11582 0.0865761,-0.160839l-0.0865761 0.160839z"/>
     <path id="_581598648" fill="#5F5F5F" d="M83.1384 93.002c-0.0615652,-0.113126 0.107739,-0.0885 -0.156222,-0.0885l0.156222 0.0885z"/>
     <path id="_581599512" fill="#4F4F4F" d="M107.093 142.999l-0.148526 -0.091963c0.0611804,0.117359 -0.110817,0.091963 0.148526,0.091963z"/>
     <path id="_581608344" fill="#5F5F5F" d="M83.8341 141.73c-0.2478,0 -0.0792652,-0.0269348 -0.140446,0.0977348l0.140446 -0.0977348z"/>
     <path id="_581602944" fill="#4F4F4F" d="M61.237 130.843c0,-0.257035 0.0250109,-0.0858065 -0.0908087,-0.146987l0.0908087 0.146987z"/>
     <path id="_581603304" fill="#4F4F4F" d="M115.1 92.8338c-0.249339,0 -0.0804196,-0.0242413 -0.1416,0.0900391l0.1416 -0.0900391z"/>
     <path id="_581599920" fill="#4F4F4F" d="M106.785 107.653c0,-0.238565 0.0253957,-0.0731087 -0.0946565,-0.133904l0.0946565 0.133904z"/>
     <path id="_581599848" fill="#4F4F4F" d="M70.9974 95.7616l-0.132365 0.0885c0.232793,0 0.0715696,0.0238565 0.132365,-0.0885z"/>
     <path id="_581602176" fill="#5F5F5F" d="M88.3038 139.421l-0.0869609 0.0927326c0.118128,0 0.0869609,0.0288587 0.0869609,-0.0927326z"/>
     <path id="_581606952" fill="#5F5F5F" d="M66.148 98.9384l-0.0792652 0.0869609c0.117359,0 0.0911935,0.0292435 0.0792652,-0.0869609z"/>
     <path id="_581594376" fill="#5F5F5F" d="M109.251 113.951c0,-0.116589 0.0296283,-0.0885 -0.085037,-0.0885l0.085037 0.0885z"/>
     <path id="_581592888" fill="#5F5F5F" d="M66.2361 98.8626l-0.0881152 0.0758022c0.115435,0.0100043 0.0881152,0.0373239 0.0881152,-0.0758022z"/>
     <path id="_581599224" fill="#5F5F5F" d="M65.4427 99.6522l-0.083113 0.0800348c0.112357,0.0100043 0.083113,0.0350152 0.083113,-0.0800348z"/>
     <path id="_581599248" fill="#5F5F5F" d="M65.9983 99.1004l-0.0823435 0.076187c0.110048,0.0100043 0.0823435,0.0350152 0.0823435,-0.076187z"/>
     <polygon id="_581595552" fill="#4F4F4F" points="114.806,92.9135 114.641,92.9846 "/>
     <polygon id="_581176160" fill="#4F4F4F" points="72.0482,93.4691 71.9497,93.5433 "/>
     <polygon id="_581175896" fill="#4F4F4F" points="85.122,93.5422 85.015,93.4691 "/>
     <polygon id="_581181800" fill="#3B3B3B" points="120.75,94.2629 120.672,94.1867 "/>
     <polygon id="_581177432" fill="#4F4F4F" points="87.5026,94.5715 87.4311,94.5007 "/>
     <polygon id="_581178296" fill="#4F4F4F" points="87.6616,94.6592 87.5846,94.5803 "/>
     <polygon id="_581179160" fill="#4F4F4F" points="84.5821,95.2152 84.4871,95.1433 "/>
     <polygon id="_581180024" fill="#4F4F4F" points="112.975,95.1425 112.874,95.2152 "/>
     <polygon id="_581177168" fill="#4F4F4F" points="124.905,95.2152 124.798,95.1421 "/>
     <polygon id="_581166440" fill="#5F5F5F" points="68.302,95.2152 68.22,95.3006 "/>
     <polygon id="_581168216" fill="#3B3B3B" points="72.4257,95.2214 72.3391,95.2945 "/>
     <polygon id="_581170712" fill="#3B3B3B" points="125.117,95.2945 125.036,95.2214 "/>
     <polygon id="_581169344" fill="#5F5F5F" points="127.26,95.2918 127.176,95.3741 "/>
     <polygon id="_581167280" fill="#3B3B3B" points="86.1805,95.8501 86.0743,95.7789 "/>
     <polygon id="_581167448" fill="#3B3B3B" points="111.785,95.7793 111.692,95.8501 "/>
     <polygon id="_581167376" fill="#4F4F4F" points="126.383,95.8501 126.306,95.7724 "/>
     <polygon id="_581167472" fill="#4F4F4F" points="110.832,96.4119 110.758,96.4854 "/>
     <polygon id="_581167856" fill="#4F4F4F" points="66.0768,96.8028 65.9894,96.8809 "/>
     <polygon id="_581167976" fill="#5F5F5F" points="88.0714,96.8821 87.9786,96.8036 "/>
     <polygon id="_581173832" fill="#4F4F4F" points="65.9894,96.8809 65.9186,96.9529 "/>
     <polygon id="_581167208" fill="#4F4F4F" points="68.8549,96.886 68.7791,96.9614 "/>
     <polygon id="_581166992" fill="#4F4F4F" points="50.5243,97.5258 50.4523,97.5966 "/>
     <polygon id="_581169800" fill="#4F4F4F" points="67.2677,97.9937 67.1823,98.0726 "/>
     <polygon id="_581169680" fill="#5F5F5F" points="111.626,113.472 111.542,113.392 "/>
     <polygon id="_581169584" fill="#3B3B3B" points="59.6498,111.812 59.577,111.884 "/>
     <polygon id="_581169416" fill="#4F4F4F" points="98.2946,111.007 98.2204,110.932 "/>
     <polygon id="_581169320" fill="#4F4F4F" points="109.321,114.027 109.251,113.951 "/>
     <polygon id="_581169992" fill="#5F5F5F" points="97.6597,108.153 97.5786,108.074 "/>
     <polygon id="_581171096" fill="#5F5F5F" points="109.563,114.186 109.483,114.108 "/>
     <polygon id="_581171000" fill="#4F4F4F" points="60.6021,108.062 60.5278,108.154 "/>
     <polygon id="_581170784" fill="#4F4F4F" points="97.5805,107.914 97.5108,107.836 "/>
     <polygon id="_581170688" fill="#4F4F4F" points="60.6814,107.845 60.6083,107.915 "/>
     <polygon id="_581168696" fill="#4F4F4F" points="115.831,115.69 115.727,115.615 "/>
     <polygon id="_581168504" fill="#4F4F4F" points="116.466,116.016 116.382,115.932 "/>
     <polygon id="_581168480" fill="#4F4F4F" points="113.073,116.25 112.975,116.173 "/>
     <polygon id="_581168408" fill="#3B3B3B" points="104.952,107.519 104.881,107.481 "/>
     <polygon id="_581168240" fill="#3B3B3B" points="113.363,116.409 113.292,116.338 "/>
     <polygon id="_581165984" fill="#4F4F4F" points="106.706,107.362 106.631,107.201 "/>
     <polygon id="_581166104" fill="#3B3B3B" points="104.889,107.042 104.802,106.982 "/>
     <polygon id="_581166200" fill="#4F4F4F" points="95.3491,106.566 95.2791,106.471 "/>
     <polygon id="_581166368" fill="#4F4F4F" points="114.56,116.964 114.482,116.887 "/>
     <polygon id="_581166464" fill="#4F4F4F" points="59.4855,106.487 59.412,106.593 "/>
     <polygon id="_581170088" fill="#4F4F4F" points="115.591,117.441 115.514,117.363 "/>
     <polygon id="_581176952" fill="#4F4F4F" points="120.99,118.307 120.916,118.234 "/>
     <polygon id="_581177000" fill="#3B3B3B" points="121.148,118.385 121.077,118.314 "/>
     <polygon id="_581177240" fill="#3B3B3B" points="61.237,106.328 61.1643,106.407 "/>
     <polygon id="_581177264" fill="#5F5F5F" points="122.339,119.113 122.256,119.028 "/>
     <polygon id="_581180480" fill="#4F4F4F" points="119.877,119.425 119.799,119.351 "/>
     <polygon id="_581180360" fill="#5F5F5F" points="121.389,120.298 121.307,120.215 "/>
     <polygon id="_581180264" fill="#5F5F5F" points="124.084,120.305 124.003,120.219 "/>
     <polygon id="_581180096" fill="#4F4F4F" points="124.481,120.62 124.397,120.536 "/>
     <polygon id="_581180000" fill="#4F4F4F" points="122.886,121.33 122.815,121.258 "/>
     <polygon id="_581179616" fill="#4F4F4F" points="60.0442,105.058 59.9672,105.131 "/>
     <polygon id="_581179496" fill="#3B3B3B" points="96.5489,104.927 96.4719,104.82 "/>
     <polygon id="_581179400" fill="#3B3B3B" points="96.946,123.155 96.8663,123.202 "/>
     <polygon id="_581179232" fill="#4F4F4F" points="106.632,102.994 106.706,102.846 "/>
     <polygon id="_581179136" fill="#4F4F4F" points="127.814,124.348 127.745,124.267 "/>
     <polygon id="_581178752" fill="#3B3B3B" points="127.895,124.503 127.814,124.426 "/>
     <polygon id="_581178632" fill="#3B3B3B" points="59.6498,125.14 59.572,125.061 "/>
     <polygon id="_581178536" fill="#3B3B3B" points="106.785,102.563 106.709,102.677 "/>
     <polygon id="_581178368" fill="#5F5F5F" points="95.3587,102.441 95.276,102.359 "/>
     <polygon id="_581178272" fill="#5F5F5F" points="129.003,127.525 128.923,127.442 "/>
     <polygon id="_581177888" fill="#4F4F4F" points="60.6021,129.022 60.5313,128.95 "/>
     <polygon id="_581177768" fill="#4F4F4F" points="61.1577,130.619 61.0858,130.537 "/>
     <polygon id="_581177672" fill="#4F4F4F" points="59.4151,130.696 59.3323,130.613 "/>
     <polygon id="_581177504" fill="#5F5F5F" points="105.519,100.692 105.436,100.773 "/>
     <polygon id="_581177408" fill="#4F4F4F" points="94.6461,131.331 94.5649,131.409 "/>
     <polygon id="_581181368" fill="#3B3B3B" points="96.5489,131.323 96.47,131.411 "/>
     <polygon id="_581181248" fill="#4F4F4F" points="105.586,100.533 105.516,100.605 "/>
     <polygon id="_581181152" fill="#4F4F4F" points="62.9035,134.179 62.8331,134.109 "/>
     <polygon id="_581181872" fill="#3B3B3B" points="63.6176,135.304 63.5334,135.221 "/>
     <polygon id="_581181776" fill="#4F4F4F" points="92.4271,135.221 92.3432,135.305 "/>
     <polygon id="_581181944" fill="#4F4F4F" points="92.1754,135.538 92.105,135.613 "/>
     <polygon id="_581176904" fill="#5F5F5F" points="94.1682,135.772 94.0847,135.856 "/>
     <polygon id="_581176616" fill="#4F4F4F" points="126.618,135.776 126.545,135.85 "/>
     <polygon id="_581176112" fill="#5F5F5F" points="62.1882,136.173 62.1097,136.095 "/>
     <polygon id="_581175752" fill="#4F4F4F" points="126.064,136.808 125.987,136.891 "/>
     <polygon id="_581173136" fill="#4F4F4F" points="125.91,137.046 125.829,137.128 "/>
     <polygon id="_581174816" fill="#5F5F5F" points="92.0258,138.396 91.9469,138.475 "/>
     <polygon id="_581175800" fill="#5F5F5F" points="91.4701,138.952 91.392,139.032 "/>
     <polygon id="_581175992" fill="#5F5F5F" points="91.392,139.032 91.312,139.11 "/>
     <polygon id="_581176136" fill="#4F4F4F" points="88.3696,139.348 88.3038,139.421 "/>
     <polygon id="_581176712" fill="#4F4F4F" points="67.7441,139.582 67.6721,139.507 "/>
     <polygon id="_581173496" fill="#4F4F4F" points="65.2118,99.9069 65.1337,99.9777 "/>
     <polygon id="_583793448" fill="#5F5F5F" points="106.706,141.017 106.626,140.936 "/>
     <polygon id="_583793352" fill="#4F4F4F" points="65.2761,99.8268 65.2118,99.9069 "/>
     <polygon id="_583788096" fill="#5F5F5F" points="85.6018,141.015 85.5187,141.099 "/>
     <polygon id="_583787952" fill="#4F4F4F" points="106.865,141.098 106.781,141.015 "/>
     <polygon id="_583787880" fill="#4F4F4F" points="85.4391,141.094 85.3602,141.174 "/>
     <polygon id="_583787784" fill="#5F5F5F" points="88.6928,141.172 88.61,141.253 "/>
     <polygon id="_583787544" fill="#5F5F5F" points="103.849,141.412 103.77,141.333 "/>
     <polygon id="_583787400" fill="#3B3B3B" points="71.7908,141.728 71.7092,141.65 "/>
     <polygon id="_583789272" fill="#3B3B3B" points="84.0311,141.65 83.9319,141.728 "/>
     <polygon id="_583789104" fill="#4F4F4F" points="108.69,141.8 108.618,141.73 "/>
     <polygon id="_583788960" fill="#4F4F4F" points="106.148,99.2635 106.071,99.3543 "/>
     <polygon id="_583788864" fill="#4F4F4F" points="110.277,142.276 110.204,142.206 "/>
     <polygon id="_583787328" fill="#4F4F4F" points="69.1955,142.365 69.0927,142.289 "/>
     <polygon id="_583787136" fill="#4F4F4F" points="65.8309,99.2712 65.769,99.3428 "/>
     <polygon id="_583787160" fill="#4F4F4F" points="122.576,142.29 122.481,142.365 "/>
     <polygon id="_583786680" fill="#3B3B3B" points="112.578,142.754 112.509,142.682 "/>
     <polygon id="_583786608" fill="#4F4F4F" points="70.4448,142.92 70.3625,142.849 "/>
     <polygon id="_583786536" fill="#4F4F4F" points="85.4394,142.848 85.364,142.92 "/>
     <polygon id="_583783104" fill="#4F4F4F" points="106.869,142.92 106.785,142.849 "/>
     <polygon id="_583783392" fill="#4F4F4F" points="121.465,142.848 121.371,142.92 "/>
     <polygon id="_583783416" fill="#4F4F4F" points="70.6038,142.999 70.521,142.918 "/>
     <polygon id="_583783608" fill="#4F4F4F" points="85.2809,142.928 85.2093,142.999 "/>
     <polygon id="_583783800" fill="#4F4F4F" points="121.069,143.004 120.992,143.079 "/>
     <polygon id="_583783896" fill="#4F4F4F" points="108.531,98.7956 108.461,98.8664 "/>
     <polygon id="_583784064" fill="#5F5F5F" points="92.6607,98.6279 92.5822,98.5505 "/>
     <polygon id="_583784136" fill="#5F5F5F" points="92.5822,98.5505 92.5002,98.4697 "/>
     <polygon id="_583784304" fill="#3B3B3B" points="74.4131,92.8338 74.33,92.9054 "/>
     <polygon id="_583784424" fill="#3B3B3B" points="82.821,92.9058 82.719,92.8338 "/>
     <polygon id="_583784592" fill="#4F4F4F" points="74.5689,144.111 74.4889,144.032 "/>
     <polygon id="_583784760" fill="#4F4F4F" points="122.418,92.9069 122.273,92.8338 "/>
     <polygon id="_583784904" fill="#4F4F4F" points="111.63,144.111 111.547,144.038 "/>
     <polygon id="_583785120" fill="#4F4F4F" points="117.181,144.037 117.094,144.111 "/>
     <polygon id="_583785216" fill="#4F4F4F" points="49.969,98.0788 49.8948,98.1523 "/>
     <polygon id="_583785360" fill="#5F5F5F" points="48.5407,98.1523 48.4611,98.0715 "/>
     <polygon id="_583785504" fill="#5F5F5F" points="60.6021,133.475 60.5228,133.394 "/>
    </g>
   </g>
  </g>
 </g>
</svg>
