<?xml version="1.0" encoding="UTF-8"?>
<!DOCTYPE svg PUBLIC "-//W3C//DTD SVG 1.1//EN" "http://www.w3.org/Graphics/SVG/1.1/DTD/svg11.dtd">
<!-- Creator: CorelDRAW -->
<svg xmlns="http://www.w3.org/2000/svg" xml:space="preserve" width="177px" height="177px" shape-rendering="geometricPrecision" text-rendering="geometricPrecision" image-rendering="optimizeQuality" fill-rule="evenodd" clip-rule="evenodd"
viewBox="0 0 177 177"
 xmlns:xlink="http://www.w3.org/1999/xlink"
 version="1.1">
 <g id="Layer_x0020_1">
  <metadata id="CorelCorpID_0Corel-Layer"/>
  <g id="_247420304">
   <circle id="_257920472" fill="none" stroke="#69A0D2" stroke-width="3.84783" cx="88.5" cy="88.5" r="84.6799"/>
   <g id="_350270352">
    <path id="_299144608" fill="#0868AB" d="M95.2976 99.1315c6.38855,0 11.869,-1.39445 17.3818,-4.37806 4.41038,-2.36718 8.59373,-6.2912 11.3503,-10.4095 0.908087,-1.36213 1.4591,-2.56188 2.20519,-3.98866 -0.324372,0.09735 -1.8485,1.52412 -2.27022,1.91314 -2.23751,2.07552 -4.99409,3.59964 -7.81532,4.86442 -10.2475,4.57237 -23.284,3.24295 -32.5261,-1.88082 -2.43221,-1.36213 -6.4859,-3.92401 -8.56141,-5.7398 -0.518687,-0.454043 -1.13472,-0.875765 -1.62109,-1.36213 -0.259728,-0.259343 -0.421722,-0.454043 -0.681065,-0.648743 -1.07047,-0.843059 -1.94585,-1.94546 -2.88625,-2.91858l-1.94585 -2.3995c-2.69155,-3.56732 -4.50773,-7.39398 -5.70748,-11.7393 -0.745709,-2.69155 -1.39445,-7.10193 -1.1024,-10.2475 0.161993,-1.88082 0.0646435,-3.08095 0.389015,-5.41582 0.129672,-0.87538 0.259343,-1.71844 0.389015,-2.43221l0.454043 -2.52918c-1.03776,0.227022 -2.62653,2.5942 -3.27527,3.46958 -2.49685,3.30798 -4.21568,7.91267 -4.79939,12.096 -0.129672,1.03776 -0.161993,2.2379 -0.29205,3.21063 -0.129672,1.23246 0.227022,4.86442 0.454043,6.25887 0.810737,5.05874 2.91858,10.6689 5.70748,14.8199 1.03776,1.55645 3.04863,4.41038 4.37806,5.7398 3.08057,3.11328 5.44814,5.44814 9.37177,7.783l4.41038 2.33486c0.778415,0.356693 1.55683,0.713387 2.36757,1.00544 2.98322,1.07008 4.83172,1.58877 8.20433,2.07513 2.17287,0.324372 4.28071,0.48675 6.42087,0.48675l0 0.0323217z"/>
    <path id="_299146240" fill="#0868AB" d="M75.7106 47.6669c0,6.06417 1.97817,11.3176 5.18879,15.6306l1.55645 1.94585c0.940409,1.23246 4.18336,4.15103 5.38311,5.02642 2.23751,1.6538 4.15103,2.65923 6.71292,3.69699 0.908087,0.356693 1.71844,0.616037 2.62653,0.875765 5.18879,1.52412 11.7717,1.23207 16.8308,-0.454043 2.46453,-0.810737 4.21568,-1.65418 6.12882,-2.91858 2.91896,-1.94585 6.03185,-5.28614 7.4263,-8.52909 0.227022,-0.551009 0.454043,-1.1024 0.681065,-1.58877 -0.551393,0.129672 -2.17287,2.01049 -3.21024,2.85355 -3.43765,2.82123 -8.98313,5.09144 -13.5555,5.09144 -3.72931,0 -4.70204,0.0646435 -8.49638,-0.97273 -4.60469,-1.26478 -9.89084,-4.54005 -13.3604,-7.45901l-4.8321 -5.44775c-0.259343,-0.3894 -0.421722,-0.681065 -0.648743,-1.10279 -3.59926,-6.03185 -4.08601,-12.8094 -2.9509,-19.6516 0.09735,-0.583715 0.259343,-1.07047 0.29205,-1.58915 -0.778415,0.518687 -1.65418,1.91314 -2.27022,2.72388 -2.33486,3.21063 -3.53461,7.5883 -3.53461,11.869l0.0323217 0z"/>
    <path id="_299146504" fill="#131B28" d="M67.0522 125.497c-6.58325,0 -9.56647,0.616422 -7.71835,-6.90723 0.778415,-3.11328 1.81617,-6.22617 5.67516,-6.22617 2.52956,0 4.31303,1.58877 4.31303,3.79396 0,0.583715 -0.908087,4.02136 -1.1024,4.70243 -0.227022,0.745709 -1.20014,4.02098 -1.20014,4.60469l0.0327065 0.0323217zm-13.7825 -3.79396c0,2.9509 0.324372,5.77212 2.9836,7.29625 0.940409,0.551393 2.01049,0.940793 3.50229,0.940793l6.22617 0.129672c2.62691,0 4.79978,-0.129672 7.4263,-0.129672 0.0327065,-0.940793 0.875765,-3.40533 0.940409,-4.31341 -0.97273,0 -1.36175,-0.129672 -2.30215,-0.129672 0.161993,-1.91314 4.248,-8.49638 1.75115,-13.3931 -3.30798,-6.42087 -13.2962,-5.41543 -17.1224,-0.227022 -1.71882,2.33486 -3.40533,5.83754 -3.40533,9.82619l0 0z"/>
    <path id="_299146696" fill="#131B28" d="M102.594 116.451c2.85355,0 2.85355,1.32942 2.85355,2.69155l-6.0965 0c0.09735,-1.26478 1.68612,-2.69155 3.24295,-2.69155l0 0zm-9.33944 8.65838c0,1.97817 0.323987,3.27527 2.20519,4.28071 2.36718,1.26478 9.46912,0.583715 12.5174,0.583715 0.0323217,-1.32981 0.778415,-2.85393 0.810737,-4.18336l-5.9345 0c-0.648743,-0.0323217 -0.940409,-0.129672 -1.75115,-0.129672 -0.648743,0 -1.13511,-0.0327065 -1.68612,-0.1947 -1.26478,-0.389015 -1.32981,-2.36718 -0.583715,-2.36718l10.9609 0c0,-1.88082 2.26983,-7.03729 -0.778415,-9.4695 -3.37262,-2.69155 -10.5069,-1.68612 -13.3281,2.39989 -1.03776,1.4918 -2.36757,6.58325 -2.36757,9.11242l-0.0646435 -0.0323217z"/>
    <path id="_299146888" fill="#131B28" d="M76.0996 124.816c0,1.91314 0.09735,3.92363 2.36757,4.79939 2.20519,0.810737 8.85308,0.356693 11.5446,0.356693l3.50229 -17.2848c-5.51278,0 -4.54005,-0.356693 -4.89674,1.32981l-2.52956 11.5123 -4.86442 0c-0.259343,-3.21063 -0.161993,-3.79434 0.713387,-7.26431 0.48675,-1.88082 0.908087,-3.46997 0.908087,-5.70748l-4.60469 0 -1.78385 9.04778c-0.161993,0.97273 -0.389015,2.14016 -0.389015,3.27527l0.0323217 -0.0646435z"/>
    <path id="_299147080" fill="#0868AB" d="M94.0978 37.3893c0,5.38311 2.9509,10.1502 5.90218,13.0041l2.49685 1.97817c6.1292,3.92363 16.6361,4.54005 21.3704,-1.81617 0.324372,-0.454043 0.746093,-0.875765 0.875765,-1.42677 -1.78347,0.421337 -6.45319,3.59964 -13.1338,1.49142 -0.616037,-0.194315 -1.32942,-0.389015 -1.91314,-0.648359 -2.14055,-0.908087 -4.76707,-2.46453 -6.42087,-3.98866 -0.259728,-0.259728 -0.3894,-0.454043 -0.681065,-0.648743 -0.421722,-0.324372 -0.356693,-0.227022 -0.681065,-0.648743 -0.745709,-0.97273 -1.26478,-1.2644 -2.27022,-2.85355 -0.583715,-0.940409 -1.32942,-2.39989 -1.68612,-3.56732 -0.356693,-1.13472 -0.940409,-4.37767 -0.843059,-5.5451l0.356693 -3.69699c-0.486365,0.1947 -1.00544,1.13511 -1.26478,1.58915 -1.16743,1.97817 -2.10784,4.21568 -2.10784,6.80988l0 -0.0323217z"/>
    <path id="_299147272" fill="#131B28" d="M130.029 120.502l-0.259343 0c0,-0.68068 -0.486365,-1.81579 -0.681065,-2.56188l-5.28576 0c0.227022,2.85393 2.72388,6.77795 1.62147,10.4099 -0.1947,0.616037 -0.519072,1.07008 -0.648743,1.62147l5.28614 0c0.194315,-0.421722 0.356693,-1.00544 0.551009,-1.45948 1.32981,-3.27527 3.27527,-6.25849 5.48046,-8.98275 2.07552,-2.56188 5.51317,-6.87491 6.93994,-9.56647l-5.80483 0c-0.0323217,0.0650283 -7.0369,10.0855 -7.16658,10.5392l-0.0327065 0z"/>
    <path id="_299147464" fill="#131B28" d="M110.572 129.941l4.86442 0 2.49685 -11.707c0.09735,-0.551393 0.09735,-1.39445 0.616422,-1.39445l10.1502 0c0,-2.49685 -0.745709,-4.31303 -3.50229,-4.31303l-10.5396 0c-0.486365,0 -0.518687,0.810737 -0.713387,1.8485l-2.82123 13.3931c-0.09735,0.389015 -0.356693,1.91314 -0.518687,2.20519l-0.0327065 -0.0323217z"/>
    <path id="_299147656" fill="#131B28" d="M38.9362 136.979c0.421722,0.0323217 0.486365,0.129672 0.940409,0.129672l3.43765 0c0.940409,-0.0650283 1.81579,-0.259343 2.69155,-0.778415 2.01049,-1.16743 2.65923,-4.89674 3.21063,-7.16658 0.453659,-1.81617 0.843059,-3.69699 1.2644,-5.61013 0.227022,-0.973115 0.421722,-1.8485 0.616422,-2.7889 0.09735,-0.551393 0.486365,-2.46453 0.648359,-2.85393l-4.99409 0c-1.49142,2.82123 -1.55645,9.33944 -3.50229,13.2311 -0.681065,1.36213 -0.259343,1.19975 -2.72388,1.4591 -0.681065,0.0650283 -0.421722,-0.323987 -0.940409,1.62147l-0.681065 2.69155 0.0323217 0.0650283z"/>
    <path id="_299147848" fill="#131B28" d="M46.9138 116.708l5.12377 0c0,-0.97273 0.713387,-3.1456 0.810737,-4.18336l-5.12377 0c0,1.32942 -0.810737,2.85355 -0.810737,4.18336z"/>
   </g>
  </g>
 </g>
</svg>
