<?xml version="1.0" encoding="UTF-8"?>
<!DOCTYPE svg PUBLIC "-//W3C//DTD SVG 1.1//EN" "http://www.w3.org/Graphics/SVG/1.1/DTD/svg11.dtd">
<!-- Creator: CorelDRAW -->
<svg xmlns="http://www.w3.org/2000/svg" xml:space="preserve" width="19px" height="19px" shape-rendering="geometricPrecision" text-rendering="geometricPrecision" image-rendering="optimizeQuality" fill-rule="evenodd" clip-rule="evenodd"
viewBox="0 0 19 19"
 xmlns:xlink="http://www.w3.org/1999/xlink"
 version="1.1">
 <g id="Layer_x0020_1">
  <metadata id="CorelCorpID_0Corel-Layer"/>
  <path fill="#408DD2" d="M17.2444 0.0450237l-15.4889 0c-0.944705,0 -1.71056,0.765853 -1.71056,1.71056l0 15.4888c0,0.944759 0.765853,1.71061 1.71056,1.71061l15.4888 0c0.944759,0 1.71061,-0.765853 1.71061,-1.71061l0 -15.4888c0,-0.944705 -0.765853,-1.71056 -1.71056,-1.71056l3.6019e-005 0zm-11.3479 16.3281c0,0.274933 -0.222858,0.4978 -0.4978,0.4978l-2.119 -9.00474e-006c-0.274933,0 -0.4978,-0.222858 -0.4978,-0.4978l9.00474e-006 -8.88277c0,-0.274933 0.222858,-0.4978 0.4978,-0.4978l2.119 0c0.274933,0 0.4978,0.222858 0.4978,0.4978l0 8.88278zm-1.5573 -10.2179c-1.11178,0 -2.01307,-0.901293 -2.01307,-2.01307 0,-1.11178 0.901293,-2.01306 2.01307,-2.01306 1.11178,0 2.01307,0.901293 2.01307,2.01307 0,1.11178 -0.901248,2.01306 -2.01307,2.01306zm12.6311 10.258c0,0.252763 -0.204939,0.457702 -0.457702,0.457702l-2.27385 0c-0.252763,0 -0.457702,-0.204939 -0.457702,-0.457702l0 -4.16653c0,-0.621552 0.182319,-2.72367 -1.62433,-2.72367 -1.40136,0 -1.68561,1.43884 -1.74269,2.08455l0 4.80565c0,0.252763 -0.204894,0.457702 -0.457702,0.457702l-2.19918 0c-0.252763,0 -0.457702,-0.204939 -0.457702,-0.457702l0 -8.96297c0,-0.252763 0.204939,-0.457702 0.457702,-0.457702l2.19919 0c0.252763,0 0.457702,0.204939 0.457702,0.457702l0 0.774966c0.519627,-0.77981 1.29186,-1.38171 2.93609,-1.38171 3.641,0 3.62017,3.40161 3.62017,5.27063l0 4.29909 0 0z"/>
  <g id="_301703032">
  </g>
  <g id="_301703680">
  </g>
  <g id="_301704040">
  </g>
  <g id="_301704328">
  </g>
  <g id="_301704640">
  </g>
  <g id="_301704952">
  </g>
  <g id="_301705264">
  </g>
  <g id="_301705576">
  </g>
  <g id="_301705888">
  </g>
  <g id="_301706200">
  </g>
  <g id="_301706512">
  </g>
  <g id="_301706824">
  </g>
  <g id="_301707136">
  </g>
  <g id="_301707448">
  </g>
  <g id="_301707760">
  </g>
 </g>
</svg>
