<?xml version="1.0" encoding="UTF-8"?>
<!DOCTYPE svg PUBLIC "-//W3C//DTD SVG 1.1//EN" "http://www.w3.org/Graphics/SVG/1.1/DTD/svg11.dtd">
<!-- Creator: CorelDRAW -->
<svg xmlns="http://www.w3.org/2000/svg" xml:space="preserve" width="19px" height="19px" shape-rendering="geometricPrecision" text-rendering="geometricPrecision" image-rendering="optimizeQuality" fill-rule="evenodd" clip-rule="evenodd"
viewBox="0 0 19 19"
 xmlns:xlink="http://www.w3.org/1999/xlink">
 <g id="Layer_x0020_1">
  <metadata id="CorelCorpID_0Corel-Layer"/>
  <path fill="#FEFEFE" d="M5.67815 6.14009c0,0 1.83967,-1.93539 1.48224,-2.27216 -0.223013,-0.209475 -1.55325,-1.91947 -2.48306,-3.21029 -0.348412,-0.483313 -1.51881,-1.1476 -2.60205,0.33345 -2.47238,3.38224 -2.42796,5.32546 -0.9481,7.2409 1.18061,1.52712 6.79131,7.84961 8.17807,9.23661 1.76748,1.76581 3.75725,2.12871 7.47626,-0.106638 0.109013,-0.0653125 0.9918,-0.777812 1.75584,-1.32881 0.605388,-0.437 0.373587,-1.15211 -0.119938,-1.56251 -1.24094,-1.0317 -3.34732,-2.36954 -3.54374,-2.63269 -0.293075,-0.393537 -2.68731,1.51359 -2.68731,1.51359l-6.50821 -7.21145z"/>
 </g>
</svg>
