<?xml version="1.0" encoding="UTF-8"?>
<!DOCTYPE svg PUBLIC "-//W3C//DTD SVG 1.1//EN" "http://www.w3.org/Graphics/SVG/1.1/DTD/svg11.dtd">
<!-- Creator: CorelDRAW -->
<svg xmlns="http://www.w3.org/2000/svg" xml:space="preserve" width="177px" height="177px" shape-rendering="geometricPrecision" text-rendering="geometricPrecision" image-rendering="optimizeQuality" fill-rule="evenodd" clip-rule="evenodd"
viewBox="0 0 177 177"
 xmlns:xlink="http://www.w3.org/1999/xlink"
 version="1.1">
 <g id="Layer_x0020_1">
  <metadata id="CorelCorpID_0Corel-Layer"/>
  <g id="_256835200">
   <circle id="_247435224" fill="none" stroke="#69A0D2" stroke-width="3.84783" cx="88.5" cy="88.5" r="84.6799"/>
   <g id="_301728352">
    <g id="_349289328">
     <path id="_300708216" fill="#A42122" d="M30.1631 100.244l54.0208 -22.5737c2.34871,-1.04392 7.04614,-0.652591 10.3083,0.782648l50.6282 21.1384c1.82656,0.783033 2.87048,1.69651 3.00092,2.47954l0 0 0 0c0,0.260883 0,0.391324 0,0.652207l0 11.4827c0.130441,0.652591 -0.260883,1.3048 -1.3048,1.82695l-54.0208 22.5737c-2.34871,1.04392 -7.04614,0.652591 -10.3083,-0.782648l-50.6278 -21.1388c-1.82695,-0.782648 -2.87086,-1.69612 -3.0013,-2.47915l0 0 0 -0.130441c0,-0.130441 0,-0.260883 0,-0.521765l0 -11.6131c0,-0.130826 0,-0.261267 0,-0.52215l0 0 0 0c0.130441,-0.521765 0.521765,-0.913474 1.3048,-1.3048l0 0.130441z"/>
     <path id="_301728112" fill="#D72F27" d="M31.8562 99.4625l50.5566 -21.1319c3.3226,-1.38868 8.71071,-1.38868 12.0333,0l50.5566 21.1319c3.32221,1.38868 3.32221,3.6412 0,5.02988l-50.5566 21.1319c-3.3226,1.38868 -8.71071,1.38868 -12.0333,0l-50.5566 -21.1319c-3.32221,-1.38868 -3.32221,-3.6412 0,-5.02988z"/>
    </g>
    <g id="_349288728">
     <path id="_301730872" fill="#A42122" d="M30.1631 80.1502l54.0208 -22.574c2.34871,-1.04392 7.04614,-0.652207 10.3083,0.783033l50.6282 21.1384c1.82656,0.783033 2.87048,1.69651 3.00092,2.47915l0 0 0 0c0,0.261267 0,0.391709 0,0.652591l0 11.4827c0.130441,0.652207 -0.260883,1.3048 -1.3048,1.82656l-54.0208 22.574c-2.34871,1.04392 -7.04614,0.652207 -10.3083,-0.783033l-50.6278 -21.1384c-1.82695,-0.783033 -2.87086,-1.69651 -3.0013,-2.47915l0 0 0 -0.130441c0,-0.130826 0,-0.261267 0,-0.52215l0 -11.6131c0,-0.130441 0,-0.260883 0,-0.521765l0 0 0 0c0.130441,-0.52215 0.521765,-0.913474 1.3048,-1.3048l0 0.130441z"/>
     <path id="_301730944" fill="#D72F27" d="M31.8562 79.4576l50.5566 -21.1323c3.3226,-1.38868 8.71071,-1.38868 12.0333,0l50.5566 21.1323c3.32221,1.38868 3.32221,3.64081 0,5.02949l-50.5566 21.1323c-3.3226,1.38868 -8.71071,1.38868 -12.0333,0l-50.5566 -21.1323c-3.32221,-1.38868 -3.32221,-3.64081 0,-5.02949z"/>
    </g>
    <g id="_349288128">
     <path id="_301731376" fill="#A42122" d="M30.1631 60.9688l54.0208 -22.5737c2.34871,-1.04392 7.04614,-0.652591 10.3083,0.782648l50.6282 21.1388c1.82656,0.782648 2.87048,1.69612 3.00092,2.47915l0 0 0 0c0,0.260883 0,0.391324 0,0.652207l0 11.4827c0.130441,0.652591 -0.260883,1.3048 -1.3048,1.82695l-54.0208 22.5737c-2.34871,1.04392 -7.04614,0.652591 -10.3083,-0.782648l-50.6278 -21.1388c-1.82695,-0.782648 -2.87086,-1.69612 -3.0013,-2.47915l0 0 0 -0.130441c0,-0.130441 0,-0.260883 0,-0.521765l0 -11.6131c0,-0.130826 0,-0.261267 0,-0.52215l0 0 0 0c0.130441,-0.521765 0.521765,-0.913474 1.3048,-1.3048l0 0.130441z"/>
     <path id="_301731160" fill="#D72F27" d="M31.8562 60.18l50.5566 -21.1319c3.3226,-1.38868 8.71071,-1.38868 12.0333,0l50.5566 21.1319c3.32221,1.38907 3.32221,3.6412 0,5.02988l-50.5566 21.1319c-3.3226,1.38868 -8.71071,1.38868 -12.0333,0l-50.5566 -21.1319c-3.32221,-1.38868 -3.32221,-3.64081 0,-5.02949l0 -0.000384783z"/>
    </g>
    <path id="_301727920" fill="white" d="M58.0868 56.5323c-18.1375,2.47915 -8.61182,13.5705 10.1779,10.8305 18.9201,-2.60998 8.74265,-13.4401 -10.1779,-10.8305z"/>
    <path id="_301731136" fill="white" d="M71.2656 72.5815l19.181 7.69873c2.34871,-4.3061 5.87178,-8.2205 7.95961,-12.2657 -4.95831,0.783033 -24.1397,2.87086 -27.0102,4.56698l-0.130441 0z"/>
    <path id="_301727848" fill="white" d="M83.9211 49.3561l-8.48176 2.87048 11.7436 1.3048c0.52215,1.30518 2.60998,4.95869 3.6539,5.87217l2.21789 -5.35002 9.917 -1.04392 -7.43785 -3.13175 1.82695 -4.95831c-2.08783,0.391324 -6.39355,2.34871 -8.09005,2.21827 -2.47915,-0.260883 -5.48046,-2.21827 -7.95961,-2.87086 0.913474,1.95739 1.82695,3.0013 2.47915,4.95869l0.130826 0.130441z"/>
    <g id="_349286688">
     <polygon id="_301731016" fill="#781514" points="113.149,54.8354 130.765,62.0116 113.149,69.0569 "/>
     <polygon id="_301730560" fill="#A42122" points="95.6647,62.0116 113.149,54.8354 113.149,69.0569 "/>
    </g>
   </g>
  </g>
 </g>
</svg>
