<?xml version="1.0" encoding="UTF-8"?>
<!DOCTYPE svg PUBLIC "-//W3C//DTD SVG 1.1//EN" "http://www.w3.org/Graphics/SVG/1.1/DTD/svg11.dtd">
<!-- Creator: CorelDRAW -->
<svg xmlns="http://www.w3.org/2000/svg" xml:space="preserve" width="177px" height="177px" shape-rendering="geometricPrecision" text-rendering="geometricPrecision" image-rendering="optimizeQuality" fill-rule="evenodd" clip-rule="evenodd"
viewBox="0 0 177 177"
 xmlns:xlink="http://www.w3.org/1999/xlink"
 version="1.1">
 <g id="Layer_x0020_1">
  <metadata id="CorelCorpID_0Corel-Layer"/>
  <g id="_254065128">
   <circle id="_259644456" fill="none" stroke="#69A0D2" stroke-width="3.84783" cx="88.5" cy="88.5" r="84.6799"/>
   <g id="_298865064">
    <path id="_298864968" fill="black" d="M78.0993 67.2177c-1.23169,3.83205 -5.47392,12.9325 -7.73182,17.1748 -0.616037,1.1632 -0.684143,1.02622 -0.410563,2.2579 0.342072,2.46338 2.05282,2.94243 2.94205,3.353 0.547546,0.205089 1.23169,0.752635 1.43716,1.43678 0.205089,0.616037 -0.410563,7.25315 -0.616037,8.00579 -2.18941,8.27937 -1.64187,25.7962 -1.64187,34.3492 0,2.87394 -1.1632,4.65279 -2.05282,6.70561 -2.25829,5.40543 0.0684913,1.43678 -3.21601,5.54241l5.95297 0c2.18941,-3.83167 7.45824,-3.96865 5.6109,-7.38975 -0.889617,-1.71074 -2.3264,-3.2845 0.47867,-4.99525 1.09509,-0.615652 1.50565,-0.205089 2.32678,-0.821126 0.615652,-0.821126 0.136598,-2.66847 0.27358,-3.90016 0.136598,-1.30018 0.479054,-2.3264 0.957724,-3.4211 1.30018,-3.14752 1.77923,-2.60036 1.71074,-6.84259l2.12131 -15.327c0.205089,-2.59998 0.821126,-4.85827 0.889233,-7.52673 0.0684913,-4.03714 0,-4.10563 1.36867,-7.32126 2.53187,-6.02146 0.136983,-4.65318 4.65279,-8.14277l4.72128 -4.10525c0.889617,-0.889617 1.43716,-1.0266 2.60036,-1.64225 5.95297,-3.14752 7.38975,-5.13185 10.3322,-6.7741 1.91583,-1.09471 4.17374,-1.84734 6.15806,-2.73696 9.10049,-4.17412 3.01054,-0.616037 10.6743,-6.36353 0.958109,-0.684143 1.23169,-1.02622 2.53187,-1.77923 0.547161,-0.342072 2.39489,-1.1632 2.73696,-1.50527 1.02622,-1.02622 0.136598,-1.2998 2.3264,-1.91583 1.84734,-0.547161 2.73696,-0.0684913 4.51581,-0.136598 2.66885,-3.62658 0.136983,-4.37921 2.87394,-6.22694 1.36867,-0.889233 1.57376,-0.889233 2.39489,-2.18941 1.50527,-2.25829 1.71074,-1.71074 1.30018,-3.14752 -4.65318,-0.547546 -3.07942,0.615652 -7.39013,3.35261 -1.09471,0.684528 -5.7475,4.03714 -7.25277,3.90016 -1.09471,-0.547161 -1.30018,-1.2998 -2.66885,-1.91583 -2.3945,-1.09471 -3.21563,1.77923 -9.78464,3.90016 -3.69468,1.16358 -2.87356,0.479054 -6.7741,2.66885 -4.65279,2.59998 -7.45824,4.31072 -11.769,7.32126 -2.46338,1.71074 -4.5843,0.958109 -7.18466,2.46338 -0.684143,0.342072 -2.12092,1.36867 -3.07903,1.50527 -1.50527,0.205474 -3.14752,-0.342072 -4.51581,0.342072 -1.0266,0.479054 -5.54241,1.71074 -6.50052,1.43716 -0.0684913,0 -0.136983,-0.0684913 -0.205089,-0.0684913l-0.616037 -0.342072c-0.0684913,0 -0.136983,-0.0684913 -0.205089,-0.136983l-0.273965 0.821126 0 0.136598z"/>
    <path id="_298865184" fill="black" d="M63.867 84.3944l4.10563 0.342072c1.64225,-4.51581 6.08995,-10.8112 7.66372,-17.927 -1.64225,-0.342457 -1.64225,-0.410563 -2.32678,-1.77923 0.75302,-0.752635 4.51619,-2.39489 5.67939,-2.94243 5.20034,-2.53148 5.20034,-6.63712 5.81599,-11.9056 1.09509,-9.99011 0.752635,-8.07428 -4.5843,-8.41635 -2.39489,-3.55808 -1.57376,-4.85827 -2.1898,-7.18466 -0.342072,-1.09471 -0.47867,-1.50527 -0.615652,-2.73696l-4.99486 0c0,4.92676 -1.09509,3.83167 0.684143,5.95297 3.2845,3.90016 2.3264,5.06335 2.59998,8.00579 0.205474,1.64225 1.0266,1.43678 0.958109,2.53148 0,1.09509 -0.958109,1.1632 -0.958109,2.53187 0,0.342072 0.479054,0.821126 -0.684143,2.73696 -3.55808,0.547546 -4.51581,0.889617 -8.55295,0.752635 -1.43716,-0.0684913 -3.07903,0.136983 -4.24261,0.616037 -1.71036,0.684143 -1.43678,1.57376 -2.87356,2.05243 -0.889617,-1.77885 -2.12131,-10.1267 -2.1898,-10.1952l-1.84734 -2.39489c-2.2579,-0.205089 -4.99486,0.547546 -6.97919,1.23169 -2.3264,0.752635 -4.17412,1.30018 -4.72128,3.90016 -0.958109,4.17412 1.77885,8.41635 4.5843,10.2637 0.958109,0.616037 0.684143,0.273965 1.30018,1.1632 -0.616037,0.821126 -0.547546,0.410563 -1.30018,1.1632 0,3.48998 0.342072,3.07942 -1.71074,5.13185 -2.66847,2.60036 -0.684143,1.84773 -2.3264,4.51619 -4.03714,6.56862 -1.30018,4.99486 -4.10525,9.85313 -0.821126,1.43678 -1.09509,3.07903 -2.05282,4.78977 -1.30018,2.46338 -1.30018,2.94205 -0.410563,5.54241 0.479054,1.36829 0.752635,4.17374 2.12092,4.78977 1.36867,0.615652 1.50565,-0.205474 2.66885,0.752635 0.957724,0.821126 0.547161,1.36829 2.2579,1.1632 0.27358,-1.36867 -0.615652,-2.25829 0,-3.96865 0.684143,-1.91583 0.410563,-2.05282 0.547546,-4.17412 2.94205,-2.2579 4.78939,-4.5843 7.18428,-7.25277 1.84773,-2.05282 6.29543,-0.752635 8.82691,0 1.09471,0.342072 1.23169,0.821126 2.66847,0.957724l0 0.136983z"/>
    <path id="_300477776" fill="#95191E" d="M63.867 84.3944c2.53187,1.43678 4.37921,-1.98432 3.83205,4.85827 -0.136983,1.36829 -1.1632,2.53148 -0.889617,3.83167 1.64225,0.821126 2.53187,0.410563 2.87394,-1.57376 0.136598,-0.821126 0.0681065,-1.71074 0,-2.53187 0,-0.136598 -0.136983,-1.1632 -0.136983,-1.1632 0.0684913,-1.09471 -0.205474,0.616037 0.0684913,-0.547161 0.205089,-0.889617 -0.27358,-0.0684913 0.342072,-0.684528 -0.27358,-1.2313 -0.205474,-1.09471 0.410563,-2.2579 2.2579,-4.17374 6.43203,-13.3427 7.73182,-17.1744 -1.02622,0.136598 -1.64225,-0.136983 -2.46299,-0.410563 -1.57376,7.11617 -6.02146,13.4112 -7.66372,17.927l-4.10563 -0.342072 0 0.0684913z"/>
   </g>
  </g>
 </g>
</svg>
