<?xml version="1.0" encoding="UTF-8"?>
<!DOCTYPE svg PUBLIC "-//W3C//DTD SVG 1.1//EN" "http://www.w3.org/Graphics/SVG/1.1/DTD/svg11.dtd">
<!-- Creator: CorelDRAW -->
<svg xmlns="http://www.w3.org/2000/svg" xml:space="preserve" width="177px" height="177px" shape-rendering="geometricPrecision" text-rendering="geometricPrecision" image-rendering="optimizeQuality" fill-rule="evenodd" clip-rule="evenodd"
viewBox="0 0 177 177"
 xmlns:xlink="http://www.w3.org/1999/xlink"
 version="1.1">
 <g id="Layer_x0020_1">
  <metadata id="CorelCorpID_0Corel-Layer"/>
  <g id="_580110696">
   <circle id="_578992336" fill="none" stroke="#69A0D2" stroke-width="3.84783" cx="88.5" cy="88.5" r="84.6799"/>
   <g>
    <path id="_580110768" fill="#0072C5" d="M55.9282 105.988c2.17825,0.968113 2.78313,2.17825 5.9295,2.66231 2.66231,0.36285 5.80868,-0.121207 5.56665,-3.02555 -0.242028,-2.17787 -2.78352,-3.26719 -4.59854,-4.1141 -9.19669,-4.47733 -8.71263,-11.4962 -3.50922,-15.2474 3.26719,-2.29908 9.80157,-2.42028 13.7952,-0.726085l0 5.80868c-2.17825,-0.726085 -3.3884,-1.93623 -6.65558,-1.8154 -2.54149,0.121207 -4.84057,1.8154 -3.26757,4.47733 1.21014,2.17825 7.98693,3.87245 10.044,7.01882 5.44544,8.71263 -5.80868,16.3363 -17.1836,11.1329l0 -6.29273 -0.120822 0.121207zm31.9466 41.8693l0 -34.2457c-1.57299,-0.726085 -2.5411,-0.726085 -3.99327,-1.45217 -0.968113,-0.484057 -2.05705,-1.33135 -3.75125,-3.02555 -1.93623,-2.05705 -3.14637,-6.05032 -3.14637,-9.68075 0,-7.98655 4.2353,-13.0691 10.7701,-14.6421l0 -23.2339c-9.19707,-0.120822 -18.5146,-1.08893 -26.7435,-3.3884 -3.99327,-1.08893 -7.74452,-2.5411 -10.7697,-4.35612 -1.57299,-0.847291 -3.3884,-2.17825 -4.35651,-3.26719 -2.29908,-2.54149 -1.93584,-3.75163 -2.66193,-4.96139 0,24.4437 0,49.009 0,73.4531 0,13.19 -2.17825,18.3934 12.5851,24.0808 10.1648,3.87245 20.3296,4.71936 31.8254,4.71936l0.242028 0z"/>
    <path id="_580110384" fill="#2677C7" d="M109.413 84.9331l6.53476 0 0 23.2339 10.5277 0 0 5.08221 -16.9412 0.121207 -0.121207 -28.4374zm-21.5397 -23.3551l0 23.2339c4.35651,-0.484057 7.6237,-0.36285 11.0121,1.8154 8.34978,5.68747 8.59181,21.1765 -2.54149,26.0171 1.93623,2.5411 6.17153,5.08221 7.7449,7.74452 -10.4068,0 -7.01882,0.604878 -11.3749,-3.75125 -1.21014,-1.21014 -1.57338,-1.45217 -2.42028,-2.78313l-2.42028 -0.242028 0 34.2457c12.9479,0 35.0929,-1.21014 43.9268,-11.4958 2.90434,-3.3884 1.93623,-10.7701 1.93623,-16.5784 0,-24.5653 0,-49.2514 0,-73.8163 -1.33135,2.17825 -1.21014,3.26719 -3.02555,4.96139 -3.75125,3.50922 -10.2856,5.9295 -15.3682,7.38167 -8.4706,2.42028 -18.0305,3.14637 -27.4692,3.26719l0 0z"/>
    <path id="_580109712" fill="#FEFEFE" d="M116.312 51.0491c-9.43872,2.90395 -17.3044,3.87207 -27.9533,3.87207 -8.4706,0 -20.4508,-0.968113 -27.4692,-3.87207 -7.6237,-1.93623 -13.674,-9.19707 0.726085,-13.7952 14.6421,-4.71936 39.4495,-5.08259 53.9704,0.120822 10.8909,3.87245 11.9802,9.68113 0.605263,13.7952l0.120822 -0.120822zm-33.6408 -21.903l11.617 0c8.4706,0.363235 16.4575,1.57299 22.2658,3.26719 6.65558,1.93623 17.0624,5.80868 17.3044,13.6744 -1.33096,2.17787 -1.21014,3.26719 -3.02516,4.96139 -3.75125,3.50922 -10.286,5.9295 -15.3682,7.38128 -8.47099,2.42028 -18.0305,3.14637 -27.4692,3.26757 -9.19707,-0.121207 -18.5146,-1.08932 -26.7432,-3.3884 -3.99366,-1.08893 -7.7449,-2.5411 -10.7701,-4.35651 -1.57299,-0.846907 -3.3884,-2.17787 -4.35651,-3.26719 -2.29908,-2.5411 -1.93584,-3.75125 -2.66193,-4.96139 1.20976,-4.1141 1.57299,-5.80829 6.53438,-8.83384 7.98655,-4.84018 20.3296,-7.13926 32.6727,-7.74452l0 0z"/>
    <path id="_580109760" fill="#B6D333" d="M61.0073 51.0491c2.90395,-3.02555 21.9026,-4.23569 27.4692,-4.23569 7.74452,0 17.5465,0.847291 25.049,3.02555 1.57299,0.484057 2.05705,0.484057 2.90434,1.21014 11.3749,-3.99366 10.2856,-9.92277 -0.605263,-13.7952 -14.5209,-5.20342 -39.3282,-4.84057 -53.9704,-0.121207 -14.4001,4.59854 -8.34978,11.859 -0.726085,13.7952l-0.120822 0.121207z"/>
    <path id="_580110240" fill="#FEFEFE" d="M87.6304 91.3474c0.968113,-1.08932 2.29946,-1.33135 3.99327,-1.21014 7.26085,0.604878 8.10775,12.3431 3.75163,16.4572 -1.8154,1.6942 -4.96139,2.42028 -7.50288,0.968113 -2.5411,-1.45217 -3.99327,-3.87207 -4.1141,-7.98655 0,-2.42028 0.846907,-7.86573 3.87207,-8.10775l0 -0.120822zm0.242028 -6.53476c-6.53438,1.6942 -10.7697,6.65558 -10.7697,14.6421 0,3.63042 1.21014,7.6237 3.14598,9.68113 4.35651,3.99327 5.08259,3.75125 7.6237,4.47733l2.42028 0.242028c0.847291,1.33096 1.21014,1.45217 2.42028,2.78313 4.35651,4.47733 0.968113,3.75125 11.3749,3.75125 -1.57299,-2.66231 -5.80868,-5.08221 -7.74452,-7.74452 11.1329,-4.84057 10.8909,-20.4508 2.5411,-26.0171 -3.3884,-2.29946 -6.65558,-2.42028 -11.0121,-1.8154l0 0z"/>
    <path id="_580097976" fill="#7FBA00" d="M61.0073 51.0491c7.01843,3.02516 18.9983,3.87207 27.4692,3.87207 10.6489,0 18.5146,-0.968113 27.9533,-3.87207 -0.847291,-0.847291 -1.33135,-0.847291 -2.90434,-1.21014 -7.50249,-2.17825 -17.3044,-3.02555 -25.049,-3.02555 -5.44544,0 -24.5653,1.33135 -27.4692,4.23569z"/>
    <path id="_580110264" fill="#FEFEFE" d="M55.9282 105.988l0 6.29235c11.4962,5.20342 22.6291,-2.42028 17.1836,-11.1329 -1.93623,-3.26719 -8.71302,-4.84018 -10.044,-7.01843 -1.57299,-2.66231 0.846907,-4.35651 3.26719,-4.47733 3.26719,-0.121207 4.47733,1.08893 6.65558,1.81502l0 -5.80829c-3.99327,-1.6942 -10.528,-1.6942 -13.7952,0.726085 -5.08221,3.63004 -5.56627,10.7697 3.5096,15.247 1.81502,0.847291 4.35612,1.93623 4.59815,4.11448 0.242028,2.78313 -2.90434,3.26719 -5.56627,3.02516 -3.14637,-0.36285 -3.87245,-1.6942 -5.9295,-2.66231l0.120822 -0.120822z"/>
    <polygon id="_580100232" fill="#FEFEFE" points="109.532,113.368 126.474,113.249 126.474,108.166 115.947,108.166 115.947,84.9331 109.413,84.9331 "/>
    <g id="_346925688">
     <ellipse id="_580109832" fill="#2677C7" cx="90.8972" cy="98.7275" rx="7.38167" ry="9.07548"/>
     <path id="_580109736" fill="#0072C5" d="M87.7535 106.954c-2.54149,-1.45217 -4.2353,-4.59854 -4.2353,-8.22896 0,-3.63004 1.6942,-6.77641 4.2353,-8.22858l0 16.4575 0 0z"/>
    </g>
   </g>
  </g>
 </g>
</svg>
