<?xml version="1.0" encoding="UTF-8"?>
<!DOCTYPE svg PUBLIC "-//W3C//DTD SVG 1.1//EN" "http://www.w3.org/Graphics/SVG/1.1/DTD/svg11.dtd">
<!-- Creator: CorelDRAW -->
<svg xmlns="http://www.w3.org/2000/svg" xml:space="preserve" width="19px" height="17px" shape-rendering="geometricPrecision" text-rendering="geometricPrecision" image-rendering="optimizeQuality" fill-rule="evenodd" clip-rule="evenodd"
viewBox="0 0 19 17.1905"
 xmlns:xlink="http://www.w3.org/1999/xlink"
 version="1.1">
 <g id="Layer_x0020_1">
  <metadata id="CorelCorpID_0Corel-Layer"/>
  <path fill="#FEFEFE" d="M18.6978 2.53155c-0.422153,0.187195 -0.860374,0.33488 -1.31004,0.441795 0.495484,-0.470838 0.86802,-1.05976 1.07819,-1.71709l0 0c0.0599857,-0.187657 -0.143839,-0.349935 -0.313292,-0.249452l0 0c-0.625561,0.371052 -1.29938,0.649411 -2.00282,0.827441 -0.0408138,0.0103324 -0.0829214,0.0155619 -0.125165,0.0155619 -0.128132,0 -0.2527,-0.0475724 -0.350677,-0.133923 -0.74841,-0.659608 -1.71098,-1.02288 -2.71032,-1.02288 -0.432431,0 -0.869033,0.0674048 -1.29772,0.20035 -1.3282,0.411956 -2.35302,1.50757 -2.67456,2.8593 -0.120632,0.50702 -0.153285,1.01449 -0.0971443,1.50831 0.0064419,0.0567467 -0.0203843,0.0963571 -0.0369233,0.114932 -0.0290429,0.0325624 -0.0702276,0.0512367 -0.112987,0.0512367 -0.0047681,0 -0.00968095,-0.000235238 -0.0145486,-0.000696667 -2.90738,-0.270117 -5.52914,-1.67081 -7.38232,-3.94402l0 0c-0.0945024,-0.115945 -0.275717,-0.101731 -0.351039,0.0274686l0 0c-0.362891,0.622585 -0.554664,1.33468 -0.554664,2.05927 0,1.11048 0.446147,2.15698 1.2211,2.91989 -0.325886,-0.0772667 -0.641304,-0.198957 -0.934311,-0.361697l0 0c-0.141749,-0.0787505 -0.31616,0.0224652 -0.31815,0.184599l0 0c-0.0202938,1.64969 0.945567,3.1176 2.39244,3.7786 -0.0291333,0.000696667 -0.0582757,0.00102238 -0.0874633,0.00102238 -0.229348,0 -0.461573,-0.0221395 -0.690134,-0.0658305l0 0c-0.159636,-0.0304814 -0.29374,0.120949 -0.244177,0.275717l0 0c0.469635,1.4662 1.73205,2.54694 3.24277,2.79231 -1.2538,0.841664 -2.71389,1.28563 -4.23354,1.28563l-0.473751 -0.000280476c-0.145965,0 -0.26942,0.0951538 -0.306615,0.236532 -0.0366429,0.139252 0.0308524,0.28614 0.15532,0.358548 1.71241,0.996568 3.66566,1.52327 5.64944,1.52327 1.73646,0 3.36076,-0.344606 4.82784,-1.02417 1.34492,-0.62301 2.53341,-1.51359 3.53243,-2.647 0.930647,-1.05581 1.6584,-2.27464 2.16296,-3.62258 0.48098,-1.28489 0.73521,-2.65589 0.73521,-3.96482l0 -0.0623562c-4.52381e-005,-0.210176 0.095009,-0.40793 0.260852,-0.54255 0.629307,-0.510955 1.17732,-1.11242 1.62875,-1.78769l0 0c0.119175,-0.178292 -0.0688071,-0.40176 -0.264941,-0.314758l0 0z"/>
  <g id="_579726376">
  </g>
  <g id="_579724288">
  </g>
  <g id="_579727768">
  </g>
  <g id="_579729784">
  </g>
  <g id="_300650576">
  </g>
  <g id="_300718800">
  </g>
  <g id="_249394880">
  </g>
  <g id="_580095336">
  </g>
  <g id="_580095648">
  </g>
  <g id="_580095960">
  </g>
  <g id="_580096272">
  </g>
  <g id="_580096584">
  </g>
  <g id="_580096896">
  </g>
  <g id="_580097208">
  </g>
  <g id="_580097520">
  </g>
 </g>
</svg>
