<?xml version="1.0" encoding="UTF-8"?>
<!DOCTYPE svg PUBLIC "-//W3C//DTD SVG 1.1//EN" "http://www.w3.org/Graphics/SVG/1.1/DTD/svg11.dtd">
<!-- Creator: CorelDRAW -->
<svg xmlns="http://www.w3.org/2000/svg" xml:space="preserve" width="19px" height="17px" shape-rendering="geometricPrecision" text-rendering="geometricPrecision" image-rendering="optimizeQuality" fill-rule="evenodd" clip-rule="evenodd"
viewBox="0 0 19 17.1"
 xmlns:xlink="http://www.w3.org/1999/xlink"
 version="1.1">
 <g id="Layer_x0020_1">
  <metadata id="CorelCorpID_0Corel-Layer"/>
  <path fill="#408DD2" d="M18.6979 2.48634c-0.42218,0.18715 -0.86051,0.33497 -1.31005,0.44175 0.49533,-0.47082 0.86792,-1.05963 1.07806,-1.71703l0 0c0.06004,-0.18772 -0.14383,-0.34998 -0.31331,-0.24947l0 0c-0.62548,0.37107 -1.29941,0.64942 -2.00279,0.82745 -0.04085,0.01026 -0.08284,0.01558 -0.12521,0.01558 -0.12806,0 -0.2527,-0.0475 -0.35055,-0.13395 -0.74841,-0.65968 -1.71095,-1.02296 -2.71035,-1.02296 -0.43244,0 -0.86906,0.06745 -1.2977,0.20045 -1.32829,0.41192 -2.35315,1.50765 -2.67463,2.85931 -0.12065,0.50692 -0.15333,1.01441 -0.09709,1.50822 0.00646,0.05681 -0.02033,0.09633 -0.03686,0.11495 -0.02907,0.03268 -0.0703,0.0513 -0.11305,0.0513 -0.00475,0 -0.00969,-0.00019 -0.01463,-0.00076 -2.90738,-0.26999 -5.529,-1.67086 -7.38226,-3.94402l0 0c-0.09443,-0.1159 -0.27569,-0.10165 -0.35112,0.02755l0 0c-0.3629,0.62263 -0.55461,1.33456 -0.55461,2.05922 0,1.11055 0.44612,2.15707 1.22113,2.91992 -0.32585,-0.07733 -0.64125,-0.19893 -0.93423,-0.36176l0 0c-0.14174,-0.07866 -0.31616,0.02242 -0.31825,0.18468l0 0c-0.02033,1.64958 0.94563,3.11752 2.39248,3.77853 -0.02907,0.00076 -0.05833,0.00095 -0.0874,0.00095 -0.22952,0 -0.4617,-0.02204 -0.69027,-0.06574l0 0c-0.1596,-0.0304 -0.29374,0.12103 -0.24415,0.27569l0 0c0.46968,1.46623 1.73204,2.54695 3.24273,2.79224 -1.25381,0.8417 -2.71377,1.28573 -4.23339,1.28573l-0.47386 -0.00038c-0.14592,0 -0.26942,0.09519 -0.30666,0.23655 -0.03667,0.13927 0.03097,0.28614 0.15542,0.35853 1.71228,0.99655 3.66567,1.52342 5.64946,1.52342 1.73641,0 3.36072,-0.34466 4.82771,-1.02429 1.34501,-0.62301 2.53346,-1.51354 3.53248,-2.64689 0.93062,-1.05583 1.65851,-2.27468 2.16296,-3.62254 0.48108,-1.28497 0.7353,-2.65601 0.7353,-3.96492l0 -0.06232c-0.00019,-0.21014 0.095,-0.40793 0.26087,-0.54264 0.62928,-0.51091 1.17724,-1.11226 1.62868,-1.78752l0 0c0.11913,-0.17841 -0.06878,-0.40185 -0.26486,-0.31483l0 0z"/>
  <g id="_579726376">
  </g>
  <g id="_579724288">
  </g>
  <g id="_579727768">
  </g>
  <g id="_579729784">
  </g>
  <g id="_300650576">
  </g>
  <g id="_300718800">
  </g>
  <g id="_249394880">
  </g>
  <g id="_580095336">
  </g>
  <g id="_580095648">
  </g>
  <g id="_580095960">
  </g>
  <g id="_580096272">
  </g>
  <g id="_580096584">
  </g>
  <g id="_580096896">
  </g>
  <g id="_580097208">
  </g>
  <g id="_580097520">
  </g>
 </g>
</svg>
