<?xml version="1.0" encoding="UTF-8"?>
<!DOCTYPE svg PUBLIC "-//W3C//DTD SVG 1.1//EN" "http://www.w3.org/Graphics/SVG/1.1/DTD/svg11.dtd">
<!-- Creator: CorelDRAW -->
<svg xmlns="http://www.w3.org/2000/svg" xml:space="preserve" width="177px" height="177px" shape-rendering="geometricPrecision" text-rendering="geometricPrecision" image-rendering="optimizeQuality" fill-rule="evenodd" clip-rule="evenodd"
viewBox="0 0 177 177"
 xmlns:xlink="http://www.w3.org/1999/xlink"
 version="1.1">
 <g id="Layer_x0020_1">
  <metadata id="CorelCorpID_0Corel-Layer"/>
  <g id="_401614424">
   <circle id="_402101064" fill="none" stroke="#69A0D2" stroke-width="3.84783" cx="88.5" cy="88.5" r="84.6799"/>
   <g id="_581836872">
    <path id="_580830824" fill="#2C2F33" d="M108.151 142.289l-17.4206 0 0 -5.07067c0,-1.23977 -0.991585,-2.23135 -2.23097,-2.23135 -1.23938,0 -2.23097,0.991585 -2.23097,2.23135l0 5.07067 -17.4206 0c-1.23977,0 -2.23097,0.991585 -2.23097,2.23097 0,1.23938 0.9912,2.23097 2.23097,2.23097l39.3259 0c1.23938,0 2.23097,-0.991585 2.23097,-2.23097 -0.0227022,-1.23938 -1.01429,-2.23097 -2.25367,-2.23097z"/>
    <path id="_580830968" fill="#2C2F33" d="M43.203 110.398c-0.225098,-0.0677217 -0.427878,-0.112741 -0.676063,-0.112741 -1.23938,0 -2.23097,0.991585 -2.23097,2.23097l0 12.1695c0,2.81738 2.29869,5.11568 5.11568,5.11568l86.179 0.000384783c2.81699,0 5.11568,-2.29869 5.11568,-5.11607l0 -59.3154c0,-2.81699 -2.29869,-5.11568 -5.11568,-5.11568l-24.1139 0c-1.23938,0 -2.23097,0.991585 -2.23097,2.23097 0,1.23977 0.991585,2.23097 2.23097,2.23097l24.1139 0c0.360541,0 0.653361,0.293204 0.653361,0.653746l0 59.3381c0,0.360541 -0.29282,0.653746 -0.653361,0.653746l-86.179 0c-0.360541,0 -0.653361,-0.293204 -0.653361,-0.653746l0 -9.82581 -1.55529 -4.48464z"/>
    <path id="_580832552" fill="#2C2F33" d="M71.8466 62.4848c0,-1.23938 -0.991585,-2.23097 -2.23135,-2.23097l-24.204 0c-2.81699,0 -5.11568,2.29869 -5.11568,5.11568l0 12.5043 0 26.4161 0 16.3429 4.46309 0 0 -42.759 -0.000769565 0 0 -12.5043c0,-0.360541 0.29282,-0.653746 0.653361,-0.653746l24.204 0c1.23938,0 2.23135,-0.9912 2.23135,-2.23097z"/>
    <path id="_581733360" fill="red" d="M101.694 39.4364c0,-5.05489 -4.11025,-9.18861 -9.18861,-9.18861l-8.00771 0c-5.05489,0 -9.18861,4.11025 -9.18861,9.18861l0 5.50393c0,0.1416 0.0238565,0.2832 0.0473283,0.401328 -0.0234717,0.141985 -0.0473283,0.260113 -0.0473283,0.401713l0 45.6356c0,0.519841 0.165457,1.01583 0.472513,1.41754l10.842 14.2435c0.449041,0.590257 1.13395,0.92117 1.8662,0.92117 0.732241,0 1.41715,-0.330913 1.8662,-0.92117l10.842 -14.2435c0.307057,-0.401713 0.472128,-0.897698 0.472128,-1.41754l0 -45.7068c0,-0.117743 -0.0234717,-0.259728 -0.0469435,-0.377857 0.0234717,-0.118128 0.0469435,-0.236257 0.0469435,-0.377857l0 -5.48007 0.0238565 0zm-21.684 7.84225l6.16499 0 0 41.4311 -6.16499 0 0 -41.4311zm8.50331 54.4937l-6.40124 -8.40904 12.8025 0 -6.40124 8.40904zm8.5037 -13.0626l-6.16499 0 0 -41.4311 6.16499 0 0 41.4311zm0 -46.1081l-17.007 0 0 -3.16522c0,-2.48031 2.03127,-4.51158 4.51158,-4.51158l8.00733 0c2.48031,0 4.51158,2.03127 4.51158,4.51158l0 3.16522c0,0 -0.0234717,0 -0.0234717,0z"/>
   </g>
  </g>
 </g>
</svg>
